<svg xmlns="http://www.w3.org/2000/svg" width="151.707" height="25" viewBox="0 0 151.707 25"><g transform="translate(-100.955 -5505)"><path d="M1691.538,9.782h.53a8.05,8.05,0,0,0,3.7-.575,2.089,2.089,0,0,0,.962-1.954,1.887,1.887,0,0,0-.825-1.7,4.89,4.89,0,0,0-2.6-.54H1692.3ZM1684.06,21.6,1687.409.53h5.785a24.246,24.246,0,0,1,3.614.2,6.861,6.861,0,0,1,2.1.653,5.549,5.549,0,0,1,2.411,2.244,6.852,6.852,0,0,1,.8,3.413,7.9,7.9,0,0,1-.859,3.654,6.323,6.323,0,0,1-2.323,2.593,6.059,6.059,0,0,1-2.048.756,22.135,22.135,0,0,1-3.7.221h-2.362l-1.179,7.336h-5.593Zm24.667,0h-5.593L1706.453.53h5.608a28.169,28.169,0,0,1,3.776.182,7.525,7.525,0,0,1,2.146.609,5.444,5.444,0,0,1,2.421,2.111,6.19,6.19,0,0,1,.82,3.256,6.358,6.358,0,0,1-1.566,4.385,7.03,7.03,0,0,1-4.3,2.205l5.131,8.318h-6.428l-4.066-8.043-1.267,8.043Zm1.8-11.432h1.768a3.835,3.835,0,0,0,2.559-.761,2.745,2.745,0,0,0,.893-2.2,2.28,2.28,0,0,0-.835-1.964,4.583,4.583,0,0,0-2.671-.609h-.835ZM1722.832,21.6,1726.171.53h5.736L1728.572,21.6h-5.74Zm10.441,0L1736.6.53h6.433l4.444,10.405c.039.083.1.231.186.442a17.449,17.449,0,0,1,1.021,3v-.53c0-.388.024-.81.069-1.277s.108-1.026.192-1.689L1750.568.531h5.628L1752.871,21.6h-6.187l-4.719-10.72c-.344-.776-.609-1.419-.786-1.93s-.329-1.016-.452-1.522v.589c0,.383-.02.786-.049,1.213s-.093,1-.182,1.709L1738.9,21.6h-5.628Zm43.141-20.069-.948,5.809a8.716,8.716,0,0,0-2.632-1.586,8.3,8.3,0,0,0-2.961-.535,5.643,5.643,0,0,0-4.317,1.827,6.577,6.577,0,0,0-1.694,4.655,5.327,5.327,0,0,0,1.424,3.963,5.494,5.494,0,0,0,4.027,1.4,10.307,10.307,0,0,0,2.308-.275,15.633,15.633,0,0,0,2.494-.815l-.879,5.451a13.965,13.965,0,0,1-2.382.525,20.172,20.172,0,0,1-2.814.182,9.6,9.6,0,0,1-7.214-2.789,10.184,10.184,0,0,1-2.71-7.41,12.918,12.918,0,0,1,.7-4.253A11.867,11.867,0,0,1,1760.867,4a10.256,10.256,0,0,1,3.948-2.951,13.208,13.208,0,0,1,5.3-1.021A13.827,13.827,0,0,1,1773.35.4a14.139,14.139,0,0,1,3.064,1.124Zm6.719,15.385h6.521l-.737,4.685h-12.144L1780.1.531h12.144l-.761,4.862h-6.521l-.53,3.447h6.045l-.707,4.567h-6.074l-.56,3.506Z" transform="translate(-1539.581 5507.045)" fill="red"/><g transform="translate(100.955 5505)"><path d="M4.6,34.72,0,15.29l13.023,13.44,6.616-13.3,7.8,13.162,11.839-13.3L35.934,36.878C25.165,33.226,13.389,41.363,4.6,34.72Z" transform="translate(0 -15.29)" fill="red" fill-rule="evenodd"/><path d="M189.97,844.55c11.521,5.634,20.731-2.372,30.52,1.724C210.836,844.459,197.729,852.477,189.97,844.55Z" transform="translate(-185.061 -823.119)" fill="red" fill-rule="evenodd"/></g></g></svg>