<svg xmlns="http://www.w3.org/2000/svg" width="130" height="35" viewBox="0 0 176.694 47.298"><path d="M3048.938-367.056h5.539v5.933h5.236v-5.933h5.539v17.533h-5.539v-6.785h-5.236v6.785h-5.539Zm24.166,0h5.609l6.029,17.533h-5.492l-.676-2.333h-5.47l-.655,2.333h-5.375Zm1.029,11.55h3.481l-1.776-6.272Zm9.581-11.55h5.586l2.968,11.648,3.061-11.648h5.562l-5.842,17.533h-5.562Zm19.445,0H3116.9v4.085h-8.2v2.53h6.917v4.084H3108.7v2.749h8.532v4.085h-14.07Zm16.9,0h5.54v13.448h7.571v4.085h-13.111Zm15.611,0h5.538v13.448h7.573v4.085h-13.111Zm24.236,5.082q-.211-1.506-2.268-1.506c-1.091,0-1.658.315-1.705.948a1.086,1.086,0,0,0,.549.972,5.079,5.079,0,0,0,1.53.645q.958.256,1.847.474a10.345,10.345,0,0,1,4.37,1.969,4.279,4.279,0,0,1,1.379,3.429,5.359,5.359,0,0,1-1.1,3.49,6.058,6.058,0,0,1-2.885,1.933,12.315,12.315,0,0,1-3.846.583,8.327,8.327,0,0,1-5.223-1.641,5.533,5.533,0,0,1-2.278-4.267h5.306a1.913,1.913,0,0,0,.97,1.459,3.435,3.435,0,0,0,1.624.413q2.032-.1,2.15-1.192a1.084,1.084,0,0,0-.736-1.154,14.387,14.387,0,0,0-2.561-.84,21.821,21.821,0,0,1-3.458-1.143,5.215,5.215,0,0,1-2.115-1.739,4.994,4.994,0,0,1-.807-3.052,4.738,4.738,0,0,1,2-3.842,8.625,8.625,0,0,1,5.34-1.484,10.073,10.073,0,0,1,3.307.522,5.77,5.77,0,0,1,2.56,1.776,6.146,6.146,0,0,1,1.307,3.246H3159.9Z" transform="translate(-2988.912 381.927)" fill="#ed1c24"/><path d="M3154.77-498.351a3.106,3.106,0,0,1-.448-.03,2.485,2.485,0,0,1-2.007-1.568,3.454,3.454,0,0,1-.246-1.314,6.927,6.927,0,0,1,.3-1.833,15.729,15.729,0,0,1,2.7-5.9,4.731,4.731,0,0,1,.6-.6l.063-.045c.024-.021.05-.039.074-.057a1.91,1.91,0,0,1,1.117-.417c.858,0,1.77.784,2.571,2.21a22.436,22.436,0,0,1,2.095,6.236c.181.879.336,1.776.472,2.73-.374.025-.75.049-1.124.075-1.256.087-2.419.178-3.553.28-.558.051-1.116.1-1.672.16l-.131.013a7.974,7.974,0,0,1-.816.056" transform="translate(-3145.25 512.512)" fill="#f25746"/><path d="M3155.4-422.827h-.011a1.874,1.874,0,0,1-1.135-.444h0l-.011-.012-.028-.021-.025-.02-.027-.023c-.014-.01-.026-.022-.041-.03a4.588,4.588,0,0,1-.59-.622,16.142,16.142,0,0,1-2.566-6.285,8.845,8.845,0,0,1-.3-2,4.155,4.155,0,0,1,.24-1.413,2.81,2.81,0,0,1,1.95-1.863,3.173,3.173,0,0,1,.8-.1c.176,0,.356.011.571.032.558.057,1.146.11,1.748.163,1.2.1,2.458.2,3.738.287.451.03.9.059,1.357.088-.183,1.2-.392,2.3-.636,3.379a24.47,24.47,0,0,1-2.3,6.493c-.866,1.513-1.867,2.382-2.748,2.382" transform="translate(-3144.401 467.428)" fill="#ba151b"/><path d="M3183.721-492.678a26.269,26.269,0,0,0-4.975-15.23,24.228,24.228,0,0,0-9.771-7.944,5.463,5.463,0,0,0-1.558-.34,2.573,2.573,0,0,0-1.839,2.246,4.268,4.268,0,0,0-.063.894c-.037.587-.071,1.2-.1,1.876-.011.112-.012.283-.019.486-.03.758-.073,1.9-.149,2.348-.673,3.872-4.576,6.324-7.958,6.457-2.308.089-4.573.211-6.733.359-1.2.085-2.387.178-3.534.28-.552.05-1.107.1-1.662.158l-.129.013a8.9,8.9,0,0,1-.921.062,3.955,3.955,0,0,1-.6-.041,3.5,3.5,0,0,1-2.806-2.2,4.442,4.442,0,0,1-.321-1.7,7.967,7.967,0,0,1,.341-2.109,25.779,25.779,0,0,1,1.277-3.62,25.613,25.613,0,0,0-4.81,6.826,26.458,26.458,0,0,0-2.606,10.931v.5a25.8,25.8,0,0,0,6.8,17.583,25.778,25.778,0,0,1-1.227-3.978,9.687,9.687,0,0,1-.325-2.232,5.186,5.186,0,0,1,.3-1.754,3.8,3.8,0,0,1,2.659-2.511,4.048,4.048,0,0,1,1.061-.13,6.666,6.666,0,0,1,.674.037c.552.055,1.119.108,1.734.161,1.182.1,2.431.2,3.715.286,2.249.152,4.618.274,7.042.364a9.078,9.078,0,0,1,5.34,2.1,7.934,7.934,0,0,1,2.886,4.993c.053.395.105,1.526.144,2.35.013.271.022.495.03.623.054.948.11,1.783.17,2.549v0c.025.335.051.642.076.928a2.5,2.5,0,0,0,1.731,2.1,1.922,1.922,0,0,0,.914-.015c.245-.106.49-.211.733-.323a24.464,24.464,0,0,0,9.627-8.037,26.4,26.4,0,0,0,4.856-15.225v-.129Z" transform="translate(-3134.785 516.199)" fill="#ed1c24"/></svg>