<svg xmlns="http://www.w3.org/2000/svg" width="95" height="40" viewBox="0 0 85.108 30"><g transform="translate(-1058.436 -6529.919)"><g transform="translate(1058.436 6529.919)"><circle cx="14.591" cy="14.591" r="14.591" transform="translate(0.41 0.408)" fill="#fefefe"/><path d="M69.41,0A15,15,0,1,1,58.8,4.394,14.953,14.953,0,0,1,69.41,0ZM79.439,4.971A14.183,14.183,0,1,0,83.594,15,14.138,14.138,0,0,0,79.439,4.971Z" transform="translate(-54.41 0)" fill="#009846"/><g transform="translate(31.751 6.48)"><path d="M28.21,340.425l3.639-9.485h1.38l3.861,9.485H35.661l-1.1-2.875H30.57l-1.029,2.875Zm2.729-3.894h3.232l-.989-2.63c-.3-.8-.523-1.459-.68-1.98a13.464,13.464,0,0,1-.523,1.825l-1.039,2.784Z" transform="translate(-24.569 -327.998)" fill="#009846"/><path d="M104.19,340.425V330.94h1.259v9.485Z" transform="translate(-90.741 -327.998)" fill="#009846"/><path d="M129.11,340.425V330.94h4.2a5.618,5.618,0,0,1,1.927.256,2.109,2.109,0,0,1,1.053.9,2.683,2.683,0,0,1,.392,1.429,2.39,2.39,0,0,1-.653,1.7,3.311,3.311,0,0,1-2.016.879,3.236,3.236,0,0,1,.758.472,6.4,6.4,0,0,1,1.038,1.262l1.641,2.583h-1.567l-1.253-1.974c-.364-.572-.667-1.007-.9-1.309a2.9,2.9,0,0,0-.638-.634,1.955,1.955,0,0,0-.572-.252,3.926,3.926,0,0,0-.7-.044H130.37v4.212h-1.259Zm1.259-5.3h2.693a3.976,3.976,0,0,0,1.343-.179,1.4,1.4,0,0,0,.733-.569,1.538,1.538,0,0,0,.252-.849,1.422,1.422,0,0,0-.485-1.109,2.267,2.267,0,0,0-1.536-.432h-3Z" transform="translate(-112.444 -327.998)" fill="#009846"/><path d="M195.215,340.425l-3.665-9.485h1.361l2.464,6.893c.2.552.364,1.069.5,1.552q.219-.778.51-1.552l2.557-6.893h1.281l-3.7,9.485h-1.305Z" transform="translate(-166.824 -327.998)" fill="#009846"/><path d="M249.62,340.425l3.639-9.485h1.38l3.861,9.485h-1.429l-1.1-2.875H251.98l-1.029,2.875Zm2.729-3.894h3.232l-.989-2.63c-.3-.8-.523-1.459-.68-1.98a13.471,13.471,0,0,1-.523,1.825l-1.039,2.784Z" transform="translate(-217.397 -327.998)" fill="#009846"/><path d="M328.321,336.018l1.259.318a4.217,4.217,0,0,1-1.417,2.356,3.9,3.9,0,0,1-2.5.812,4.49,4.49,0,0,1-2.49-.625,3.873,3.873,0,0,1-1.459-1.806,6.471,6.471,0,0,1-.5-2.542,5.569,5.569,0,0,1,.565-2.583,3.892,3.892,0,0,1,1.61-1.676,4.691,4.691,0,0,1,2.3-.572,3.867,3.867,0,0,1,2.391.724,3.766,3.766,0,0,1,1.352,2.036l-1.231.292a2.9,2.9,0,0,0-.957-1.505,2.541,2.541,0,0,0-1.576-.472,3.061,3.061,0,0,0-1.824.523,2.762,2.762,0,0,0-1.029,1.406,5.662,5.662,0,0,0-.3,1.821,5.806,5.806,0,0,0,.351,2.111,2.62,2.62,0,0,0,1.093,1.349,3.05,3.05,0,0,0,1.6.447,2.685,2.685,0,0,0,1.779-.607,3.126,3.126,0,0,0,.988-1.806Z" transform="translate(-279.746 -326.918)" fill="#009846"/><path d="M.546,308.15H52.81a.546.546,0,0,1,.546.546v14.112a.546.546,0,0,1-.546.546H.546A.546.546,0,0,1,0,322.808V308.7a.546.546,0,0,1,.546-.546Zm51.718,1.092H1.092v13.02H52.264Z" transform="translate(0 -308.15)" fill="#009846"/></g><path d="M86.608,30.322a14.772,14.772,0,0,1,.189,2.353c0,.427-.019.849-.055,1.267-.841.011-1.75-.2-1.883-.664-.172-.6-1.031-1.288-.344-1.889s.172-1.117,1.288-1.2a1.781,1.781,0,0,1,.8.136Zm-.266,5.992a14.653,14.653,0,0,1-21.9,8.816,8.006,8.006,0,0,1,1.446-3.093c.863-1.007,1.41-.315,1.324-1.431a14.1,14.1,0,0,0-.42-2.374c-.393-.869-.16-2.13-.195-3.237-.053-1.71-.367-2.061-1.226-2.748s-2.061-1.9-1.8-3.015a4.135,4.135,0,0,1,1.031-2.223c.515-.515,1.546-1.889,2.061-2.319.266-.222.105-.267.427-.427.174-.086-.7-1.478-.3-2.949.094-.342,1.043-.59.972-.136-.241,1.531.213,2.47.37,2.451.6-.074.68-1.774,1.367-2.289s2.061-1.288,2.061-1.288,3.289-.889,3.117.056a11.772,11.772,0,0,1-2.345,4.067c-.6.429-1.632-.086-1.632.859s.429,1.031.258,2.4a21.955,21.955,0,0,1-1.031,3.52,3.318,3.318,0,0,0,.172,3.092c.773,1.117,1.8.429,2.147,1.718s.687,1.8.6,2.577a2.623,2.623,0,0,0,.429,1.975c.429.6-.086,1.288.6,1.288a1.879,1.879,0,0,0,1.718-1.117c.258-.687.429-1.031,1.288-1.031s1.46-1.975.859-2.319-1.718-.086-1.031-1.117,1.031-1.117,1.117-2.233-.8-3.039.161-3.094c1.338-.077,1.479,1.565,2.389,2.581.417.466,1.034-.416,1.468.083,1.017,1.166,1.819,3.666,2.336,4.036a2.12,2.12,0,0,0,1.374-.6,3.144,3.144,0,0,1,.8-.484Zm-23.6,7.59a14.667,14.667,0,0,1-5.016-13.8l1.115,1.115c.6.6,1.117,1.975,1.889,2.233s1.658.195,1.744,1.054a17.464,17.464,0,0,0,.06,2.982c.258.945,1.918,1.965,1.918,2.738s-.627.714-.627,1.753-1.015,1.143-1.082,1.927Z" transform="translate(-57.202 -17.775)" fill="#009846" fill-rule="evenodd"/><path d="M99.113,77.256h-.584l-.231-.609H97.225L97,77.256H96.43l1.039-2.676h.572l1.072,2.676Zm-.99-1.062-.372-.99-.361.99h.733Z" transform="translate(-92.375 -67.383)" fill="#009846"/><path d="M127.34,192.737V190.25h.8a2.99,2.99,0,0,1,.6.037.656.656,0,0,1,.358.244.769.769,0,0,1,.144.484.817.817,0,0,1-.083.385.684.684,0,0,1-.21.245.733.733,0,0,1-.26.118,2.825,2.825,0,0,1-.52.036h-.326v.938Zm.5-2.066v.708h.274a1.281,1.281,0,0,0,.4-.04.325.325,0,0,0,.156-.123.338.338,0,0,0,.057-.194.325.325,0,0,0-.079-.225.344.344,0,0,0-.2-.111,2.524,2.524,0,0,0-.36-.016h-.241Z" transform="translate(-120.302 -171.891)" fill="#009846"/><rect width="0.688" height="2.842" transform="translate(17.963 11.121)" fill="#009846"/></g><path d="M85.592,32.121a23.94,23.94,0,0,1,2.329.775c.007.183.012.368.012.552v.038a22.6,22.6,0,0,0-2.539-.858A.636.636,0,0,1,85.592,32.121ZM87.063,37.2l.325.126q-.074.263-.157.522c-.221-.089-.447-.176-.678-.259.044-.038.089-.077.132-.121a1.874,1.874,0,0,1,.378-.268Zm-1.973.618q-.029.518-.068,1.034c.563.158,1.1.329,1.623.514-.075.166-.152.33-.234.493q-.689-.245-1.434-.456c-.056.652-.124,1.3-.2,1.938q.332.1.653.2-.159.234-.327.463c-.131-.042-.263-.083-.4-.124q-.052.391-.112.777-.42.51-.883.979c-.727-.2-1.487-.372-2.275-.522q-.124.7-.269,1.374.667.12,1.31.262c-.184.149-.372.292-.564.432-.284-.059-.572-.115-.863-.167-.069.3-.141.593-.215.883q-.324.2-.66.374.181-.656.342-1.35c-.773-.127-1.568-.234-2.379-.321-.215.988-.461,1.927-.738,2.8-.206.06-.414.116-.623.167a30.209,30.209,0,0,0,.819-3.024c-.821-.078-1.657-.135-2.5-.173a30.978,30.978,0,0,1-.971,3.591c-.193.011-.386.018-.581.021a29.72,29.72,0,0,0,1-3.634c-.44-.015-.883-.025-1.326-.029-.769-.008-1.541,0-2.31.024a29.868,29.868,0,0,0,.982,3.575c-.2-.019-.4-.041-.6-.069a31.16,31.16,0,0,1-.935-3.488q-1.133.046-2.252.136a28.066,28.066,0,0,0,.828,2.827c-.218-.068-.434-.141-.648-.218-.268-.8-.51-1.659-.725-2.562-.556.05-1.108.109-1.652.176.067-.187.14-.378.224-.572.431-.05.868-.1,1.306-.136-.1-.457-.2-.926-.284-1.4l-.062.006a2.406,2.406,0,0,1,1.044-.637q.882-.069,1.775-.113c-.074-.5-.142-1-.2-1.516q-.738.029-1.471.076c-.025-.175-.054-.358-.085-.538q.744-.048,1.495-.078-.1-.912-.164-1.844-.886.041-1.764.106c-.018-.175-.026-.355-.028-.54q.873-.065,1.755-.106-.055-.882-.082-1.773-.821.039-1.634.1l0-.1c0-.16-.013-.308-.022-.446q.818-.061,1.644-.1c-.012-.534-.015-1.069-.012-1.6q-1.045.051-2.076.135a3.885,3.885,0,0,0-.76-.733c-.053-.042-.107-.086-.162-.132,0-.339.008-.676.016-1.015l.007-.236q-.562.059-1.114.13a3.8,3.8,0,0,1-.323-.5q.719-.094,1.455-.172.041-1.029.119-2.044-.806.084-1.6.189a4.857,4.857,0,0,1,.217-.574q.7-.09,1.424-.164.084-.952.2-1.881h-.011c.229-.274.458-.545.662-.767l-.025.17q1.281-.1,2.582-.152c.1-.639.222-1.265.353-1.875-.216.008-.431.015-.647.025a4.961,4.961,0,0,0,.228-.552l.54-.019c.115-.493.238-.976.372-1.444h-.029c.252-.179.563-.376.859-.559q.7-.009,1.4,0,.439,0,.876.014-.136-.433-.284-.846c.172-.034.356-.066.541-.093q.164.466.314.954c.371.013.741.028,1.109.046-.068.165-.149.345-.239.531-.235-.012-.471-.021-.708-.03q.127.449.243.913c-.208.37-.431.732-.643,1.049q-.605-.017-1.213-.023c-.721-.007-1.445,0-2.166.016-.133.608-.253,1.233-.358,1.872.438-.014.878-.022,1.317-.026a2.486,2.486,0,0,0,.059.541q-.731.006-1.462.03-.138.9-.239,1.835c.633-.028,1.269-.047,1.9-.057l0,.04c-.021.171-.049.339-.082.5q-.938.016-1.874.059c-.066.673-.119,1.355-.158,2.042q.7-.033,1.407-.052c-.069.189-.134.372-.193.547q-.622.019-1.243.048-.029.617-.044,1.238c0,.152-.007.3-.01.455.292-.012.587-.021.88-.029a2.906,2.906,0,0,0-.007.542q-.44.012-.879.03c0,.535,0,1.07.012,1.6q.809-.032,1.621-.044a3.143,3.143,0,0,0,1.146.535c-.918,0-1.837.014-2.753.051.018.593.045,1.186.082,1.773,1.023-.04,2.051-.054,3.074-.044l.593.009c.067.2.127.379.179.545q-.388-.009-.776-.013c-1.009-.01-2.024.006-3.033.043q.067.934.165,1.847c.851-.027,1.705-.037,2.555-.029q.606.006,1.211.023a2.387,2.387,0,0,0,.111.545q-.662-.022-1.326-.027c-.829-.008-1.661,0-2.49.027.06.51.128,1.016.2,1.512.922-.036,1.846-.049,2.768-.04q.695.007,1.386.031c.01.256.046.435.4.435a1.984,1.984,0,0,0,1.111-.361c.652.041,1.3.1,1.937.162.074-.475.141-.958.2-1.448q-.605-.067-1.223-.12a1.072,1.072,0,0,1,.978-.38.6.6,0,0,0,.227-.046l.081.009.006-.052a1.679,1.679,0,0,0,.633-.858q-.046.489-.1.973c.826.1,1.634.221,2.418.363.076-.625.142-1.261.2-1.9-.767-.132-1.558-.245-2.364-.34a.57.57,0,0,0-.236-.463,1.649,1.649,0,0,0-.427-.154l.094.01c.04-.584.069-1.173.09-1.764l-.193-.02a2.263,2.263,0,0,0,.522-1.42c.086-1.117-.8-3.039.161-3.094a1.2,1.2,0,0,1,.774.2c-.244-.03-.489-.057-.737-.084.014.33.025.661.034.993.007.264.012.53.014.794q1.021.12,2,.281a3.526,3.526,0,0,0,.3.395c.417.466,1.034-.416,1.468.083a4.65,4.65,0,0,1,.366.485q-.556-.126-1.132-.235c0,.531-.014,1.062-.033,1.589.741.14,1.46.3,2.152.473a13.8,13.8,0,0,0,.761,1.471ZM63.882,44.559l-.082-.069.095-.015A.784.784,0,0,0,63.882,44.559Zm.568-.853q-.075-.358-.147-.724c-.591.092-1.172.194-1.738.3-.14-.153-.277-.311-.411-.47.666-.136,1.351-.259,2.05-.368q-.139-.776-.254-1.582c-.8.112-1.587.239-2.349.384q.074.543.159,1.074a14.667,14.667,0,0,1-.989-1.463L61,40.816q-.111-.884-.193-1.793c-.294.061-.586.124-.872.19-.072-.168-.141-.337-.207-.508q.508-.117,1.034-.225-.069-.864-.112-1.743-.74.156-1.445.331c-.044-.175-.085-.35-.124-.528q.751-.187,1.544-.352-.03-.79-.041-1.586-.9.191-1.75.412c-.019-.181-.035-.364-.048-.547.579-.15,1.178-.289,1.794-.417q0-.664.013-1.329c.171.267.344.543.531.783,0,.146,0,.29,0,.436l.342-.066a1.18,1.18,0,0,0,.405.246c.171.057.347.1.52.138q-.641.11-1.264.234.007.795.038,1.587c.751-.147,1.525-.279,2.315-.395-.014-.32-.025-.641-.034-.962a.846.846,0,0,1,.168.453c.057.571-.049,1.283-.051,1.975q-.032-.459-.057-.923-1.19.177-2.319.4.042.879.11,1.746c.756-.146,1.534-.276,2.331-.391l0-.049c.014.076.031.152.051.225a2.612,2.612,0,0,0,.606.951q.062.58.137,1.148.408-.052.822-.1a1.829,1.829,0,0,1,.31.51q-.533.058-1.059.126.114.8.253,1.573l.244-.035a2.062,2.062,0,0,0-.023.317,1.375,1.375,0,0,1-.019.235l-.1.014.042.212a1.638,1.638,0,0,1-.43.592Zm-4-11.2q-.874.2-1.694.433.01-.287.03-.571.643-.178,1.319-.338A5.06,5.06,0,0,1,60.454,32.509Zm7.54-8.5a5.38,5.38,0,0,1-.121-.535c.334-.024.669-.044,1-.064a2.835,2.835,0,0,0,.138.535q-.512.028-1.022.063Zm-.148-.714a3.34,3.34,0,0,1,.073-1.31c.094-.342,1.043-.59.972-.136-.007.043-.014.087-.019.13q-.365.02-.727.044-.161.622-.3,1.272ZM83.968,43.151q.116-.7.211-1.418c-.775-.217-1.591-.408-2.439-.574q-.1.724-.213,1.427c.846.162,1.663.35,2.441.565Zm.281-1.96c.078-.636.145-1.282.2-1.933-.778-.206-1.594-.387-2.44-.545q-.083.965-.2,1.908c.846.165,1.662.355,2.439.569Zm.242-2.481q.064-.861.1-1.731c-.775-.209-1.589-.395-2.434-.555q-.039.88-.1,1.748c.844.156,1.66.336,2.44.538ZM67.985,43.978q1.125-.093,2.266-.141-.138-.7-.254-1.421-1.158.055-2.3.154.133.719.287,1.407Zm2.814-.161c.808-.026,1.618-.036,2.426-.028q.718.007,1.432.033.139-.7.257-1.422-.842-.035-1.694-.043c-.892-.009-1.787,0-2.679.037Q70.66,43.118,70.8,43.817Zm4.405.028c.844.039,1.682.1,2.5.178q.14-.689.262-1.405c-.823-.085-1.663-.149-2.511-.193-.078.482-.162.956-.254,1.42Zm3.045.233c.813.088,1.61.2,2.386.325q.145-.676.27-1.38c-.777-.137-1.578-.252-2.4-.346-.08.476-.166.944-.259,1.4ZM74.085,21.9c-.347-.009-.7-.015-1.046-.018q-.831-.007-1.663.007-.2.7-.379,1.441,1.023-.023,2.047-.014.712.007,1.421.03c-.117-.494-.243-.977-.379-1.444Zm-4.206,4.41q-1.3.052-2.573.155-.12.924-.207,1.874c.839-.078,1.688-.141,2.543-.186Q69.744,27.222,69.879,26.314ZM69.586,28.7c-.852.046-1.7.11-2.533.189q-.08,1.013-.122,2.044,1.236-.119,2.5-.191.058-1.031.155-2.042ZM69.4,31.289c-.838.048-1.669.112-2.49.192l-.009.3c-.012.452-.016.9-.017,1.357q1.22-.107,2.463-.167c0-.164.006-.328.01-.491q.014-.6.042-1.2Zm12.268,2.9c-.8-.142-1.621-.262-2.463-.363q0,.8-.02,1.6c.838.1,1.657.217,2.453.355q.026-.795.031-1.592Zm-.051,2.137c-.793-.14-1.613-.259-2.449-.358q-.032.886-.092,1.763c.832.1,1.646.211,2.438.346q.065-.869.1-1.751Zm-17.943,2.2c-.8.116-1.577.247-2.333.394q.081.909.192,1.8c.761-.143,1.546-.271,2.346-.382Q63.764,39.441,63.677,38.524ZM81.21,41.06c-.782-.142-1.588-.262-2.413-.363q-.091.732-.2,1.444c.819.095,1.622.21,2.4.348Q81.112,41.785,81.21,41.06Z" transform="translate(1000.096 6511.469)" fill="#fefefe"/></g></svg>