<svg xmlns="http://www.w3.org/2000/svg" xmlns:xlink="http://www.w3.org/1999/xlink" width="175.501" height="41.202" viewBox="0 0 175.501 41.202"><defs><clipPath id="a"><path d="M17.831,0l8.921,5.15,8.921,5.15V30.9l-8.921,5.15L17.831,41.2l-8.921-5.15L-.01,30.9V10.3L8.911,5.15,17.831,0Z" transform="translate(0.01 0)" clip-rule="evenodd"/></clipPath></defs><g transform="translate(0.01 0)"><g transform="translate(-0.01 0)" clip-path="url(#a)"><g transform="translate(-2.394 0.365)"><path d="M-19.87,32.645A20.278,20.278,0,0,1-5.952,20.6L1.064,32.645H-19.87Z" transform="translate(21.35 -20.016)" fill="#1bdf7d" fill-rule="evenodd"/><path d="M-48.1,342.673A20.143,20.143,0,0,1-52,330.728a20.224,20.224,0,0,1,.794-5.628h13.342L-48.1,342.672Z" transform="translate(52 -310.492)" fill="#6c6c8b" fill-rule="evenodd"/><path d="M80.556,505.012a20.458,20.458,0,0,1-2.606.167,20.181,20.181,0,0,1-14.939-6.587l7.266-11.832,10.279,18.252Z" transform="translate(-57.713 -464.706)" fill="#1bdf7d" fill-rule="evenodd"/><path d="M362.956,622.06A20.277,20.277,0,0,1,349.088,633.7L342.31,622.06Z" transform="translate(-324.149 -593.775)" fill="#6c6c8b" fill-rule="evenodd"/><path d="M332.137,7.92a20.181,20.181,0,0,1,15.037,6.7L340.14,26.128,329.47,8.1A20.459,20.459,0,0,1,332.137,7.92Z" transform="translate(-311.901 -7.92)" fill="#6c6c8b" fill-rule="evenodd"/><path d="M520.61,208.778h13.174a20.275,20.275,0,0,0-2.876-17.878l-10.3,17.878Z" transform="translate(-494.237 -182.473)" fill="#1bdf7d" fill-rule="evenodd"/></g></g><path d="M17.841,0l8.921,5.15L35.683,10.3V30.9l-8.921,5.151L17.841,41.2l-8.92-5.15L0,30.9V10.3L8.921,5.15Z" transform="translate(-0.01 0)" fill="none" fill-rule="evenodd"/><path d="M1196.356,78.549q-.649,0-.447-.649l8.443-25.493a.632.632,0,0,1,.649-.446h7.226a.632.632,0,0,1,.649.446l8.484,25.493q.162.649-.446.649h-6.089a.593.593,0,0,1-.649-.446l-4.1-14.7q-.406-1.461-.772-2.923t-.69-2.882h-.081q-.325,1.461-.69,2.923t-.771,2.923l-4.019,14.614a.6.6,0,0,1-.649.487h-6.049Zm6.9-4.749,1.056-5.237h8.4l1.1,5.237h-10.554Z" transform="translate(-1140.793 -49.567)" fill="#6c6c8b"/><path d="M1795.8,78.539a.5.5,0,0,1-.568-.568V52.518a.5.5,0,0,1,.568-.568h16.887q.528,0,.528.568v4.668q0,.569-.528.568h-10.757v4.668h9.783q.528,0,.528.568v4.344q0,.569-.528.568h-9.783v4.831h10.757q.528,0,.528.568v4.668q0,.569-.528.568Z" transform="translate(-1712.557 -49.557)" fill="#6c6c8b"/><path d="M2276.009,78.539a.5.5,0,0,1-.569-.568V52.518a.5.5,0,0,1,.569-.568H2292.9q.528,0,.528.568v4.668q0,.569-.528.568h-10.758v4.668h9.784q.527,0,.528.568v4.344q0,.569-.528.568h-9.784v4.831H2292.9q.528,0,.528.568v4.668q0,.569-.528.568Z" transform="translate(-2170.65 -49.557)" fill="#6c6c8b"/><path d="M2749.458,68.944q-5.4,0-8.423-2.6t-3.025-8.038V52.1q0-5.521,3.025-8.119t8.423-2.6a15.973,15.973,0,0,1,6.617,1.218,8.3,8.3,0,0,1,3.938,3.43,8.1,8.1,0,0,1,.853,5.216.8.8,0,0,1-.183.406.487.487,0,0,1-.385.163h-5.6q-.528,0-.528-.609a3.889,3.889,0,0,0-1.055-2.943,5.98,5.98,0,0,0-7.125.122,5.311,5.311,0,0,0-1.279,3.958v5.642a5.311,5.311,0,0,0,1.279,3.958,4.894,4.894,0,0,0,3.552,1.238,4.686,4.686,0,0,0,3.654-1.2,3.876,3.876,0,0,0,.974-2.862q0-.609.528-.609h5.562a.571.571,0,0,1,.609.568,8.57,8.57,0,0,1-.994,5.216,8.44,8.44,0,0,1-3.917,3.43A15.458,15.458,0,0,1,2749.458,68.944Z" transform="translate(-2611.916 -39.474)" fill="#1bdf7d"/><path d="M3320.529,68.944q-5.683,0-8.606-2.679T3309,58.349V51.975q0-5.277,2.923-7.937t8.606-2.659q5.684,0,8.626,2.659t2.943,7.937v6.373q0,5.237-2.943,7.916T3320.529,68.944Zm0-5.846a4.681,4.681,0,0,0,3.674-1.34,5.6,5.6,0,0,0,1.2-3.856v-5.48a5.6,5.6,0,0,0-1.2-3.856,4.683,4.683,0,0,0-3.674-1.34,4.627,4.627,0,0,0-3.633,1.34,5.6,5.6,0,0,0-1.2,3.856V57.9a5.6,5.6,0,0,0,1.2,3.856A4.628,4.628,0,0,0,3320.529,63.1Z" transform="translate(-3156.608 -39.474)" fill="#1bdf7d"/><path d="M1215.351,768.3c-.065,0-.09-.037-.076-.111l1.378-4.37a.108.108,0,0,1,.111-.076h1.2a.108.108,0,0,1,.111.076l1.378,4.37c.023.074,0,.111-.07.111h-1.023a.093.093,0,0,1-.1-.076l-.675-2.547q-.063-.251-.115-.494t-.108-.487h-.014c-.033.162-.067.325-.1.487s-.077.327-.119.494l-.661,2.54a.1.1,0,0,1-.1.083Zm1.148-.828.167-.877h1.357l.174.877Z" transform="translate(-1159.309 -728.565)" fill="#8a8a8a"/><path d="M1327.53,768.3c-.06,0-.09-.033-.09-.1v-4.363c0-.065.03-.1.09-.1h2.784c.056,0,.083.032.083.1v.779c0,.06-.028.09-.083.09h-1.768v.835h1.608c.056,0,.083.033.083.1v.724c0,.065-.028.1-.083.1h-1.608v.87h1.768c.056,0,.083.03.083.09v.779c0,.065-.028.1-.083.1Z" transform="translate(-1266.312 -728.565)" fill="#8a8a8a"/><path d="M1420.29,768.3c-.06,0-.09-.033-.09-.1v-4.363c0-.065.03-.1.09-.1h2.784c.056,0,.083.032.083.1v.779c0,.06-.028.09-.083.09h-1.768v.835h1.608c.056,0,.083.033.083.1v.724c0,.065-.028.1-.083.1h-1.608v.87h1.768c.056,0,.083.03.083.09v.779c0,.065-.028.1-.083.1Z" transform="translate(-1354.8 -728.565)" fill="#8a8a8a"/><path d="M1511.949,766.791a2.015,2.015,0,0,1-1.385-.438,1.724,1.724,0,0,1-.494-1.357v-1.114a1.735,1.735,0,0,1,.494-1.36,2,2,0,0,1,1.385-.442,2.523,2.523,0,0,1,1.082.209,1.372,1.372,0,0,1,.647.588,1.417,1.417,0,0,1,.135.888.156.156,0,0,1-.028.063.074.074,0,0,1-.063.027h-.933c-.06,0-.088-.032-.083-.1a.729.729,0,0,0-.167-.526.75.75,0,0,0-.578-.191.779.779,0,0,0-.581.209.925.925,0,0,0-.206.668v1.03a.934.934,0,0,0,.206.675.778.778,0,0,0,.581.209.644.644,0,0,0,.745-.717c0-.07.023-.1.083-.1h.933c.056,0,.086.033.09.1a1.47,1.47,0,0,1-.153.888,1.405,1.405,0,0,1-.64.588,2.453,2.453,0,0,1-1.072.209Z" transform="translate(-1440.531 -726.981)" fill="#8a8a8a"/><path d="M1619.383,766.791a1.989,1.989,0,0,1-1.412-.452,1.741,1.741,0,0,1-.48-1.329v-1.141a1.75,1.75,0,0,1,.48-1.336,2.431,2.431,0,0,1,2.825,0,1.75,1.75,0,0,1,.48,1.336v1.141a1.74,1.74,0,0,1-.48,1.329A1.987,1.987,0,0,1,1619.383,766.791Zm0-.974a.731.731,0,0,0,.591-.223.991.991,0,0,0,.188-.654v-1.009a.989.989,0,0,0-.188-.658.738.738,0,0,0-.591-.219.751.751,0,0,0-.592.219.964.964,0,0,0-.195.658v1.009a.966.966,0,0,0,.195.654A.745.745,0,0,0,1619.383,765.817Z" transform="translate(-1543.003 -726.981)" fill="#8a8a8a"/><path d="M1778.95,768.3c-.056,0-.083-.033-.083-.1v-3.493h-1.079c-.065,0-.1-.03-.1-.09v-.779a.086.086,0,0,1,.1-.1h3.271c.06,0,.091.032.091.1v.779a.08.08,0,0,1-.091.09h-1.079V768.2a.086.086,0,0,1-.1.1Z" transform="translate(-1695.825 -728.565)" fill="#8a8a8a"/><path d="M1877.34,768.3c-.06,0-.09-.033-.09-.1v-4.363c0-.065.03-.1.09-.1h1.538a2.028,2.028,0,0,1,1.357.369,1.382,1.382,0,0,1,.417,1.093,1.573,1.573,0,0,1-.184.79.981.981,0,0,1-.6.449v.014l1.03,1.726a.087.087,0,0,1,.01.083.074.074,0,0,1-.073.035H1879.8a.128.128,0,0,1-.112-.063l-.9-1.614h-.432v1.58c0,.065-.028.1-.083.1h-.933Zm1.016-2.554h.522a.815.815,0,0,0,.5-.125.6.6,0,0,0,.014-.807.766.766,0,0,0-.491-.125h-.543v1.058Z" transform="translate(-1790.799 -728.565)" fill="#8a8a8a"/><path d="M1974.981,768.3c-.065,0-.09-.037-.076-.111l1.378-4.37a.108.108,0,0,1,.111-.076h1.2a.109.109,0,0,1,.111.076l1.378,4.37q.035.111-.07.111h-1.023a.093.093,0,0,1-.1-.076l-.675-2.547q-.063-.251-.115-.494t-.108-.487h-.014q-.049.243-.1.487t-.118.494l-.661,2.54a.1.1,0,0,1-.1.083Zm1.148-.828.167-.877h1.357l.174.877Z" transform="translate(-1883.953 -728.565)" fill="#8a8a8a"/><path d="M2087.171,768.3c-.06,0-.09-.033-.09-.1v-4.363c0-.065.03-.1.09-.1h1.559a2.155,2.155,0,0,1,1.563.5,2,2,0,0,1,.511,1.5v.508a1.817,1.817,0,0,1-2.067,2.053h-1.566Zm1.016-.96h.487a.956.956,0,0,0,.772-.289,1.257,1.257,0,0,0,.243-.832v-.445a1.155,1.155,0,0,0-.247-.8.993.993,0,0,0-.776-.275h-.48v2.637Z" transform="translate(-1990.966 -728.565)" fill="#8a8a8a"/><path d="M2195.64,768.3c-.06,0-.09-.033-.09-.1v-4.363c0-.065.03-.1.09-.1h.932c.056,0,.084.032.084.1V768.2c0,.065-.028.1-.084.1Z" transform="translate(-2094.44 -728.565)" fill="#8a8a8a"/><path d="M2249.86,768.279c-.06,0-.09-.033-.09-.1v-4.363c0-.065.03-.1.09-.1h1.169a.1.1,0,0,1,.1.07l.834,1.775q.1.195.2.414t.181.435q.084.216.139.39h.021c-.009-.125-.02-.269-.031-.432s-.021-.325-.028-.487-.011-.3-.011-.425v-1.642c0-.065.031-.1.091-.1h.891c.06,0,.091.032.091.1v4.363c0,.065-.03.1-.091.1h-1.169a.111.111,0,0,1-.1-.07l-.807-1.705q-.09-.188-.184-.414t-.177-.445l-.153-.4h-.021q.014.195.024.442t.014.491q0,.244,0,.445v1.559a.086.086,0,0,1-.1.1h-.884Z" transform="translate(-2146.162 -728.546)" fill="#8a8a8a"/><path d="M2361.134,766.791a1.883,1.883,0,0,1-.873-.195,1.4,1.4,0,0,1-.6-.588,2.048,2.048,0,0,1-.215-.992v-1.141a1.72,1.72,0,0,1,.5-1.35,2.008,2.008,0,0,1,1.388-.445,2.453,2.453,0,0,1,1.072.205,1.356,1.356,0,0,1,.62.557,1.258,1.258,0,0,1,.139.79c0,.06-.035.091-.091.091l-.932-.007c-.051,0-.076-.032-.076-.1a.524.524,0,0,0-.164-.421.8.8,0,0,0-.553-.157.785.785,0,0,0-.591.209.936.936,0,0,0-.2.668v1.044a.9.9,0,0,0,.208.665.829.829,0,0,0,.606.205.816.816,0,0,0,.546-.163.584.584,0,0,0,.191-.47v-.181h-.717c-.061,0-.09-.033-.09-.1v-.557c0-.065.03-.1.09-.1h1.705c.056,0,.083.032.083.1v1.162q0,.272.014.567a4.9,4.9,0,0,0,.049.519.074.074,0,0,1-.014.076.1.1,0,0,1-.077.028h-.738a.076.076,0,0,1-.056-.021.168.168,0,0,1-.034-.07,1.016,1.016,0,0,1-.028-.205c0-.086-.011-.164-.021-.233h-.014a1.207,1.207,0,0,1-.24.306,1.086,1.086,0,0,1-.365.219,1.5,1.5,0,0,1-.522.08Z" transform="translate(-2250.791 -726.981)" fill="#8a8a8a"/><path d="M2526.09,768.3c-.06,0-.09-.033-.09-.1v-4.363c0-.065.03-.1.09-.1h1.4a1.943,1.943,0,0,1,1.357.4,1.524,1.524,0,0,1,.425,1.169,1.462,1.462,0,0,1-.438,1.138,1.932,1.932,0,0,1-1.336.4h-.39V768.2c0,.065-.028.1-.083.1h-.933Zm1.016-2.4h.376a.787.787,0,0,0,.5-.139.544.544,0,0,0,.174-.452.581.581,0,0,0-.164-.47.781.781,0,0,0-.5-.135h-.383v1.2Z" transform="translate(-2409.67 -728.565)" fill="#8a8a8a"/><path d="M2622.77,768.3c-.06,0-.09-.033-.09-.1v-4.363c0-.065.03-.1.09-.1h1.538a2.029,2.029,0,0,1,1.357.369,1.382,1.382,0,0,1,.417,1.093,1.572,1.572,0,0,1-.184.79.98.98,0,0,1-.6.449v.014l1.03,1.726a.088.088,0,0,1,.011.083.075.075,0,0,1-.073.035h-1.036a.128.128,0,0,1-.112-.063l-.9-1.614h-.432v1.58c0,.065-.028.1-.083.1h-.932Zm1.016-2.554h.522a.816.816,0,0,0,.5-.125.6.6,0,0,0,.014-.807.767.767,0,0,0-.491-.125h-.543v1.058Z" transform="translate(-2501.897 -728.565)" fill="#8a8a8a"/><path d="M2726.26,768.3c-.06,0-.091-.033-.091-.1v-4.363c0-.065.03-.1.091-.1h.933c.056,0,.083.032.083.1V768.2c0,.065-.028.1-.083.1Z" transform="translate(-2600.621 -728.565)" fill="#8a8a8a"/><path d="M2774.458,768.3a.1.1,0,0,1-.1-.076l-1.35-4.37c-.018-.074,0-.112.07-.112h1.016a.1.1,0,0,1,.112.076l.647,2.512q.063.251.115.5t.094.511h.021q.041-.265.1-.518t.118-.512l.64-2.491a.1.1,0,0,1,.1-.083h1.009c.074,0,.1.037.083.112l-1.357,4.37a.1.1,0,0,1-.1.076Z" transform="translate(-2645.291 -728.565)" fill="#8a8a8a"/><path d="M2869.521,768.3q-.1,0-.076-.111l1.378-4.37a.108.108,0,0,1,.112-.076h1.2a.108.108,0,0,1,.112.076l1.378,4.37c.023.074,0,.111-.069.111h-1.023a.093.093,0,0,1-.1-.076l-.675-2.547q-.063-.251-.115-.494t-.108-.487h-.014c-.033.162-.067.325-.1.487s-.076.327-.118.494l-.661,2.54a.1.1,0,0,1-.1.083Zm1.148-.828.167-.877h1.357l.174.877Z" transform="translate(-2737.293 -728.565)" fill="#8a8a8a"/><path d="M2968.66,768.3c-.056,0-.083-.033-.083-.1v-3.493H2967.5c-.065,0-.1-.03-.1-.09v-.779a.087.087,0,0,1,.1-.1h3.27c.061,0,.091.032.091.1v.779a.08.08,0,0,1-.091.09h-1.078V768.2a.086.086,0,0,1-.1.1Z" transform="translate(-2830.74 -728.565)" fill="#8a8a8a"/><path d="M3067.051,768.3c-.06,0-.09-.033-.09-.1v-4.363c0-.065.03-.1.09-.1h2.783c.056,0,.084.032.084.1v.779c0,.06-.028.09-.084.09h-1.767v.835h1.607c.056,0,.083.033.083.1v.724c0,.065-.028.1-.083.1h-1.607v.87h1.767c.056,0,.084.03.084.09v.779c0,.065-.028.1-.084.1Z" transform="translate(-2925.715 -728.565)" fill="#8a8a8a"/><path d="M3214.87,768.3c-.06,0-.09-.033-.09-.1v-4.363c0-.065.03-.1.09-.1h.947c.046,0,.069.032.069.1v3.493h1.649a.08.08,0,0,1,.09.09v.779c0,.065-.031.1-.09.1Z" transform="translate(-3066.727 -728.565)" fill="#8a8a8a"/><path d="M3300.67,768.3c-.06,0-.09-.033-.09-.1v-4.363c0-.065.03-.1.09-.1h.933c.056,0,.083.032.083.1V768.2c0,.065-.028.1-.083.1Z" transform="translate(-3148.575 -728.565)" fill="#8a8a8a"/><path d="M3353.087,768.3a.086.086,0,0,1-.1-.1l.083-4.363a.086.086,0,0,1,.1-.1h1.065a.116.116,0,0,1,.111.07l1.023,2.276,1.03-2.276a.1.1,0,0,1,.1-.07h1.072c.056,0,.083.032.083.1l.09,4.363c0,.065-.03.1-.09.1h-.9a.087.087,0,0,1-.1-.1l-.027-1.573q-.007-.313.007-.633c.009-.213.016-.415.021-.606h-.014q-.111.271-.24.564t-.269.557l-.633,1.294a.116.116,0,0,1-.112.07h-.042a.111.111,0,0,1-.1-.07l-.64-1.3q-.132-.265-.258-.553c-.083-.193-.163-.38-.236-.56h-.028c.01.19.019.392.028.606s.011.422.007.626l-.035,1.58c0,.065-.03.1-.09.1h-.905Z" transform="translate(-3198.572 -728.565)" fill="#8a8a8a"/><path d="M3484.82,768.3c-.06,0-.09-.033-.09-.1v-4.363c0-.065.03-.1.09-.1h.933c.056,0,.083.032.083.1V768.2c0,.065-.029.1-.083.1Z" transform="translate(-3324.244 -728.565)" fill="#8a8a8a"/><path d="M3534.62,768.3c-.056,0-.083-.033-.083-.1v-3.493h-1.078c-.065,0-.1-.03-.1-.09v-.779a.087.087,0,0,1,.1-.1h3.27c.06,0,.091.032.091.1v.779a.08.08,0,0,1-.091.09h-1.079V768.2a.086.086,0,0,1-.1.1Z" transform="translate(-3370.634 -728.565)" fill="#8a8a8a"/><path d="M3633.01,768.3c-.06,0-.09-.033-.09-.1v-4.363c0-.065.03-.1.09-.1h2.784c.056,0,.083.032.083.1v.779c0,.06-.028.09-.083.09h-1.768v.835h1.608c.056,0,.083.033.083.1v.724c0,.065-.028.1-.083.1h-1.608v.87h1.768c.056,0,.083.03.083.09v.779c0,.065-.028.1-.083.1Z" transform="translate(-3465.609 -728.565)" fill="#8a8a8a"/><path d="M3725.76,768.3c-.061,0-.09-.033-.09-.1v-4.363c0-.065.03-.1.09-.1h1.559a2.154,2.154,0,0,1,1.563.5,2,2,0,0,1,.512,1.5v.508a1.818,1.818,0,0,1-2.068,2.053h-1.566Zm1.016-.96h.488a.954.954,0,0,0,.772-.289,1.254,1.254,0,0,0,.244-.832v-.445a1.156,1.156,0,0,0-.247-.8.993.993,0,0,0-.776-.275h-.481v2.637Z" transform="translate(-3554.087 -728.565)" fill="#8a8a8a"/></g></svg>