<svg xmlns="http://www.w3.org/2000/svg" width="134.01" height="29.525" viewBox="0 0 134.01 29.525"><path d="M994.42,673.27h102.467v8.39H994.42Z" transform="translate(-963.507 -652.338)" fill="#00769f" fill-rule="evenodd"/><path d="M1064.61,37.576c.023.718.07,1.481.162,2.292.023.208.046.347.046.395a.419.419,0,0,1-.116.324.509.509,0,0,1-.37.092.612.612,0,0,1-.4-.116,1.46,1.46,0,0,1-.208-.463c-.162-.579-.324-.926-.556-1.065a2.678,2.678,0,0,0-1.181-.185h-2.849v6.436h3.242a2.351,2.351,0,0,0,1.088-.162.877.877,0,0,0,.37-.6l.092-.44c.046-.186.093-.3.162-.348a.479.479,0,0,1,.347-.092c.23,0,.371.047.44.139a1.132,1.132,0,0,1,.092.579c0,.07,0,.255-.023.532,0,.278-.023.509-.023.718a8.652,8.652,0,0,0,.069,1c.023.395.047.648.047.764a.668.668,0,0,1-.116.44.5.5,0,0,1-.417.139.513.513,0,0,1-.371-.092.611.611,0,0,1-.162-.348l-.092-.395a.637.637,0,0,0-.3-.463,2.045,2.045,0,0,0-.811-.116h-3.635V50.89a2.522,2.522,0,0,0,.44,1.668,1.81,1.81,0,0,0,1.436.509h1.343a5.16,5.16,0,0,0,2.106-.278,1.79,1.79,0,0,0,.81-1.065c.024-.07.047-.139.07-.23a.743.743,0,0,1,.765-.579.855.855,0,0,1,.395.07.284.284,0,0,1,.116.23,6.038,6.038,0,0,1-.3,1.274,14.668,14.668,0,0,0-.395,1.829c-.718-.023-1.69-.07-2.941-.116-2.038-.07-3.4-.092-4.122-.092a20.174,20.174,0,0,0-2.271.139c-.81.092-1.251.139-1.366.139a.414.414,0,0,1-.486-.463.613.613,0,0,1,.093-.417c.046-.07.162-.092.347-.116l.787-.116a1.152,1.152,0,0,0,.787-.44,2.342,2.342,0,0,0,.23-1.227V39.96a1.769,1.769,0,0,0-.162-.949,1,1,0,0,0-.648-.278l-.695-.116c-.208-.046-.348-.092-.395-.162-.07-.046-.093-.185-.093-.395s.023-.348.093-.395c.046-.07.162-.092.348-.116.023,0,.116.023.23.046a19.687,19.687,0,0,0,2.64.162h1.667c.671,0,1.389-.023,2.153-.047s1.6-.069,2.478-.139Zm7.5,1.02-.44.116a.485.485,0,0,0-.324.162.392.392,0,0,0-.092.3.291.291,0,0,0,.023.139.85.85,0,0,0,.07.255l4.886,11.716,4.469-11.069a1.6,1.6,0,0,0,.139-.395,2.15,2.15,0,0,0,.046-.324.782.782,0,0,0-.185-.532,1.037,1.037,0,0,0-.579-.255l-.6-.092a.694.694,0,0,1-.4-.185.654.654,0,0,1-.092-.371.5.5,0,0,1,.115-.371.544.544,0,0,1,.371-.116,6.236,6.236,0,0,1,.926.139,4.887,4.887,0,0,0,1.158.162,3.945,3.945,0,0,0,1.042-.162,5.324,5.324,0,0,1,.9-.139.653.653,0,0,1,.348.069.51.51,0,0,1,.093.371v.092a.4.4,0,0,1-.278.44,1.551,1.551,0,0,0-.162.046l-.185.07a1.783,1.783,0,0,0-.949,1.158l-.023.069-5.951,14.079a.823.823,0,0,1-.278.417.569.569,0,0,1-.348.116c-.23,0-.4-.139-.509-.417h0L1069.1,39.845a3.121,3.121,0,0,0-.463-.811,1.062,1.062,0,0,0-.532-.347l-.255-.07a1.4,1.4,0,0,1-.417-.139.782.782,0,0,1-.093-.417.722.722,0,0,1,.07-.417c.023-.047.115-.069.254-.069a6.281,6.281,0,0,1,1.158.185,6.628,6.628,0,0,0,1.2.185,5.14,5.14,0,0,0,1.135-.185,5.312,5.312,0,0,1,1.02-.185c.162,0,.278.046.3.092a.678.678,0,0,1,.07.395.638.638,0,0,1-.07.371.8.8,0,0,1-.371.162Zm22.971-1.02c.023.718.07,1.481.162,2.292.023.208.047.347.047.395a.42.42,0,0,1-.116.324.509.509,0,0,1-.37.092.612.612,0,0,1-.395-.116,1.463,1.463,0,0,1-.208-.463c-.162-.579-.324-.926-.556-1.065a2.678,2.678,0,0,0-1.181-.185h-2.848v6.436h3.242a2.351,2.351,0,0,0,1.088-.162.878.878,0,0,0,.37-.6l.092-.44c.047-.186.093-.3.162-.348a.479.479,0,0,1,.347-.092c.23,0,.371.047.44.139a1.134,1.134,0,0,1,.093.579c0,.07,0,.255-.023.532,0,.278-.023.509-.023.718a8.68,8.68,0,0,0,.07,1c.023.395.047.648.047.764a.668.668,0,0,1-.116.44.5.5,0,0,1-.417.139.513.513,0,0,1-.371-.092.611.611,0,0,1-.162-.348l-.093-.395a.636.636,0,0,0-.3-.463,2.044,2.044,0,0,0-.811-.116h-3.635V50.89a2.522,2.522,0,0,0,.44,1.668,1.81,1.81,0,0,0,1.436.509h1.343a5.158,5.158,0,0,0,2.106-.278,1.79,1.79,0,0,0,.811-1.065c.023-.07.046-.139.07-.23a.743.743,0,0,1,.765-.579.856.856,0,0,1,.395.07.285.285,0,0,1,.116.23,6.046,6.046,0,0,1-.3,1.274,14.669,14.669,0,0,0-.395,1.829c-.718-.023-1.69-.07-2.941-.116-2.037-.07-3.4-.092-4.122-.092a20.173,20.173,0,0,0-2.271.139c-.811.092-1.25.139-1.366.139a.414.414,0,0,1-.486-.463.614.614,0,0,1,.092-.417c.047-.07.162-.092.347-.116l.787-.116a1.152,1.152,0,0,0,.787-.44,2.341,2.341,0,0,0,.23-1.227V39.96a1.77,1.77,0,0,0-.162-.949,1,1,0,0,0-.649-.278l-.695-.116c-.208-.046-.347-.092-.395-.162-.07-.046-.093-.185-.093-.395s.023-.348.093-.395c.046-.07.162-.092.347-.116.023,0,.116.023.23.046a19.686,19.686,0,0,0,2.64.162h1.667c.671,0,1.389-.023,2.153-.047s1.6-.069,2.478-.139Zm12.18,8.452,4.168,5.488a16.3,16.3,0,0,0,1.644,1.945,4,4,0,0,0,1.181.811v.348a2.286,2.286,0,0,1-.556.07,2.828,2.828,0,0,1-.417.023,3.7,3.7,0,0,1-2.106-.648,8.428,8.428,0,0,1-2.038-2.038l-3.89-5.187h-1.968c-.116,0-.23.023-.37.023v4.631a2.468,2.468,0,0,0,.208,1.227,1.172,1.172,0,0,0,.787.463l.533.092a.822.822,0,0,1,.395.139.791.791,0,0,1,.07.395c0,.255-.023.395-.093.463-.046.07-.162.092-.347.092a7.2,7.2,0,0,1-1.158-.209,5.3,5.3,0,0,0-2.941,0,6.917,6.917,0,0,1-1.181.209.4.4,0,0,1-.3-.092.578.578,0,0,1-.093-.395.887.887,0,0,1,.069-.44.793.793,0,0,1,.4-.162l.51-.092a1.116,1.116,0,0,0,.811-.486,2.541,2.541,0,0,0,.208-1.2V40.4a2.464,2.464,0,0,0-.209-1.227,1.223,1.223,0,0,0-.787-.44l-.538-.118h-.023a.542.542,0,0,1-.44-.556.652.652,0,0,1,.093-.371.547.547,0,0,1,.371-.092,9.135,9.135,0,0,1,.949.116,14.025,14.025,0,0,0,1.646.116c.44,0,1.02-.023,1.714-.07s1.181-.07,1.436-.07a6.051,6.051,0,0,1,3.751.973A3.484,3.484,0,0,1,1110,41.6a4.713,4.713,0,0,1-.694,2.478,5.892,5.892,0,0,1-2.038,1.945Zm-4.353-.278a3.558,3.558,0,0,0,.509.023,5.292,5.292,0,0,0,.648.023,3.836,3.836,0,0,0,2.778-.926,3.559,3.559,0,0,0,.949-2.663,3.48,3.48,0,0,0-.856-2.524,3.221,3.221,0,0,0-2.432-.88c-.208,0-.463,0-.741.023-.255.023-.556.07-.855.116V45.75Zm21.72-8.174c.023.718.07,1.481.162,2.292.023.208.047.347.047.395a.421.421,0,0,1-.116.324.51.51,0,0,1-.371.092.612.612,0,0,1-.395-.116,1.46,1.46,0,0,1-.208-.463c-.162-.579-.324-.926-.556-1.065a2.678,2.678,0,0,0-1.181-.185h-2.848v6.436h3.242a2.351,2.351,0,0,0,1.088-.162.878.878,0,0,0,.37-.6l.093-.44c.046-.186.093-.3.162-.348a.479.479,0,0,1,.347-.092c.23,0,.371.047.44.139a1.134,1.134,0,0,1,.093.579c0,.07,0,.255-.023.532,0,.278-.023.509-.023.718a8.68,8.68,0,0,0,.07,1c.023.395.047.648.047.764a.669.669,0,0,1-.116.44.5.5,0,0,1-.417.139.513.513,0,0,1-.37-.092.61.61,0,0,1-.162-.348l-.093-.395a.635.635,0,0,0-.3-.463,2.045,2.045,0,0,0-.811-.116h-3.635V50.89a2.522,2.522,0,0,0,.44,1.668,1.81,1.81,0,0,0,1.436.509h1.343a5.158,5.158,0,0,0,2.106-.278,1.791,1.791,0,0,0,.811-1.065c.023-.07.046-.139.07-.23a.742.742,0,0,1,.764-.579.856.856,0,0,1,.395.07.284.284,0,0,1,.116.23,6.046,6.046,0,0,1-.3,1.274,14.668,14.668,0,0,0-.395,1.829c-.718-.023-1.69-.07-2.941-.116-2.037-.07-3.4-.092-4.122-.092a20.173,20.173,0,0,0-2.271.139c-.811.092-1.251.139-1.366.139a.414.414,0,0,1-.487-.463.614.614,0,0,1,.093-.417c.046-.07.162-.092.347-.116l.788-.116a1.152,1.152,0,0,0,.787-.44,2.341,2.341,0,0,0,.23-1.227V39.96a1.77,1.77,0,0,0-.162-.949,1,1,0,0,0-.648-.278l-.69-.115c-.208-.046-.348-.092-.4-.162-.07-.046-.092-.185-.092-.395s.023-.348.092-.395c.046-.07.162-.092.348-.116.023,0,.116.023.23.046a19.687,19.687,0,0,0,2.64.162H1120c.672,0,1.39-.023,2.153-.047s1.6-.069,2.478-.139Zm4.307,16.534-.162-2.964v-.208a.481.481,0,0,1,.093-.348.376.376,0,0,1,.324-.116c.23,0,.463.23.648.695l.093.185a3.958,3.958,0,0,0,1.181,1.668,3.234,3.234,0,0,0,1.714.395,3.9,3.9,0,0,0,2.617-.834,2.793,2.793,0,0,0,1-2.223,3.229,3.229,0,0,0-.255-1.343,2.86,2.86,0,0,0-.833-1.042,10.109,10.109,0,0,0-1.529-.926c-.764-.395-1.3-.695-1.644-.9a7.71,7.71,0,0,1-2.339-1.922,3.792,3.792,0,0,1-.671-2.246,4.163,4.163,0,0,1,1.366-3.242,5.306,5.306,0,0,1,3.705-1.227c.463,0,1.088.046,1.9.116.811.092,1.389.139,1.714.139l.047,2.385a.885.885,0,0,0,.023.185v.23a.437.437,0,0,1-.139.348.406.406,0,0,1-.347.139.588.588,0,0,1-.37-.116.637.637,0,0,1-.208-.348l-.185-.648a1.583,1.583,0,0,0-.741-1.042,3.305,3.305,0,0,0-1.621-.3,3.022,3.022,0,0,0-2.177.741,2.912,2.912,0,0,0-.764,2.154,2.618,2.618,0,0,0,.486,1.6,6.755,6.755,0,0,0,1.968,1.459l.186.092c2.987,1.621,4.469,3.288,4.469,5a4.494,4.494,0,0,1-1.528,3.521,5.734,5.734,0,0,1-3.982,1.366,19.766,19.766,0,0,1-2.13-.185c-.949-.116-1.575-.209-1.9-.23Zm20.308-15.075V51.446a2.466,2.466,0,0,0,.208,1.227,1.174,1.174,0,0,0,.787.463l.718.139a.631.631,0,0,1,.37.139c.07.07.092.185.092.395a.724.724,0,0,1-.092.463.48.48,0,0,1-.347.092,7.555,7.555,0,0,1-1.227-.209,7.571,7.571,0,0,0-1.621-.208,8.161,8.161,0,0,0-1.621.208,6.512,6.512,0,0,1-1.227.23.546.546,0,0,1-.371-.092.784.784,0,0,1-.092-.417.822.822,0,0,1,.07-.44c.046-.07.162-.116.37-.162l.717-.138a1.125,1.125,0,0,0,.811-.463,2.591,2.591,0,0,0,.209-1.227V39.035h-4.353a2.4,2.4,0,0,0-.834.092.492.492,0,0,0-.324.278l-.116.255a.547.547,0,0,1-.255.3.864.864,0,0,1-.463.092.559.559,0,0,1-.348-.092.255.255,0,0,1-.116-.23.086.086,0,0,1,.023-.07.445.445,0,0,1,.023-.162l.44-1.76a.776.776,0,0,1,.185-.395.562.562,0,0,1,.417-.116,1.044,1.044,0,0,1,.6.23,1.481,1.481,0,0,0,.926.23h11.255a1.376,1.376,0,0,0,.88-.255.823.823,0,0,1,.533-.23,1.38,1.38,0,0,1,.395.046.226.226,0,0,1,.093.208.793.793,0,0,1-.023.208l-.395,2.015v.047a.459.459,0,0,1-.463.44c-.3,0-.486-.116-.532-.347V39.8l-.07-.417a.348.348,0,0,0-.255-.278,3.576,3.576,0,0,0-.9-.07h-4.075Z" transform="translate(-1021.956 -36.046)" fill="#373435"/><path d="M1092.076,759.125v1.108a.511.511,0,0,0,.114.386.562.562,0,0,0,.392.1h.209v.12h-1.755v-.12h.089a.543.543,0,0,0,.342-.076.382.382,0,0,0,.082-.292v-3c0-.222-.1-.336-.3-.336h-.317V756.9l1.584-.057a2.023,2.023,0,0,1,1.218.3.954.954,0,0,1,.411.817,1.07,1.07,0,0,1-.411.881,1.749,1.749,0,0,1-1.122.329,2.869,2.869,0,0,1-.538-.051Zm0-2.135v2.015a1.705,1.705,0,0,0,.342.051,1.127,1.127,0,0,0,.823-.311,1.08,1.08,0,0,0,.311-.8c0-.653-.349-.982-1.04-.982A2.508,2.508,0,0,0,1092.076,756.99Zm3.554,2.18v1.071a.54.54,0,0,0,.108.374.559.559,0,0,0,.4.108h.146v.12h-1.793v-.12h.108a.535.535,0,0,0,.405-.114.634.634,0,0,0,.1-.412v-2.668a.571.571,0,0,0-.1-.4.505.505,0,0,0-.373-.108h-.14V756.9c.044,0,.247-.013.615-.033s.691-.026.982-.026a2.275,2.275,0,0,1,1.26.3.951.951,0,0,1,.437.823,1.011,1.011,0,0,1-.222.633,1.221,1.221,0,0,1-.621.393,8.785,8.785,0,0,1,.722.658l.5.507a1.972,1.972,0,0,0,1.255.64v.114c-.095.006-.184.006-.272.006a2.053,2.053,0,0,1-.938-.165,3.433,3.433,0,0,1-.754-.6l-.418-.424a4.44,4.44,0,0,0-.653-.564l-.43.013c-.089,0-.2-.006-.323-.013Zm0-2.192v2.066a2.52,2.52,0,0,0,.393.019c.779,0,1.166-.355,1.166-1.058s-.412-1.039-1.242-1.039c-.145,0-.247.007-.317.013Zm6.766,1.236v1.2h-.12a.69.69,0,0,0-.127-.412.424.424,0,0,0-.3-.089h-1.071v1.349a.453.453,0,0,0,.064.267.349.349,0,0,0,.278.082h.976a.613.613,0,0,0,.482-.165,1.441,1.441,0,0,0,.253-.551h.115l-.1.944h-3.364v-.12h.177a.928.928,0,0,0,.463-.089c.089-.057.132-.2.132-.431v-2.675a.532.532,0,0,0-.115-.412.625.625,0,0,0-.393-.1h-.14V756.9h3.041l.051.881h-.12a1.273,1.273,0,0,0-.146-.482.339.339,0,0,0-.322-.171h-1.33v1.559h1.134a.291.291,0,0,0,.273-.12.765.765,0,0,0,.095-.355h.121Zm1.1,1.667h.12a1.174,1.174,0,0,0,.4.653,1.052,1.052,0,0,0,.671.241.987.987,0,0,0,.621-.2.668.668,0,0,0,.253-.545.709.709,0,0,0-.159-.424,3.294,3.294,0,0,0-.823-.634,3.4,3.4,0,0,1-.862-.691.966.966,0,0,1-.19-.552.8.8,0,0,1,.323-.653,1.218,1.218,0,0,1,.8-.266,1.755,1.755,0,0,1,.552.076,1.015,1.015,0,0,0,.31.082.121.121,0,0,0,.115-.064h.1l.108.8h-.108a1.214,1.214,0,0,0-.418-.545,1.006,1.006,0,0,0-.6-.2.79.79,0,0,0-.513.164.542.542,0,0,0-.2.425.633.633,0,0,0,.159.405,3.254,3.254,0,0,0,.817.621,3.025,3.025,0,0,1,.862.7.987.987,0,0,1,.2.577.966.966,0,0,1-.367.773,1.375,1.375,0,0,1-.925.311,2.031,2.031,0,0,1-.538-.082,2.483,2.483,0,0,0-.342-.089.154.154,0,0,0-.127.07h-.108l-.132-.962Zm3.1,0h.12a1.173,1.173,0,0,0,.4.653,1.052,1.052,0,0,0,.672.241.988.988,0,0,0,.621-.2.668.668,0,0,0,.253-.545.708.708,0,0,0-.158-.424,3.3,3.3,0,0,0-.823-.634,3.4,3.4,0,0,1-.862-.691.966.966,0,0,1-.19-.552.8.8,0,0,1,.323-.653,1.219,1.219,0,0,1,.8-.266,1.751,1.751,0,0,1,.552.076,1.015,1.015,0,0,0,.31.082.121.121,0,0,0,.114-.064h.1l.108.8h-.108a1.212,1.212,0,0,0-.418-.545,1,1,0,0,0-.6-.2.789.789,0,0,0-.513.164.542.542,0,0,0-.2.425.633.633,0,0,0,.159.405,3.258,3.258,0,0,0,.817.621,3.03,3.03,0,0,1,.862.7.988.988,0,0,1,.2.577.966.966,0,0,1-.367.773,1.375,1.375,0,0,1-.925.311,2.032,2.032,0,0,1-.538-.082,2.48,2.48,0,0,0-.342-.089.154.154,0,0,0-.127.07h-.108l-.132-.962Zm6.286-2.978h1.481v.12a.6.6,0,0,0-.437.133.587.587,0,0,0-.14.45v1.711a1.545,1.545,0,0,1-.488,1.172,1.961,1.961,0,0,1-1.388.456,1.936,1.936,0,0,1-1.344-.437,1.488,1.488,0,0,1-.488-1.159V757.5c0-.209-.038-.342-.12-.4a.809.809,0,0,0-.418-.076V756.9h1.622v.12h-.057a.531.531,0,0,0-.393.108.484.484,0,0,0-.108.355v1.761a1.329,1.329,0,0,0,.38,1.014,1.8,1.8,0,0,0,2.135.006,1.33,1.33,0,0,0,.38-1.026v-1.476c0-.355-.051-.564-.146-.634a.934.934,0,0,0-.475-.108v-.12Zm2.813,2.268v1.071a.54.54,0,0,0,.108.374.557.557,0,0,0,.4.108h.146v.121h-1.793v-.121h.108a.534.534,0,0,0,.406-.114.633.633,0,0,0,.1-.412v-2.666a.572.572,0,0,0-.1-.4.505.505,0,0,0-.374-.108h-.139V756.9c.044,0,.247-.013.614-.033s.691-.026.982-.026a2.274,2.274,0,0,1,1.26.3.95.95,0,0,1,.437.823,1.012,1.012,0,0,1-.222.633,1.221,1.221,0,0,1-.621.393,8.8,8.8,0,0,1,.722.658l.5.507a1.972,1.972,0,0,0,1.255.64v.114c-.095.006-.184.006-.272.006a2.053,2.053,0,0,1-.937-.164,3.436,3.436,0,0,1-.754-.6l-.418-.424a4.444,4.444,0,0,0-.653-.564l-.43.013c-.089,0-.2-.006-.323-.013Zm0-2.192v2.066a2.536,2.536,0,0,0,.393.019c.779,0,1.166-.355,1.166-1.058s-.412-1.039-1.242-1.039c-.145,0-.247.007-.317.012Zm6.766,1.236v1.2h-.12a.69.69,0,0,0-.126-.412.425.425,0,0,0-.3-.089h-1.071v1.349a.454.454,0,0,0,.063.267.35.35,0,0,0,.279.082h.975a.614.614,0,0,0,.482-.165,1.447,1.447,0,0,0,.253-.551h.114l-.1.944h-3.364v-.12h.177a.93.93,0,0,0,.463-.089c.088-.057.132-.2.132-.431V757.53a.532.532,0,0,0-.115-.412.628.628,0,0,0-.393-.1h-.14V756.9h3.041l.051.881h-.12a1.27,1.27,0,0,0-.146-.482.339.339,0,0,0-.323-.171h-1.33v1.559h1.134a.291.291,0,0,0,.272-.12.768.768,0,0,0,.095-.355h.12Zm6-.019h1.122v.115a1.133,1.133,0,0,0-.463.057,1.539,1.539,0,0,0-.292.386,8.033,8.033,0,0,1-.735,1.046c.057.089.152.241.272.45a1.607,1.607,0,0,0,.279.393.355.355,0,0,0,.209.076.93.93,0,0,0,.494-.216l.057.1a1.278,1.278,0,0,1-.779.329.559.559,0,0,1-.488-.2,4.646,4.646,0,0,1-.362-.589,2.056,2.056,0,0,1-1.445.786.991.991,0,0,1-.729-.3,1.028,1.028,0,0,1-.3-.741.93.93,0,0,1,.267-.678,2.44,2.44,0,0,1,.843-.5,1.126,1.126,0,0,1-.45-.823.677.677,0,0,1,.234-.532.945.945,0,0,1,.627-.2.917.917,0,0,1,.576.171.536.536,0,0,1,.228.444c0,.3-.24.57-.716.8a4.048,4.048,0,0,1,1.1,1.121c.209-.272.4-.526.558-.779a1.335,1.335,0,0,0,.234-.475c0-.082-.114-.127-.349-.127v-.115Zm-1.628.3a.747.747,0,0,0,.405-.685.567.567,0,0,0-.127-.386.428.428,0,0,0-.336-.146.392.392,0,0,0-.3.12.479.479,0,0,0-.114.336.991.991,0,0,0,.475.76Zm-.329.291a1.265,1.265,0,0,0-.671,1.026.833.833,0,0,0,.209.583.755.755,0,0,0,.557.222,1.259,1.259,0,0,0,.577-.159,1.732,1.732,0,0,0,.532-.418,3.978,3.978,0,0,0-1.2-1.255Z" transform="translate(-1057.021 -733.278)" fill="#fefefe"/><path d="M2361.2,763.891h-.317l-1.375-3.428a1.151,1.151,0,0,0-.228-.405.664.664,0,0,0-.393-.089v-.12h1.742v.12c-.424.013-.64.1-.64.273a.49.49,0,0,0,.037.164l1.141,2.838,1-2.617a1.17,1.17,0,0,0,.108-.393.208.208,0,0,0-.131-.209,1.324,1.324,0,0,0-.457-.057v-.12h1.47v.12a.594.594,0,0,0-.392.12,1.042,1.042,0,0,0-.26.425Z" transform="translate(-2285.553 -736.225)" fill="#fefefe"/><path d="M2481.341,759.089h-1.305l-.367.995a2.386,2.386,0,0,0-.127.4c0,.159.171.234.513.234h.1v.12h-1.463v-.119a.633.633,0,0,0,.424-.108,1.7,1.7,0,0,0,.26-.519l1.159-3.149-.063-.14h.551l1.324,3.516a.712.712,0,0,0,.2.311.618.618,0,0,0,.38.089v.12h-1.742v-.12h.165a1.135,1.135,0,0,0,.4-.044.179.179,0,0,0,.1-.172,1.08,1.08,0,0,0-.069-.266l-.437-1.147Zm-.1-.279-.557-1.476-.545,1.476Z" transform="translate(-2401.639 -733.273)" fill="#fefefe"/><path d="M2622.146,757.916h-.12a1.418,1.418,0,0,0-.558-.724,1.549,1.549,0,0,0-.888-.253,1.62,1.62,0,0,0-1.242.507,1.851,1.851,0,0,0-.475,1.316,2.026,2.026,0,0,0,.527,1.419,1.64,1.64,0,0,0,1.261.576,1.672,1.672,0,0,0,1.547-.938h.121a4.064,4.064,0,0,1-.405.925.9.9,0,0,0-.127-.006,2.959,2.959,0,0,0-.532.089,3.568,3.568,0,0,1-.773.089,2.227,2.227,0,0,1-1.584-.577,1.869,1.869,0,0,1-.627-1.445,1.97,1.97,0,0,1,.646-1.514,2.261,2.261,0,0,1,1.628-.6,2.821,2.821,0,0,1,.9.127,2.653,2.653,0,0,0,.438.126.137.137,0,0,0,.114-.038h.095l.057.919Zm3.871-1.039h1.481V757a.6.6,0,0,0-.437.133.589.589,0,0,0-.139.45v1.711a1.545,1.545,0,0,1-.488,1.172,1.96,1.96,0,0,1-1.388.456,1.936,1.936,0,0,1-1.343-.437,1.487,1.487,0,0,1-.488-1.159v-1.85c0-.209-.038-.342-.12-.4a.811.811,0,0,0-.418-.076v-.12h1.622V757h-.057a.531.531,0,0,0-.393.108.484.484,0,0,0-.108.355v1.759a1.33,1.33,0,0,0,.38,1.014,1.8,1.8,0,0,0,2.135.006,1.329,1.329,0,0,0,.38-1.026v-1.475c0-.355-.051-.564-.145-.634a.939.939,0,0,0-.476-.108v-.12Zm5.018,0h1.483V757a.6.6,0,0,0-.437.133.587.587,0,0,0-.139.45v1.711a1.544,1.544,0,0,1-.488,1.172,1.959,1.959,0,0,1-1.388.456,1.937,1.937,0,0,1-1.344-.437,1.49,1.49,0,0,1-.488-1.159v-1.85c0-.209-.038-.342-.12-.4a.811.811,0,0,0-.418-.076v-.12h1.622V757h-.057a.531.531,0,0,0-.393.108.485.485,0,0,0-.107.355v1.759a1.329,1.329,0,0,0,.38,1.014,1.8,1.8,0,0,0,2.135.006,1.328,1.328,0,0,0,.38-1.026v-1.475c0-.355-.051-.564-.145-.634a.937.937,0,0,0-.475-.108v-.12Zm4.4,3.941h-.152l-1.622-3.383-.171,2.857c-.019.26.152.393.507.405v.12h-1.316v-.12c.229,0,.374-.038.431-.114a1.182,1.182,0,0,0,.12-.564l.146-2.471c.007-.089.013-.152.013-.2,0-.158-.033-.253-.1-.291a.56.56,0,0,0-.292-.069v-.114h.963l1.527,3.2,1.514-3.2h.938v.114a.888.888,0,0,0-.368.069.215.215,0,0,0-.051.177l.2,2.876a.994.994,0,0,0,.108.5c.057.057.2.082.444.082v.12h-1.629v-.12c.393,0,.583-.139.564-.418l-.184-2.845-1.59,3.383Zm5.012-.963h.12a1.172,1.172,0,0,0,.4.653,1.052,1.052,0,0,0,.672.241.988.988,0,0,0,.621-.2.67.67,0,0,0,.253-.545.707.707,0,0,0-.159-.425,3.289,3.289,0,0,0-.823-.633,3.4,3.4,0,0,1-.862-.691.969.969,0,0,1-.19-.552.8.8,0,0,1,.323-.653,1.218,1.218,0,0,1,.8-.266,1.76,1.76,0,0,1,.552.076,1.012,1.012,0,0,0,.31.082.121.121,0,0,0,.114-.064h.1l.108.8h-.108a1.213,1.213,0,0,0-.418-.545,1.006,1.006,0,0,0-.6-.2.789.789,0,0,0-.513.165.542.542,0,0,0-.2.424.631.631,0,0,0,.159.405,3.251,3.251,0,0,0,.817.621,3.032,3.032,0,0,1,.861.7.986.986,0,0,1,.2.577.965.965,0,0,1-.367.773,1.375,1.375,0,0,1-.925.311,2.031,2.031,0,0,1-.539-.082,2.508,2.508,0,0,0-.342-.089.154.154,0,0,0-.126.07h-.108l-.132-.963Zm5.176-.881.9-1.52a.567.567,0,0,0,.095-.266c0-.127-.14-.19-.425-.19v-.12h1.432V757a1.069,1.069,0,0,0-.444.12,1.031,1.031,0,0,0-.348.38l-1.053,1.78v.951a.481.481,0,0,0,.114.368.586.586,0,0,0,.393.1h.083v.12h-1.743v-.12h.12a.6.6,0,0,0,.393-.1.449.449,0,0,0,.114-.355v-.906l-1.128-1.748a1.671,1.671,0,0,0-.418-.488.862.862,0,0,0-.45-.1v-.12h1.685V757c-.3,0-.443.051-.443.159a.514.514,0,0,0,.108.253l1.014,1.565Zm2.414.881h.12a1.172,1.172,0,0,0,.4.653,1.053,1.053,0,0,0,.672.241.987.987,0,0,0,.621-.2.668.668,0,0,0,.253-.545.707.707,0,0,0-.158-.424,3.286,3.286,0,0,0-.823-.633,3.4,3.4,0,0,1-.861-.691.966.966,0,0,1-.19-.552.8.8,0,0,1,.323-.653,1.217,1.217,0,0,1,.8-.266,1.76,1.76,0,0,1,.552.076,1.008,1.008,0,0,0,.31.082.121.121,0,0,0,.114-.064h.1l.108.8h-.108a1.216,1.216,0,0,0-.418-.545,1,1,0,0,0-.6-.2.789.789,0,0,0-.513.165.542.542,0,0,0-.2.424.632.632,0,0,0,.159.405,3.26,3.26,0,0,0,.817.621,3.03,3.03,0,0,1,.862.7.986.986,0,0,1,.2.577.965.965,0,0,1-.367.773,1.374,1.374,0,0,1-.925.311,2.033,2.033,0,0,1-.538-.082,2.511,2.511,0,0,0-.343-.089.154.154,0,0,0-.126.07h-.108l-.132-.963Zm5.232-2.75v3.13a.507.507,0,0,0,.108.368.613.613,0,0,0,.393.095H2654v.12h-2v-.12h.234a.627.627,0,0,0,.393-.095.507.507,0,0,0,.108-.368v-3.13h-1.1a.315.315,0,0,0-.311.177,1.7,1.7,0,0,0-.152.526h-.115l.1-1.026h.121c.013.063.076.1.2.1h3.048c.12,0,.184-.033.2-.1h.12l.1,1.026h-.12a1.734,1.734,0,0,0-.145-.526.321.321,0,0,0-.311-.177Zm4.821,1.083v1.2h-.12a.691.691,0,0,0-.126-.412.425.425,0,0,0-.3-.089h-1.071v1.349a.456.456,0,0,0,.064.267.349.349,0,0,0,.279.082h.976a.614.614,0,0,0,.482-.165,1.438,1.438,0,0,0,.253-.551h.115l-.1.944h-3.364v-.12h.177a.929.929,0,0,0,.463-.089c.089-.057.132-.2.132-.431V757.5a.532.532,0,0,0-.114-.412.628.628,0,0,0-.393-.1h-.14v-.12h3.041l.051.881h-.12a1.276,1.276,0,0,0-.147-.482.338.338,0,0,0-.322-.171h-1.331v1.559h1.134a.291.291,0,0,0,.273-.12.771.771,0,0,0,.095-.355h.12Zm3.662,2.63h-.152l-1.623-3.383-.171,2.857c-.019.26.152.393.507.405v.12h-1.317v-.12c.228,0,.374-.038.431-.114a1.18,1.18,0,0,0,.12-.564l.146-2.471c.007-.089.013-.152.013-.2,0-.158-.033-.253-.1-.291a.56.56,0,0,0-.292-.069v-.114h.963l1.527,3.2,1.514-3.2h.938v.114a.888.888,0,0,0-.368.069.214.214,0,0,0-.051.177l.2,2.876a.994.994,0,0,0,.108.5c.057.057.2.082.443.082v.12h-1.629v-.12c.393,0,.583-.139.564-.418l-.184-2.845-1.59,3.383Zm3.25-.963h.12a1.169,1.169,0,0,0,.4.653,1.052,1.052,0,0,0,.671.241.987.987,0,0,0,.621-.2.668.668,0,0,0,.253-.545.708.708,0,0,0-.158-.425,3.3,3.3,0,0,0-.823-.633,3.4,3.4,0,0,1-.862-.691.967.967,0,0,1-.19-.552.8.8,0,0,1,.323-.653,1.22,1.22,0,0,1,.8-.266,1.756,1.756,0,0,1,.552.076,1.009,1.009,0,0,0,.31.082.122.122,0,0,0,.115-.063h.1l.108.8h-.108a1.213,1.213,0,0,0-.418-.545,1.006,1.006,0,0,0-.6-.2.791.791,0,0,0-.513.165.541.541,0,0,0-.2.425.633.633,0,0,0,.158.405,3.258,3.258,0,0,0,.817.621,3.032,3.032,0,0,1,.862.7.989.989,0,0,1,.2.577.966.966,0,0,1-.367.773,1.375,1.375,0,0,1-.925.311,2.034,2.034,0,0,1-.538-.082,2.516,2.516,0,0,0-.342-.088.154.154,0,0,0-.126.07h-.108l-.132-.963Z" transform="translate(-2536.877 -733.253)" fill="#fefefe"/><path d="M783.432,256.89h1.783v.428H785.2v7.322h.016v.428H778.94v-.428h4.492v-7.322H778.94v-.428Z" transform="translate(-754.726 -248.902)" fill="#373435" fill-rule="evenodd"/><path d="M0,150.49H7.915v.867H2.83V166.9H7.915v.867H0Z" transform="translate(0 -145.809)" fill="#373435" fill-rule="evenodd"/><path d="M207.962,719.23h5.258l-1.012,7.164H206.95Z" transform="translate(-200.517 -696.869)" fill="#373435" fill-rule="evenodd"/><path d="M620.827,719.23H615.57l1.012,7.164h5.258Z" transform="translate(-596.434 -696.869)" fill="#373435" fill-rule="evenodd"/><path d="M259.251,29.93c4.391,0,7.951,5.7,7.951,12.734S263.642,55.4,259.251,55.4,251.3,49.7,251.3,42.664,254.86,29.93,259.251,29.93Z" transform="translate(-243.488 -28.997)" fill="#c7eafb" fill-rule="evenodd"/><path d="M172.75,16.787c0-4.377.9-7.7,2.67-9.936,1.773-2.255,4.422-3.371,7.857-3.371,3.546,0,6.194,1.116,7.923,3.327,1.773,2.189,2.648,5.537,2.648,9.98,0,4.333-.941,7.639-2.714,9.892-1.773,2.233-4.421,3.349-7.857,3.349s-6.085-1.116-7.857-3.349c-1.773-2.254-2.67-5.559-2.67-9.892Zm3.786-.044c0,4.268.527,7.376,1.6,9.215a5.534,5.534,0,0,0,5.143,2.8c2.473,0,4.245-.919,5.253-2.692,1.007-1.795,1.532-5.1,1.532-9.784q0-5.975-1.575-8.733a5.683,5.683,0,0,0-5.209-2.8,5.576,5.576,0,0,0-5.143,2.8c-1.072,1.838-1.6,4.947-1.6,9.193Z" transform="translate(-167.38 -3.369)" fill="#d2d3d5" fill-rule="evenodd"/><path d="M168.175,13.41a22.433,22.433,0,0,1,.673-5.792,11.449,11.449,0,0,1,2.018-4.2A8.409,8.409,0,0,1,174.21.854a11.689,11.689,0,0,1,4.635-.86,12.1,12.1,0,0,1,4.709.847,8.183,8.183,0,0,1,3.337,2.534,11.028,11.028,0,0,1,2,4.165,23.046,23.046,0,0,1,.666,5.871,21.667,21.667,0,0,1-.685,5.711,11.837,11.837,0,0,1-2.049,4.236,8.438,8.438,0,0,1-3.349,2.547,11.743,11.743,0,0,1-4.63.856c-3.488,0-6.179-1.134-7.979-3.4a11.614,11.614,0,0,1-2.019-4.206,22.135,22.135,0,0,1-.672-5.742Zm.951-5.747a22.28,22.28,0,0,0-.666,5.748,21.957,21.957,0,0,0,.665,5.7,11.424,11.424,0,0,0,1.985,4.138c1.744,2.2,4.353,3.3,7.736,3.3a11.394,11.394,0,0,0,4.49-.827,8.173,8.173,0,0,0,3.245-2.468,11.641,11.641,0,0,0,2.014-4.169,21.513,21.513,0,0,0,.679-5.668,22.907,22.907,0,0,0-.658-5.828,10.838,10.838,0,0,0-1.967-4.1v0a7.924,7.924,0,0,0-3.229-2.454,11.751,11.751,0,0,0-4.575-.821,11.339,11.339,0,0,0-4.5.831,8.148,8.148,0,0,0-3.238,2.487,11.273,11.273,0,0,0-1.984,4.133Zm3.12,5.7a32.9,32.9,0,0,0,.4,5.525,11.064,11.064,0,0,0,1.187,3.646,5.328,5.328,0,0,0,2.057,2.055,6.088,6.088,0,0,0,2.956.682,6.718,6.718,0,0,0,3.091-.658,4.849,4.849,0,0,0,2.031-1.967,11.618,11.618,0,0,0,1.135-3.791,39.278,39.278,0,0,0,.385-5.95q0-5.952-1.563-8.688a5.376,5.376,0,0,0-2.089-2.047,6.239,6.239,0,0,0-2.99-.691,6.069,6.069,0,0,0-2.945.684,5.4,5.4,0,0,0-2.069,2.053,11.079,11.079,0,0,0-1.185,3.641,32.754,32.754,0,0,0-.4,5.508Zm.117,5.553a33.059,33.059,0,0,1-.4-5.553,32.879,32.879,0,0,1,.4-5.536,11.255,11.255,0,0,1,1.208-3.7,5.636,5.636,0,0,1,2.163-2.141,6.412,6.412,0,0,1,3.111-.724A6.58,6.58,0,0,1,182,2a5.611,5.611,0,0,1,2.185,2.135q1.588,2.781,1.589,8.777a39.428,39.428,0,0,1-.388,5.975,11.781,11.781,0,0,1-1.156,3.85,5.086,5.086,0,0,1-2.133,2.061,7.062,7.062,0,0,1-3.251.7,6.433,6.433,0,0,1-3.122-.724,5.566,5.566,0,0,1-2.152-2.144,11.239,11.239,0,0,1-1.207-3.7Z" transform="translate(-162.947 0.008)" fill="#373435"/><path d="M419.384,59.5a3.1,3.1,0,1,1,3.1-3.1,3.1,3.1,0,0,1-3.1,3.1Z" transform="translate(-403.339 -51.631)" fill="#373435" fill-rule="evenodd"/><path d="M414.02,54.3a3.276,3.276,0,1,1,2.317-.96A3.276,3.276,0,0,1,414.02,54.3Zm-2.073-1.2a2.933,2.933,0,1,0-.859-2.073,2.933,2.933,0,0,0,.859,2.073Z" transform="translate(-397.974 -46.263)" fill="#373435"/><path d="M461.24,99.988a1.739,1.739,0,1,1,1.739-1.739,1.739,1.739,0,0,1-1.739,1.739Z" transform="translate(-445.216 -93.507)" fill="#fefefe" fill-rule="evenodd"/><path d="M419.384,255.419a3.1,3.1,0,1,1,3.1-3.1,3.1,3.1,0,0,1-3.1,3.1Z" transform="translate(-403.339 -241.461)" fill="#373435" fill-rule="evenodd"/><path d="M414.012,250.215a3.278,3.278,0,1,1,2.316-.961A3.278,3.278,0,0,1,414.012,250.215Zm-2.073-1.2a2.932,2.932,0,1,0-.858-2.073A2.932,2.932,0,0,0,411.939,249.012Z" transform="translate(-397.966 -236.085)" fill="#373435"/><path d="M461.238,296.877a1.739,1.739,0,1,1,1.739-1.739A1.739,1.739,0,0,1,461.238,296.877Z" transform="translate(-445.215 -284.276)" fill="#fefefe" fill-rule="evenodd"/><path d="M548.511,186.538a2.3,2.3,0,0,1,.8-1.278c.238-.2.079-.439.473-.589.668-.255.476.391.317.592a2.478,2.478,0,0,0-.7,1.36,1.582,1.582,0,0,0,.373,1.013c.816,1.065.674,1.241.382,1.086a4.767,4.767,0,0,1-.994-.654A1.677,1.677,0,0,1,548.511,186.538Z" transform="translate(-531.434 -178.871)" fill="#373435" fill-rule="evenodd"/><path d="M424.495,186.538a2.294,2.294,0,0,0-.8-1.278c-.238-.2-.079-.439-.473-.589-.668-.255-.476.391-.317.592a2.478,2.478,0,0,1,.7,1.36,1.582,1.582,0,0,1-.371,1.014c-.816,1.065-.674,1.241-.382,1.086a4.77,4.77,0,0,0,.994-.654A1.684,1.684,0,0,0,424.495,186.538Z" transform="translate(-409.485 -178.871)" fill="#373435" fill-rule="evenodd"/><path d="M469.54,228.76h2.732v1.47H469.54Z" transform="translate(-454.944 -221.646)" fill="#373435" fill-rule="evenodd"/><path d="M496.565,233.129a.614.614,0,1,1,.614-.614.614.614,0,0,1-.614.614Z" transform="translate(-480.533 -224.689)" fill="#fefefe" fill-rule="evenodd"/><path d="M514.16,455.034a3.1,3.1,0,1,1,3.1,3.1,3.1,3.1,0,0,1-3.1-3.1Z" transform="translate(-498.177 -437.878)" fill="#373435" fill-rule="evenodd"/><path d="M508.62,449.668a3.276,3.276,0,1,1,.96,2.317A3.276,3.276,0,0,1,508.62,449.668Zm1.2-2.073a2.932,2.932,0,1,0,2.073-.858A2.932,2.932,0,0,0,509.823,447.594Z" transform="translate(-492.809 -432.512)" fill="#373435"/><path d="M558.77,496.888a1.739,1.739,0,1,1,1.739,1.739,1.739,1.739,0,0,1-1.739-1.739Z" transform="translate(-541.4 -479.754)" fill="#fefefe" fill-rule="evenodd"/><path d="M318.23,455.034a3.1,3.1,0,1,1,3.1,3.1,3.1,3.1,0,0,1-3.1-3.1Z" transform="translate(-308.337 -437.878)" fill="#373435" fill-rule="evenodd"/><path d="M312.681,449.668a3.276,3.276,0,1,1,.959,2.316,3.276,3.276,0,0,1-.959-2.316Zm1.2-2.073a2.931,2.931,0,1,0,2.073-.859,2.931,2.931,0,0,0-2.073.859Z" transform="translate(-302.961 -432.512)" fill="#373435"/><path d="M361.88,496.889a1.739,1.739,0,1,1,1.739,1.739A1.739,1.739,0,0,1,361.88,496.889Z" transform="translate(-350.631 -479.755)" fill="#fefefe" fill-rule="evenodd"/><path d="M451.022,584.144a2.292,2.292,0,0,1,1.277.8c.2.238.439.079.589.473.255.668-.391.476-.592.317a2.478,2.478,0,0,0-1.359-.7,1.58,1.58,0,0,0-1.014.371c-1.065.816-1.241.674-1.086.382a4.748,4.748,0,0,1,.654-.994,1.679,1.679,0,0,1,1.529-.649Z" transform="translate(-434.838 -565.956)" fill="#373435" fill-rule="evenodd"/><path d="M451.022,460.146a2.3,2.3,0,0,0,1.277-.8c.2-.238.439-.079.589-.473.255-.668-.391-.476-.592-.317a2.476,2.476,0,0,1-1.359.7,1.582,1.582,0,0,1-1.014-.371c-1.065-.816-1.241-.674-1.086-.382a4.763,4.763,0,0,0,.654.994,1.679,1.679,0,0,0,1.529.648Z" transform="translate(-434.838 -444.025)" fill="#373435" fill-rule="evenodd"/><path d="M492.59,505.19v2.731h-1.47V505.19Z" transform="translate(-475.853 -489.483)" fill="#373435" fill-rule="evenodd"/><path d="M496.7,532.215a.614.614,0,1,1,.615.615A.614.614,0,0,1,496.7,532.215Z" transform="translate(-481.26 -515.073)" fill="#fefefe" fill-rule="evenodd"/><path d="M312.23,65.81a.661.661,0,1,0,.661.661A.661.661,0,0,0,312.23,65.81Z" transform="translate(-301.884 -63.762)" fill="#373435" fill-rule="evenodd"/><path d="M239.479,210.33a.662.662,0,1,0,.661.662A.662.662,0,0,0,239.479,210.33Z" transform="translate(-231.394 -203.789)" fill="#373435" fill-rule="evenodd"/><path d="M216.2,387.82a.661.661,0,1,0,.661.661.662.662,0,0,0-.661-.661Z" transform="translate(-208.839 -375.761)" fill="#373435" fill-rule="evenodd"/><path d="M226.88,567.26a.661.661,0,1,0,.661.661A.661.661,0,0,0,226.88,567.26Z" transform="translate(-219.187 -549.623)" fill="#373435" fill-rule="evenodd"/><path d="M314.159,727.29a.662.662,0,1,0,.661.662A.662.662,0,0,0,314.159,727.29Z" transform="translate(-303.753 -704.679)" fill="#373435" fill-rule="evenodd"/><path d="M672.921,65.81a.661.661,0,1,1-.661.661.661.661,0,0,1,.661-.661Z" transform="translate(-651.362 -63.762)" fill="#373435" fill-rule="evenodd"/><path d="M745.661,210.33a.662.662,0,1,1-.661.662A.662.662,0,0,1,745.661,210.33Z" transform="translate(-721.841 -203.789)" fill="#373435" fill-rule="evenodd"/><path d="M768.931,387.82a.661.661,0,1,1-.661.661A.661.661,0,0,1,768.931,387.82Z" transform="translate(-744.387 -375.761)" fill="#373435" fill-rule="evenodd"/><path d="M758.271,567.26a.661.661,0,1,1-.661.661.661.661,0,0,1,.661-.661Z" transform="translate(-734.059 -549.623)" fill="#373435" fill-rule="evenodd"/><path d="M670.971,727.29a.662.662,0,1,1-.661.662.662.662,0,0,1,.661-.662Z" transform="translate(-649.473 -704.679)" fill="#373435" fill-rule="evenodd"/></svg>