<svg xmlns="http://www.w3.org/2000/svg" width="102.952" height="25" viewBox="0 0 102.952 25"><g transform="translate(0 -14.167)"><path d="M8.527,171.749V191.1H5.248V171.749H0V168.47H13.775v3.279Z" transform="translate(0 -152.961)" fill="#2b2a29" fill-rule="evenodd"/><path d="M513.469,171.571v9.265h3.347c4.7-.353,5.807-8.8-.235-9.265Zm0,12.347v7.2H510.19V168.49h6.65c8.752.548,9.008,12.887,2.521,14.8l4.9,7.836h-3.8l-4.5-7.2h-2.492Z" transform="translate(-493.484 -152.981)" fill="#2b2a29" fill-rule="evenodd"/><path d="M1010.1,168.46v11.506l.028,3.192c-.1,3.522,2.431,4.606,4.6,4.6,4.186-.193,4.137-3.314,4.249-4.848V168.46h3.279v14.453c.218,5.011-2.864,8.12-7.73,8.1-3.917-.029-7.7-2.114-7.694-6.973l-.013-15.583h3.279Z" transform="translate(-973.852 -152.952)" fill="#2b2a29" fill-rule="evenodd"/><rect width="22.631" height="3.279" transform="translate(55.615 15.508) rotate(90)" fill="#e31e24"/><rect width="11.199" height="3.279" transform="translate(52.336 15.509)" fill="#e31e24"/><rect width="11.199" height="3.279" transform="translate(52.336 25.206)" fill="#e31e24"/><rect width="22.631" height="3.279" transform="translate(70.067 15.508) rotate(90)" fill="#e31e24"/><rect width="11.199" height="3.279" transform="translate(66.788 34.86)" fill="#e31e24"/><circle cx="7.501" cy="7.501" r="7.501" transform="translate(82.952 19.166)" fill="none" stroke="#e31e24" stroke-linecap="round" stroke-linejoin="round" stroke-miterlimit="2.613" stroke-width="2"/><circle cx="11.5" cy="11.5" r="11.5" transform="translate(78.952 15.166)" fill="none" stroke="#e31e24" stroke-linecap="round" stroke-linejoin="round" stroke-miterlimit="2.613" stroke-width="2"/></g></svg>