<svg xmlns="http://www.w3.org/2000/svg" width="112" height="44" viewBox="0 0 143.557 57.526"><g transform="translate(0.003)"><g transform="translate(-0.003)"><path d="M535.64,968.412c1.288-9.337,2.836-18.626,10.264-26.812h4.467c8.342,10.263,9.469,20.678,9.787,26.812h-5.513c-.358-2.093-.6-4.186-.972-6.279l-11.155.072a62.876,62.876,0,0,0-1.289,6.207H535.64Zm16.748-11.034-8.79.144A34.126,34.126,0,0,1,547.994,947a31.72,31.72,0,0,1,4.395,10.375Z" transform="translate(-518.325 -911.162)" fill="#434242" fill-rule="evenodd"/><path d="M1322.75,968.412c1.288-9.337,2.836-18.626,10.264-26.812h4.467c8.342,10.263,9.469,20.678,9.788,26.812h-5.513c-.358-2.093-.6-4.186-.972-6.279l-11.155.072a62.826,62.826,0,0,0-1.289,6.207h-5.589Zm16.748-11.034-8.79.144A34.127,34.127,0,0,1,1335.1,947a31.722,31.722,0,0,1,4.395,10.375Z" transform="translate(-1279.991 -911.162)" fill="#434242" fill-rule="evenodd"/><path d="M2804.73,968.412c1.288-9.337,2.835-18.626,10.264-26.812h4.467c8.342,10.263,9.469,20.678,9.787,26.812h-5.513c-.358-2.093-.6-4.186-.973-6.279l-11.155.072a62.894,62.894,0,0,0-1.289,6.207h-5.589Zm16.748-11.034-8.79.144a34.128,34.128,0,0,1,4.4-10.519A31.722,31.722,0,0,1,2821.478,957.378Z" transform="translate(-2714.066 -911.162)" fill="#434242" fill-rule="evenodd"/><path d="M2086.79,934.574h-10.112l.093,4.543,5.1.019v9.307c-7.5,1.657-12.612-.861-12.656-9.3.123-7.418,7.115-9.49,15.592-8.307-.021-1.231-.042-3.193-.063-4.424-8.67-1.473-19.02-.157-20.95,10.809-1.948,13.6,9.047,18.586,23.089,15.328l-.09-17.974Z" transform="translate(-1996.861 -895.985)" fill="#434242" fill-rule="evenodd"/><path d="M3610.962,973.608V947.45l.256-.48h-5.183v.226a28.87,28.87,0,0,0-8.676,13.184,28.951,28.951,0,0,0-8.933-13.41H3583.5v26.638h4.927v-17.6c2.485,2.082,6.83,10.92,7.2,14.413h3.052c2-8.655,5.532-13.061,7.354-14.718v17.908h4.927Z" transform="translate(-3467.662 -916.359)" fill="#434242" fill-rule="evenodd"/><path d="M1126.592,423.218c4.108,10.567-15.026,13.821-24.142,11.983C1108.9,423.947,1121.954,416.013,1126.592,423.218Z" transform="translate(-1066.813 -406.868)" fill="#fecc00" fill-rule="evenodd"/><path d="M.567,423.218c-4.108,10.567,15.026,13.821,24.142,11.983C18.254,423.947,5.2,416.013.567,423.218Z" transform="translate(0.003 -406.868)" fill="#fecc00" fill-rule="evenodd"/><path d="M746.453,0c-11.327.172-6.231,19.124-.724,26.876C753.235,16.661,754.95,1.585,746.453,0Z" transform="translate(-715.765)" fill="#fecc00" fill-rule="evenodd"/></g></g></svg>