<svg xmlns="http://www.w3.org/2000/svg" width="21.745" height="21.746" viewBox="0 0 21.745 21.746"><path d="M261.2,7454.352a3.051,3.051,0,0,1-2.134,1.532c-.569.121-1.31.218-3.809-.815-2.806-1.163-6.7-5.306-6.7-8.056,0-1.4.809-3.045,2.223-3.045.681,0,.831.022,1.055.555.262.631.9,2.2.977,2.349.314.663-.32,1.043-.78,1.608a.52.52,0,0,0-.127.686,9.618,9.618,0,0,0,1.764,2.185,7.986,7.986,0,0,0,2.55,1.577.68.68,0,0,0,.767-.119,12.428,12.428,0,0,0,.85-1.13.6.6,0,0,1,.78-.229,21.725,21.725,0,0,1,2.772,1.392,2.7,2.7,0,0,1-.185,1.511M254.875,7439h-.005A10.886,10.886,0,0,0,244,7449.873a10.768,10.768,0,0,0,2.07,6.372l-1.355,4.044,4.178-1.337a10.755,10.755,0,0,0,5.981,1.793,10.873,10.873,0,0,0,0-21.746" transform="translate(-244 -7439)" fill="#1bdf7d" fill-rule="evenodd"/></svg>