<svg xmlns="http://www.w3.org/2000/svg" width="21.745" height="16.269" viewBox="0 0 21.745 16.269"><path d="M2.087,59.834q.413.277,2.488,1.646t3.179,2.108q.121.081.516.352t.655.439q.261.167.631.375a3.748,3.748,0,0,0,.7.312,2.009,2.009,0,0,0,.607.1h.024a2.011,2.011,0,0,0,.607-.1,3.752,3.752,0,0,0,.7-.312q.37-.208.631-.375t.655-.439q.394-.272.516-.352l5.679-3.755a5.631,5.631,0,0,0,1.48-1.421,2.953,2.953,0,0,0,.595-1.744,1.73,1.73,0,0,0-.577-1.306A1.924,1.924,0,0,0,19.8,54.82H1.941a1.771,1.771,0,0,0-1.438.6,2.259,2.259,0,0,0-.5,1.5A2.627,2.627,0,0,0,.667,58.5,5.9,5.9,0,0,0,2.087,59.834Z" transform="translate(0 -54.82)" fill="#1bdf7d"/><path d="M20.531,185.442q-3.98,2.565-6.043,3.986-.692.485-1.122.757a7.064,7.064,0,0,1-1.147.554,3.64,3.64,0,0,1-1.335.283H10.86a3.642,3.642,0,0,1-1.335-.283,7.067,7.067,0,0,1-1.147-.554q-.431-.271-1.122-.757-1.638-1.144-6.031-3.986A6.352,6.352,0,0,1,0,184.437v9.174a1.738,1.738,0,0,0,.57,1.306,1.917,1.917,0,0,0,1.371.543H19.8a1.917,1.917,0,0,0,1.371-.543,1.738,1.738,0,0,0,.57-1.306v-9.174A6.608,6.608,0,0,1,20.531,185.442Z" transform="translate(0 -179.192)" fill="#1bdf7d"/></svg>