<svg xmlns="http://www.w3.org/2000/svg" width="17.143" height="17.18" viewBox="0 0 17.143 17.18"><g transform="translate(-0.539)"><g transform="translate(0.539)"><path d="M17.233,12.608l-2.4-2.4a1.6,1.6,0,0,0-2.654.6A1.632,1.632,0,0,1,10.3,11.837,7.393,7.393,0,0,1,5.845,7.385,1.552,1.552,0,0,1,6.873,5.5a1.6,1.6,0,0,0,.6-2.654L5.075.45a1.71,1.71,0,0,0-2.312,0L1.136,2.076c-1.627,1.712.171,6.251,4.2,10.275s8.562,5.908,10.275,4.2l1.627-1.627A1.71,1.71,0,0,0,17.233,12.608Z" transform="translate(-0.539 0)" fill="#fff"/></g></g></svg>