<svg xmlns="http://www.w3.org/2000/svg" width="20.268" height="20.311" viewBox="0 0 20.268 20.311"><g transform="translate(-0.539)"><g transform="translate(0.539)"><path d="M20.276,14.906l-2.834-2.834a1.885,1.885,0,0,0-3.138.709,1.929,1.929,0,0,1-2.227,1.215A8.74,8.74,0,0,1,6.812,8.731,1.835,1.835,0,0,1,8.027,6.5a1.885,1.885,0,0,0,.709-3.138L5.9.531a2.022,2.022,0,0,0-2.733,0L1.245,2.455c-1.923,2.025.2,7.39,4.96,12.147s10.123,6.985,12.147,4.96l1.923-1.923A2.022,2.022,0,0,0,20.276,14.906Z" transform="translate(-0.539 0)" fill="#1bdf7d"/></g></g></svg>