<svg xmlns="http://www.w3.org/2000/svg" width="58.013" height="59" viewBox="0 0 58.013 59"><g transform="translate(0 0)"><path d="M10.854-511.906a14.561,14.561,0,0,0-2.935.818c-1.156.449-1.688,1.049-1.688,1.89a1.842,1.842,0,0,0,.125.668c.068.138,1.552,1.705,3.286,3.48l3.161,3.226-1.394,1.417L10.027-499l-3.116-3.18c-1.711-1.74-3.252-3.25-3.422-3.342a1.772,1.772,0,0,0-1.371-.035c-.759.4-1.292,1.44-1.8,3.538a15.637,15.637,0,0,0-.057,5.439,12.828,12.828,0,0,0,6.934,8.942,12.109,12.109,0,0,0,6.583,1.221l1.122-.138,1.983,2.016,1.983,2.017-6.753,6.879-6.753,6.891L2.674-461.92C1.2-458.175,0-454.937,0-454.753a1.825,1.825,0,0,0,1.7,1.729c.181,0,3.365-1.221,7.047-2.719l6.719-2.731,6.775-6.868,6.764-6.868,1.983,2.016,1.983,2.017-.136,1.141A13.157,13.157,0,0,0,36.8-456.481a12.87,12.87,0,0,0,5.552,3.076,9.009,9.009,0,0,0,2.969.311,9.389,9.389,0,0,0,2.855-.253c2.073-.519,3.082-1.06,3.478-1.832a1.937,1.937,0,0,0,0-1.337c-.068-.138-1.552-1.705-3.286-3.48l-3.161-3.226,1.394-1.417,1.382-1.406,3.116,3.18c1.711,1.74,3.252,3.25,3.422,3.342a1.772,1.772,0,0,0,1.371.035c1.076-.565,1.949-3.007,2.073-5.808a12.768,12.768,0,0,0-10.016-13.125,13.044,13.044,0,0,0-3.875-.2l-.963.127-1.983-2.016-1.983-2.017,9.37-9.529c8.407-8.561,9.37-9.587,9.449-9.979.17-1.014.125-1.072-4.294-5.577s-4.487-4.54-5.484-4.367c-.385.081-1.394,1.06-9.812,9.61l-9.37,9.529-1.983-2.016-1.983-2.017.125-.979a13.274,13.274,0,0,0-2.493-9.069,12.6,12.6,0,0,0-7.025-4.724A15.709,15.709,0,0,0,10.854-511.906Zm3.422,3.5a9.1,9.1,0,0,1,5.427,3.238,9.533,9.533,0,0,1,2.051,6.937c-.295,2.1-.283,2.408.045,2.892.159.23,4.691,4.9,10.061,10.359,6.73,6.833,9.88,9.956,10.1,10.013a7.51,7.51,0,0,0,2.289-.184,9.292,9.292,0,0,1,9.393,5.128,10.249,10.249,0,0,1,.929,5.185l-.091.553-2.787-2.835a40.622,40.622,0,0,0-3.116-2.961,1.711,1.711,0,0,0-1.246.012c-.351.184-5.835,5.75-6.039,6.119a1.721,1.721,0,0,0-.045,1.325,38.173,38.173,0,0,0,2.9,3.157l2.787,2.835-.442.069a9.258,9.258,0,0,1-5.824-1.256,9.5,9.5,0,0,1-4.362-9.472c.272-1.567.249-1.982-.147-2.512-.374-.507-19.261-19.693-19.771-20.084-.4-.3-.929-.311-2.357-.058a9.226,9.226,0,0,1-10.288-6.764,11.173,11.173,0,0,1-.295-3.5l.091-.553,2.787,2.835a40.618,40.618,0,0,0,3.116,2.961,1.639,1.639,0,0,0,1.3-.046c.363-.207,5.835-5.784,6.016-6.142a1.717,1.717,0,0,0-.034-1.337,37.65,37.65,0,0,0-2.889-3.134c-2.617-2.65-2.719-2.766-2.425-2.835A9.711,9.711,0,0,1,14.276-508.4Zm36.993,3.3,2.606,2.65-2.663,2.708-2.663,2.708-2.629-2.673-2.64-2.685,2.629-2.673c1.45-1.475,2.663-2.685,2.7-2.685S49.842-506.559,51.269-505.107Zm-7.7,7.836,2.606,2.65-4.736,4.817L36.71-485l-2.629-2.685-2.64-2.673,4.7-4.782c2.583-2.627,4.725-4.782,4.759-4.782S42.137-498.724,43.565-497.272Zm-19.6,19.935,2.606,2.65-6.005,6.107-6.005,6.107-2.629-2.673-2.64-2.685,5.971-6.073c3.3-3.353,6.005-6.084,6.039-6.084S22.536-478.789,23.963-477.337ZM9.517-462.646c1.088,1.106,1.949,2.028,1.926,2.051-.045.035-3.32,1.371-6.152,2.512l-.533.219.147-.38c.079-.2.68-1.728,1.337-3.388s1.2-3.031,1.235-3.031S8.43-463.752,9.517-462.646Z" transform="translate(0 512.024)" fill="#1bdf7d"/></g></svg>