<svg xmlns="http://www.w3.org/2000/svg" width="40.002" height="58.565" viewBox="0 0 40.002 58.565"><g transform="translate(-81.176 512)"><path d="M90.308-509.243c0,3.077.1,3.821.744,5.194a8.084,8.084,0,0,0,4.862,4.29,7.556,7.556,0,0,0,2.151.309l1.4.069v5.995l-1.258.194A20.117,20.117,0,0,0,82.186-479.75a17.424,17.424,0,0,0-1,5.388,21.213,21.213,0,0,0,3.478,12.515,20.817,20.817,0,0,0,5,4.965,20.9,20.9,0,0,0,15.879,3,19.052,19.052,0,0,0,13.362-10.124,20.6,20.6,0,0,0,2.254-10.353,19.883,19.883,0,0,0-9.884-16.314,19.457,19.457,0,0,0-6.921-2.471l-1.464-.252v-5.983l1.407-.069a7.265,7.265,0,0,0,4.519-1.533,8.336,8.336,0,0,0,3.043-4.69,18.251,18.251,0,0,0,.183-3.569V-512h-2.631c-3.169,0-3.935.126-5.445.858a6.879,6.879,0,0,0-1.922,1.327l-.869.812-.847-.8a6.862,6.862,0,0,0-1.922-1.327c-1.533-.744-2.288-.869-5.468-.869H90.308Zm5.514.8a4.623,4.623,0,0,1,3.638,4.759v.835h-.892a4.588,4.588,0,0,1-4.828-4.828v-.892h.744A8.067,8.067,0,0,1,95.822-508.442Zm12.79.766A4.545,4.545,0,0,1,107.056-504a4.26,4.26,0,0,1-3.043,1.133l-1.121.046v-.835a4.646,4.646,0,0,1,1.373-3.535,4.688,4.688,0,0,1,3.524-1.361l.824-.011ZM104.173-489.7a19.49,19.49,0,0,1,4.153,1.293c.526.275,2,1.133,2,1.178,0,.011-.423.275-.938.572a6.359,6.359,0,0,0-3.432,5.834,5.9,5.9,0,0,0,.927,3.272c.824,1.361.732,1.968-.492,3.135a4.683,4.683,0,0,0-1.51,2.46,5.214,5.214,0,0,0,3.352,6.178c.675.206,1.064.229,4.176.229h3.432l-.3.538a18.121,18.121,0,0,1-4.622,5.1,17.671,17.671,0,0,1-6.235,2.78l-.515.069-.011-.972a10.857,10.857,0,0,0-8.591-10.227,13.811,13.811,0,0,0-4.851.011,10.839,10.839,0,0,0-3.432,1.567,7.8,7.8,0,0,1-1.041.652,23.778,23.778,0,0,1-1.075-2.837,19.1,19.1,0,0,1-.583-3.581v-.538h4.038a28.7,28.7,0,0,0,4.748-.172,5.669,5.669,0,0,0,3-9.049,5.688,5.688,0,0,0-2.62-1.773,9.662,9.662,0,0,0-2.917-.32l-2.151-.069,1.064-1.041a16.313,16.313,0,0,1,11.451-4.5A16.693,16.693,0,0,1,104.173-489.7Zm9.644,5.526a17.33,17.33,0,0,1,3.638,7.5,22.412,22.412,0,0,1,.046,6.544c-.114.526-.24,1.007-.263,1.052s-1.819.092-3.981.092c-3.89,0-3.924,0-4.313-.263a1.74,1.74,0,0,1-.664-2.059,8.1,8.1,0,0,1,.915-1.018,5.178,5.178,0,0,0,1.624-4.553,7.638,7.638,0,0,0-1.064-2.62,2.976,2.976,0,0,1,.389-3.409,11.919,11.919,0,0,1,3.009-1.853A2.385,2.385,0,0,1,113.817-484.178Zm-21.278,3.421A2.217,2.217,0,0,1,93-476.65c-.446.217-.709.229-4.336.229s-3.855-.011-3.8-.206c.034-.1.137-.5.229-.881a17,17,0,0,1,.938-2.688l.309-.686H89.21A24.661,24.661,0,0,1,92.539-480.757Zm2.86,16a7.324,7.324,0,0,1,3.215,1.991,6.658,6.658,0,0,1,2.1,5.022v1.03l-.881-.08a17.369,17.369,0,0,1-8.408-3.123,17.114,17.114,0,0,1-3.18-3.077c0-.435,2.139-1.636,3.443-1.933A8.5,8.5,0,0,1,95.4-464.753Z" transform="translate(0)" fill="#1bdf7d"/></g></svg>