<svg xmlns="http://www.w3.org/2000/svg" width="58.613" height="63" viewBox="0 0 58.613 63"><g transform="translate(-1.958 -1)"><circle cx="9.077" cy="9.077" r="9.077" transform="translate(22.187 23.423)" fill="none" stroke="#1bdf7d" stroke-linecap="round" stroke-linejoin="round" stroke-miterlimit="10" stroke-width="4"/><path d="M57.946,19.715l-2.269-3.93a4.538,4.538,0,0,0-6.2-1.661l-1.194.69a6.808,6.808,0,0,1-10.212-5.9V7.538A4.537,4.537,0,0,0,33.533,3H28.995a4.537,4.537,0,0,0-4.538,4.538v1.38a6.808,6.808,0,0,1-10.212,5.9l-1.194-.69a4.538,4.538,0,0,0-6.2,1.661l-2.269,3.93a4.538,4.538,0,0,0,1.661,6.2l1.194.69a6.807,6.807,0,0,1,0,11.791l-1.194.69a4.538,4.538,0,0,0-1.661,6.2l2.269,3.93a4.538,4.538,0,0,0,6.2,1.661l1.194-.69a6.808,6.808,0,0,1,10.212,5.9v1.38A4.537,4.537,0,0,0,28.995,62h4.538a4.537,4.537,0,0,0,4.538-4.538v-1.38a6.808,6.808,0,0,1,10.212-5.9l1.194.69a4.538,4.538,0,0,0,6.2-1.661l2.269-3.93a4.538,4.538,0,0,0-1.661-6.2l-1.194-.69a6.807,6.807,0,0,1,0-11.791l1.194-.69A4.536,4.536,0,0,0,57.946,19.715Z" transform="translate(0 0)" fill="none" stroke="#1bdf7d" stroke-linecap="round" stroke-linejoin="round" stroke-miterlimit="10" stroke-width="4"/></g></svg>