<svg xmlns="http://www.w3.org/2000/svg" width="86.053" height="36.35" viewBox="0 0 86.053 36.35"><g transform="translate(0 -10.1)"><path d="M6.94,171.139v15.75H4.271v-15.75H0V168.47H11.211v2.669Z" transform="translate(0 -153.809)" fill="#2b2a29" fill-rule="evenodd"/><path d="M512.858,171v7.541h2.724c3.823-.287,4.726-7.163-.191-7.541Zm0,10.049v5.862H510.19V168.49H515.6c7.123.446,7.331,10.488,2.052,12.041l3.986,6.377H518.55l-3.664-5.862h-2.028Z" transform="translate(-496.593 -153.828)" fill="#2b2a29" fill-rule="evenodd"/><path d="M1009.489,168.46v9.365l.023,2.6c-.079,2.866,1.979,3.749,3.746,3.745,3.407-.157,3.367-2.7,3.458-3.945V168.46h2.669v11.763c.177,4.078-2.331,6.609-6.291,6.6-3.188-.023-6.27-1.721-6.262-5.675l-.011-12.683h2.668Z" transform="translate(-979.988 -153.799)" fill="#2b2a29" fill-rule="evenodd"/><rect width="18.419" height="2.669" transform="translate(45.263 14.661) rotate(90)" fill="#e31e24"/><rect width="9.115" height="2.668" transform="translate(42.595 14.661)" fill="#e31e24"/><rect width="9.115" height="2.668" transform="translate(42.595 22.554)" fill="#e31e24"/><rect width="18.419" height="2.669" transform="translate(57.026 14.661) rotate(90)" fill="#e31e24"/><rect width="9.115" height="2.668" transform="translate(54.357 30.411)" fill="#e31e24"/><circle cx="6.105" cy="6.105" r="6.105" transform="translate(67.512 17.638)" fill="none" stroke="#e31e24" stroke-linecap="round" stroke-linejoin="round" stroke-miterlimit="2.613" stroke-width="2"/><circle cx="9.36" cy="9.36" r="9.36" transform="translate(64.257 14.383)" fill="none" stroke="#e31e24" stroke-linecap="round" stroke-linejoin="round" stroke-miterlimit="2.613" stroke-width="2"/><path d="M1557.29,971.36h1.162v3.7a2.136,2.136,0,0,1,4.009,1.109V980h-1.136v-3.71c-.168-2.193-2.907-1.7-2.907.193v3.555H1557.3l-.011-8.682Z" transform="translate(-1515.788 -935.302)" fill="#e31e24" fill-rule="evenodd"/><path d="M1780.9,1073.94h1.128v5.87H1780.9Z" transform="translate(-1733.438 -1035.148)" fill="#e31e24" fill-rule="evenodd"/><path d="M1854.429,1068.666v1.008a2.137,2.137,0,0,1,4.01,1.11v3.831H1857.3v-3.709c-.169-2.193-2.908-1.7-2.908.193v3.555h-1.116l-.008-5.987h1.159Z" transform="translate(-1803.88 -1029.913)" fill="#e31e24" fill-rule="evenodd"/><path d="M2065.664,972.557a2.454,2.454,0,0,1,1.941,1.018V969.91h1.129v8.642H2067.6v-.858a2.455,2.455,0,0,1-1.941,1.019,3.119,3.119,0,0,1,0-6.156Zm.292.821h0a1.847,1.847,0,0,1,1.668,1.48v1.461a1.847,1.847,0,0,1-1.668,1.479,2.265,2.265,0,0,1,0-4.419Z" transform="translate(-2008.069 -933.89)" fill="#e31e24" fill-rule="evenodd"/><path d="M2283.267,1072.626l1.792,5.9h1.094l1.483-4.723,1.5,4.734h.99l1.906-5.875h-1.119l-1.307,4.815-1.436-4.876h-.967l-1.565,4.865-1.166-4.838s-1.211-.013-1.2,0Z" transform="translate(-2222.417 -1033.844)" fill="#e31e24" fill-rule="evenodd"/><path d="M2809.477,1067.928v1.008a1.819,1.819,0,0,1,1.863-1.113l-.129.993a1.728,1.728,0,0,0-1.767,1.543v3.555h-1.117l-.007-5.987h1.157Z" transform="translate(-2733.477 -1029.176)" fill="#e31e24" fill-rule="evenodd"/><path d="M2601.932,1071.479l.39-1.112c1.99-.361,3.517-.137,3.633,1.882v3.969h-1.115v-2.743h-1.225c-2.165.136-1.125,2.9.867,1.559l-.367,1.027c-3.032.977-4.065-2.923-1.079-3.291a18.082,18.082,0,0,1,1.859-.044c.235-1.735-1.325-2.151-2.964-1.248Z" transform="translate(-2531.927 -1031.531)" fill="#e31e24" fill-rule="evenodd"/><path d="M2873.1,1070.026h.959c.148,2.364,1.771,3.242,5.032,2.467l-.265-.848q-3.691.9-3.677-1.608h4.249c.252-4.474-4.839-4.141-5.24-.782h-.8S2873.111,1070.049,2873.1,1070.026Zm2.059-.782h3.148C2878.3,1066.847,2875.47,1067.019,2875.159,1069.244Z" transform="translate(-2796.531 -1028.106)" fill="#e31e24" fill-rule="evenodd"/><path d="M1095.81,1031.071v-7.411h.531v3.681a2.3,2.3,0,0,1,.751-.67,1.894,1.894,0,0,1,.91-.222,1.953,1.953,0,0,1,1.5.692,2.431,2.431,0,0,1,.624,1.683,2.387,2.387,0,0,1-.629,1.667,1.975,1.975,0,0,1-1.513.691,1.83,1.83,0,0,1-.919-.233,2.176,2.176,0,0,1-.728-.707v.83h-.531Zm2.14-.45a1.516,1.516,0,0,0,.82-.236,1.685,1.685,0,0,0,.6-.667,1.963,1.963,0,0,0,0-1.818,1.724,1.724,0,0,0-.6-.674,1.487,1.487,0,0,0-.809-.24,1.575,1.575,0,0,0-.831.24,1.635,1.635,0,0,0-.6.65,1.967,1.967,0,0,0-.211.919,1.866,1.866,0,0,0,.474,1.3A1.506,1.506,0,0,0,1097.949,1030.62Z" transform="translate(-1066.606 -986.208)" fill="#2b2a29"/><path d="M1258.22,1140.36h.6l1.556,3.459,1.512-3.459h.619l-2.523,5.888h-.619l.714-1.747Z" transform="translate(-1224.688 -1099.798)" fill="#2b2a29"/><circle cx="2.168" cy="2.168" r="2.168" transform="translate(81.367 10.45)" fill="none" stroke="#e31e24" stroke-linecap="round" stroke-linejoin="round" stroke-miterlimit="2.613" stroke-width="0.7"/><path d="M3098.08,49.3V46.91h1.018a1.745,1.745,0,0,1,.558.064.547.547,0,0,1,.278.229.689.689,0,0,1,.1.377.639.639,0,0,1-.158.445.756.756,0,0,1-.472.221,1.1,1.1,0,0,1,.257.2,2.723,2.723,0,0,1,.274.389l.292.467h-.578l-.347-.522a3.161,3.161,0,0,0-.255-.351.373.373,0,0,0-.145-.1.813.813,0,0,0-.245-.027h-.1v1h-.484Zm.485-1.38h.357a1.847,1.847,0,0,0,.434-.03.261.261,0,0,0,.135-.1.313.313,0,0,0,.049-.18.288.288,0,0,0-.064-.2.292.292,0,0,0-.181-.094q-.06-.008-.353-.008h-.377v.608Z" transform="translate(-3015.515 -35.488)" fill="#e31e24"/></g></svg>