<svg xmlns="http://www.w3.org/2000/svg" width="100.603" height="42.099" viewBox="0 0 100.603 42.099"><g transform="translate(0)"><path d="M3087.02,1023.851l3.8-9.915h1.442l4.036,9.915h-1.493l-1.147-3h-4.175l-1.076,3Zm2.853-4.071h3.378l-1.034-2.749q-.467-1.253-.711-2.07a14.035,14.035,0,0,1-.547,1.909Zm7.4,4.071v-9.915h1.315v9.915Zm3.362,0v-9.915h4.395a5.848,5.848,0,0,1,2.014.268,2.2,2.2,0,0,1,1.1.942,2.809,2.809,0,0,1,.411,1.493,2.5,2.5,0,0,1-.683,1.779,3.451,3.451,0,0,1-2.107.919,3.378,3.378,0,0,1,.792.494,6.643,6.643,0,0,1,1.084,1.32l1.715,2.7h-1.638l-1.311-2.063c-.381-.6-.7-1.052-.944-1.369a3,3,0,0,0-.667-.662,2.011,2.011,0,0,0-.6-.263,4.085,4.085,0,0,0-.729-.046h-1.518v4.4h-1.315Zm1.315-5.539h2.816a4.179,4.179,0,0,0,1.4-.187,1.462,1.462,0,0,0,.766-.6,1.608,1.608,0,0,0,.263-.889,1.483,1.483,0,0,0-.508-1.158,2.373,2.373,0,0,0-1.606-.452h-3.134Zm10.941,5.539-3.831-9.915h1.422l2.575,7.205c.206.577.381,1.117.519,1.622q.229-.813.533-1.622l2.672-7.205h1.339l-3.866,9.915Zm4.006,0,3.8-9.915h1.442l4.037,9.915h-1.493l-1.147-3h-4.175l-1.075,3Zm2.853-4.071h3.379l-1.034-2.749q-.467-1.253-.711-2.07a14.035,14.035,0,0,1-.547,1.909Zm14.241.593,1.315.332a4.409,4.409,0,0,1-1.481,2.462,4.082,4.082,0,0,1-2.617.849,4.689,4.689,0,0,1-2.6-.653,4.059,4.059,0,0,1-1.526-1.888,6.762,6.762,0,0,1-.524-2.656,5.838,5.838,0,0,1,.591-2.7,4.063,4.063,0,0,1,1.682-1.752,4.9,4.9,0,0,1,2.4-.6,4.045,4.045,0,0,1,2.5.757,3.931,3.931,0,0,1,1.413,2.128l-1.288.3a3.057,3.057,0,0,0-1-1.574,2.654,2.654,0,0,0-1.648-.494,3.2,3.2,0,0,0-1.906.547,2.887,2.887,0,0,0-1.076,1.47,5.926,5.926,0,0,0-.311,1.9,6.061,6.061,0,0,0,.367,2.206,2.739,2.739,0,0,0,1.142,1.41,3.19,3.19,0,0,0,1.678.466,2.81,2.81,0,0,0,1.86-.635,3.259,3.259,0,0,0,1.031-1.888Z" transform="translate(-3038.523 -997.844)" fill="#009846" fill-rule="evenodd"/><path d="M2844.487,829.28h54.633a.647.647,0,0,1,.646.647v14.751a.647.647,0,0,1-.646.647h-54.633a.647.647,0,0,1-.646-.647V829.927A.647.647,0,0,1,2844.487,829.28Zm53.987,1.293h-53.34v13.458h53.34Z" transform="translate(-2799.164 -816.252)" fill="#009846" fill-rule="evenodd"/><path d="M71.962,188.768a20.624,20.624,0,0,1,.264,3.29c0,.6-.027,1.187-.077,1.771-1.177.014-2.447-.276-2.633-.928-.17-.593-.817-1.246-.846-1.874v.023a31.941,31.941,0,0,1,3.55,1.2V192.2c0-.259-.006-.516-.016-.772a33.173,33.173,0,0,0-3.256-1.084c.027-.027.055-.055.086-.082.961-.841.24-1.561,1.8-1.681a2.508,2.508,0,0,1,1.125.19Zm-5.285,17q.161-.978.3-1.983c-1.084-.3-2.225-.571-3.41-.8q-.135,1.012-.3,2c1.183.227,2.325.489,3.413.79Zm.392-2.741q.163-1.335.278-2.7c-1.088-.288-2.229-.541-3.412-.762q-.115,1.35-.277,2.668C64.842,202.459,65.982,202.724,67.069,203.025Zm.339-3.47q.089-1.2.138-2.421c-1.084-.293-2.222-.551-3.4-.776q-.054,1.23-.146,2.444c1.181.218,2.321.469,3.411.753Zm-23.08,7.366c1.048-.086,2.106-.152,3.169-.2q-.191-.975-.355-1.988c-1.079.051-2.153.123-3.214.216q.186,1.005.4,1.968Zm3.934-.225c1.13-.037,2.263-.05,3.392-.039q1,.01,2,.046.194-.975.359-1.99-1.178-.049-2.368-.06c-1.247-.013-2.5.005-3.746.052q.166,1.014.36,1.991Zm6.16.039c1.181.055,2.351.137,3.5.248q.2-.962.365-1.964c-1.152-.119-2.325-.208-3.512-.269q-.163,1.011-.355,1.986Zm4.258.325c1.136.123,2.251.274,3.335.454q.2-.944.378-1.929c-1.087-.191-2.207-.353-3.351-.484q-.167,1-.362,1.96Zm-5.823-31q-.729-.019-1.462-.026-1.161-.011-2.325.009-.285.979-.53,2.014,1.431-.032,2.861-.019,1,.009,1.986.041-.245-1.037-.53-2.019Zm-5.883,6.166c-1.207.049-2.409.121-3.6.217q-.169,1.292-.288,2.621c1.172-.11,2.36-.2,3.555-.261Q46.783,183.492,46.973,182.222Zm-.409,3.34c-1.191.065-2.375.153-3.542.265q-.112,1.417-.17,2.858c1.152-.111,2.319-.2,3.494-.267q.082-1.441.218-2.856Zm-.257,3.617c-1.172.067-2.335.157-3.482.269l-.012.427q-.024.947-.024,1.9c1.137-.1,2.287-.178,3.444-.233q.005-.344.014-.687.021-.838.06-1.672Zm17.154,4.053c-1.115-.2-2.267-.366-3.444-.507q0,1.119-.028,2.236c1.171.138,2.317.3,3.43.5q.037-1.11.043-2.226Zm-.072,2.989c-1.11-.2-2.254-.362-3.424-.5q-.045,1.239-.128,2.465c1.163.134,2.3.3,3.409.484q.09-1.215.143-2.449ZM38.3,199.294c-1.115.161-2.205.345-3.263.55q.114,1.271.268,2.511c1.065-.2,2.161-.379,3.281-.534Q38.422,200.575,38.3,199.294Zm24.517,3.546c-1.093-.2-2.221-.366-3.374-.507q-.127,1.023-.282,2.019c1.146.133,2.268.295,3.358.487Q62.682,203.855,62.817,202.84Zm8.772-5.694q-.062.241-.129.479-.224-.09-.454-.177C71.178,197.349,71.375,197.248,71.589,197.147Zm-.35,1.209a20.282,20.282,0,0,1-.818,2.12q-1.087-.387-2.27-.719.055-.72.1-1.445a1.416,1.416,0,0,0,.309.353,2.975,2.975,0,0,0,1.736-.671q.485.175.948.362Zm-1.145,2.81a20.472,20.472,0,0,1-1.376,2.357q-.449-.148-.913-.286.166-1.338.284-2.71,1.04.3,2.006.638Zm-1.833,3.005q-.343.467-.711.913.082-.539.156-1.086.28.085.555.173Zm-1.946,2.281a20.617,20.617,0,0,1-1.725,1.56h0q-.9-.2-1.831-.368.2-.941.376-1.922c1.1.211,2.164.454,3.18.73ZM63.8,208.616q-.73.533-1.508,1,.156-.607.3-1.235Q63.206,208.493,63.8,208.616Zm-2.431,1.525a20.335,20.335,0,0,1-4.138,1.655l.257-.073c.387-1.224.731-2.537,1.032-3.919,1.134.121,2.245.271,3.326.45Q61.624,209.223,61.371,210.141Zm-4.753,1.816a20.415,20.415,0,0,1-3.709.551,43.1,43.1,0,0,0,1.358-5.021c1.18.053,2.349.133,3.5.242a42.385,42.385,0,0,1-1.146,4.229Zm-3.836.558-.279.012Zm-.686.024c-.118,0-.237,0-.354,0q-.988,0-1.953-.092a41.735,41.735,0,0,1-1.374-5c1.076-.033,2.155-.045,3.231-.034q.929.009,1.854.041A41.442,41.442,0,0,1,52.1,212.538Zm-3.141-.185a20.373,20.373,0,0,1-3.3-.732,39.158,39.158,0,0,1-1.157-3.954c1.041-.084,2.093-.148,3.149-.191a43.536,43.536,0,0,0,1.308,4.876Zm-4.206-1.037a20.426,20.426,0,0,1-3.792-1.842c.13-.439.276-.952.468-1.5q1.142-.14,2.31-.246c.3,1.264.638,2.464,1.013,3.583Zm-3.01-4.138a8.078,8.078,0,0,1,1.24-2.029c.035-.041.069-.079.1-.116l.087-.009q.184,1,.4,1.964-.92.085-1.826.19Zm2.8-3.036c.232-.127.339-.334.289-.995-.015-.194-.07-.655-.147-1.178q1.024-.065,2.056-.106.126,1.074.282,2.12Q45.777,204.044,44.543,204.142Zm.024-2.924a7.461,7.461,0,0,0-.322-1.39,3.729,3.729,0,0,1-.285-1.149q1.226-.091,2.467-.149.094,1.3.23,2.579Q45.608,201.151,44.567,201.218Zm-.646-3.3c-.009-.809.067-1.675.055-2.487q1.136-.084,2.285-.14.038,1.245.115,2.478Q45.143,197.832,43.921,197.923Zm.021-3.243a4.029,4.029,0,0,0-.62-2.194q1.44-.118,2.9-.189-.007,1.122.017,2.243Q45.086,194.595,43.942,194.68Zm-1.909-3.4a9.738,9.738,0,0,1-1.526-1.568q.773-.1,1.557-.182l-.009.331Q42.038,190.565,42.033,191.275Zm-1.967-2.254a2.574,2.574,0,0,1-.328-1.776c.094-.405.187-.761.287-1.078q1.1-.147,2.232-.265-.11,1.418-.166,2.859-1.027.109-2.035.241l.01.019Zm.257-3.645a4.11,4.11,0,0,1,.856-1.24c.354-.354.881-1,1.411-1.63H42.6q-.167,1.3-.284,2.63-1.005.1-1.992.229l-.005.011Zm3.192-3.942h0a5.927,5.927,0,0,1,.545-.539c.372-.31.147-.374.6-.6.119-.059-.115-.558-.318-1.293q.712-.05,1.429-.088c.124.331.262.507.343.5.236-.029.415-.238.571-.539q.452-.02.9-.035-.275,1.279-.494,2.622c-1.211.046-2.417.118-3.611.212Zm.655-3.176c-.014-.082-.027-.166-.038-.251q.2-.907.419-1.778.507-.034,1.016-.063a6.541,6.541,0,0,0,.007,2Q44.87,178.208,44.17,178.257ZM47,178.1a4.184,4.184,0,0,1,1.023-1.89c.067-.05.138-.1.213-.155h.04q-.279.983-.52,2.019-.378.012-.756.027Zm2.437-2.825c.767-.471,1.468-.865,1.468-.865s.583-.157,1.322-.3q.207.578.4,1.183-.611-.014-1.225-.02-.98-.009-1.962,0Zm3.547-1.3c1.183-.172,2.407-.191,2.28.508a4.781,4.781,0,0,1-.29.892q-.772-.039-1.551-.065Q53.214,174.631,52.984,173.98Zm1.655,2.142c-.192.4-.415.818-.65,1.235q-.162-.649-.34-1.276Q54.145,176.1,54.639,176.122Zm-1.549,2.7a6.055,6.055,0,0,1-1.1,1.349c-.84.6-2.281-.12-2.281,1.2v.022q-.921.009-1.841.037c.148-.893.315-1.768.5-2.618q1.515-.037,3.029-.023Q52.244,178.8,53.09,178.824Zm-3.3,3.329a5.223,5.223,0,0,1,.278,2.583l.006-.055q-1.333.02-2.663.08.143-1.3.334-2.567Q48.763,182.162,49.786,182.153Zm.163,3.288a19.839,19.839,0,0,1-.875,2.863q-.985.026-1.967.073c.055-.96.129-1.914.222-2.855q1.307-.06,2.62-.082ZM48.8,189.069c-.068.2-.13.4-.181.589a11.084,11.084,0,0,0-.4,1.8q-.616.016-1.23.041.005-.318.013-.636.022-.867.062-1.731Q47.934,189.095,48.8,189.069Zm-.592,3.152a3.559,3.559,0,0,0,.651,1.76,2.618,2.618,0,0,0,.4.462q-1.135.017-2.267.062-.024-1.12-.016-2.243.614-.025,1.23-.041Zm2.656,2.97a1.552,1.552,0,0,1,1,1.192c.137.512.273.937.4,1.308q-.414-.008-.83-.012c-1.431-.013-2.868.008-4.3.063q-.077-1.232-.115-2.479c1.281-.051,2.567-.075,3.85-.071Zm1.642,3.262a3.624,3.624,0,0,1,.2,1.532,5.437,5.437,0,0,0-.025,1.089q-.844-.025-1.693-.033c-1.189-.011-2.383,0-3.573.04q-.137-1.276-.231-2.583c1.411-.054,2.829-.075,4.241-.061Q51.969,198.442,52.511,198.454Zm.326,3.384a3.359,3.359,0,0,0,.47.91,1.985,1.985,0,0,1,.284,1.192q-.965-.034-1.937-.044c-1.288-.013-2.581.006-3.869.056q-.156-1.041-.283-2.115c1.16-.036,2.323-.049,3.482-.038q.929.009,1.854.038Zm.912,2.6a.309.309,0,0,0,.031.023Zm1.952-.4a2.3,2.3,0,0,0,.848-1.056,3.77,3.77,0,0,1,.434-.909h0q.862.074,1.709.167-.127,1.026-.282,2.024-1.337-.139-2.708-.226Zm2.966-2.562a1.026,1.026,0,0,0,.122-.06l-.008.072-.114-.013Zm1.007-1.259a2.957,2.957,0,0,0,.208-1.271c1.129.132,2.233.29,3.306.475q-.114,1.348-.274,2.662c-1.1-.2-2.226-.366-3.381-.507q.077-.675.141-1.359Zm.015-1.8a.546.546,0,0,0-.063-.063A.547.547,0,0,1,59.688,198.419Zm-.1-.092-.036-.022Zm-.633-.239c-.789-.192-1.6-.207-.844-1.345.333-.5.608-.84.831-1.138l.27.028q-.044,1.24-.126,2.467l-.131-.014Zm2.023-8.509c.792.542,1.163,1.757,1.837,2.775q-1.371-.224-2.8-.392-.006-.556-.02-1.111-.017-.7-.047-1.389Q60.465,189.517,60.977,189.579Zm2.209,3.27.05.057C63.218,192.887,63.2,192.868,63.185,192.849Zm2.615.852h0a21.5,21.5,0,0,1,1.38,2.554c-.966-.246-1.972-.466-3.008-.662q.038-1.108.046-2.223.8.155,1.582.33ZM38.59,207.759a20.512,20.512,0,0,1-7.014-19.3l1.558,1.558c.061.061.121.128.181.2q-.946.224-1.844.473c-.019.265-.033.531-.042.8q1.143-.323,2.368-.606c.065.1.131.2.195.3q-.02.928-.018,1.858-1.291.27-2.508.583.027.384.067.765,1.184-.308,2.446-.576.013,1.111.056,2.217-1.106.23-2.159.492c.053.248.11.494.172.738q.985-.246,2.02-.463.06,1.226.157,2.436-.734.15-1.445.314.138.358.29.71.6-.137,1.22-.265.115,1.269.27,2.507l-.317.064a20.51,20.51,0,0,0,1.382,2.045q-.119-.742-.222-1.5c1.066-.2,2.164-.38,3.285-.536q.16,1.125.355,2.211c-.978.153-1.935.324-2.867.514q.28.334.574.657,1.19-.234,2.431-.427.1.512.2,1.012a2.177,2.177,0,0,0-.776,1.074l-.132.022.114.1,0,.026Zm-3.856-15.48a3.769,3.769,0,0,0,.475.518l-.477.092Q34.731,192.584,34.734,192.279Zm.995.846.047.017Zm.774.209a2.5,2.5,0,0,1,1.476.648q.018.674.047,1.345c-1.106.163-2.188.347-3.238.552q-.042-1.107-.052-2.22Q35.6,193.487,36.5,193.334Zm1.639,4.043a5.983,5.983,0,0,0,.084,1.094h0l.006.068c-1.113.16-2.2.343-3.258.546q-.1-1.211-.153-2.441c1.05-.207,2.133-.393,3.242-.557q.035.647.079,1.29Zm.195,1.532c.015.041.031.082.049.123C38.367,198.991,38.351,198.95,38.336,198.909Zm.342.627c.03.042.06.084.092.126C38.738,199.62,38.707,199.578,38.678,199.536Zm.466.579c.446.5.968,1,1.341,1.466q-.578.066-1.15.14Q39.231,200.926,39.144,200.115Zm1.775,2.18a.953.953,0,0,1,.06.318c0,.957-.688,1-.845,2.009l-.342.049q-.194-1.079-.353-2.2.735-.095,1.481-.176Zm-.844,3.1a1.662,1.662,0,0,1-.086.317l-.058-.3.144-.021Z" transform="translate(-30.769 -171.148)" fill="#009846" fill-rule="evenodd"/><path d="M369.382,649.192h-.816l-.323-.852h-1.5l-.311.852h-.8l1.453-3.742h.8ZM368,647.708l-.52-1.385-.505,1.385Z" transform="translate(-359.886 -635.31)" fill="#009846" fill-rule="evenodd"/><path d="M631.13,1642.477V1639h1.126a4.087,4.087,0,0,1,.834.052.915.915,0,0,1,.5.341,1.08,1.08,0,0,1,.2.677,1.143,1.143,0,0,1-.116.538.962.962,0,0,1-.295.343,1.017,1.017,0,0,1-.363.164,4,4,0,0,1-.727.05h-.456v1.311h-.7Zm.7-2.89v.991h.383a1.791,1.791,0,0,0,.553-.055.453.453,0,0,0,.218-.171.471.471,0,0,0,.079-.271.453.453,0,0,0-.111-.314.486.486,0,0,0-.282-.156,3.435,3.435,0,0,0-.5-.024h-.338Z" transform="translate(-621.215 -1613.252)" fill="#009846" fill-rule="evenodd"/><path d="M1603.57,994.72h.962v3.974h-.962Z" transform="translate(-1578.378 -979.093)" fill="#009846" fill-rule="evenodd"/><path d="M21.05,0A21.05,21.05,0,1,1,6.165,6.165,20.985,20.985,0,0,1,21.05,0ZM35.02,7.079a19.758,19.758,0,1,0,5.786,13.97A19.7,19.7,0,0,0,35.02,7.079Z" transform="translate(0)" fill="#009846" fill-rule="evenodd"/></g></svg>