<svg xmlns="http://www.w3.org/2000/svg" width="125.75" height="25.364" viewBox="0 0 125.75 25.364"><g transform="translate(0 0)"><path d="M1690.008,26.748h.422a6.4,6.4,0,0,0,2.941-.457,1.662,1.662,0,0,0,.765-1.554,1.5,1.5,0,0,0-.656-1.355,3.889,3.889,0,0,0-2.066-.43h-.8Zm-5.948,9.4,2.663-16.755h4.6a19.288,19.288,0,0,1,2.875.156,5.459,5.459,0,0,1,1.671.519,4.414,4.414,0,0,1,1.918,1.785,5.451,5.451,0,0,1,.636,2.714,6.285,6.285,0,0,1-.683,2.906,5.03,5.03,0,0,1-1.848,2.062,4.819,4.819,0,0,1-1.629.6,17.6,17.6,0,0,1-2.941.176h-1.878l-.937,5.835h-4.448Z" transform="translate(-1649.445 -18.992)" fill="red"/><path d="M2426.558,36.145h-4.448l2.64-16.755h4.46a22.407,22.407,0,0,1,3,.144,5.981,5.981,0,0,1,1.707.484,4.327,4.327,0,0,1,1.925,1.679,4.919,4.919,0,0,1,.652,2.589,5.057,5.057,0,0,1-1.246,3.488,5.591,5.591,0,0,1-3.421,1.754l4.081,6.616H2430.8l-3.234-6.4-1.008,6.4Zm1.429-9.092h1.406a3.05,3.05,0,0,0,2.035-.605,2.184,2.184,0,0,0,.711-1.754,1.813,1.813,0,0,0-.664-1.562,3.646,3.646,0,0,0-2.125-.484h-.664Z" transform="translate(-2372.324 -18.992)" fill="red"/><path d="M3184.29,36.135l2.656-16.755h4.562l-2.652,16.755Z" transform="translate(-3118.838 -18.982)" fill="red"/><path d="M3588.311,36.145l2.644-16.755h5.116l3.534,8.276c.031.066.082.184.148.351a13.888,13.888,0,0,1,.812,2.382v-.422c0-.309.02-.644.055-1.015s.086-.816.152-1.343l1.292-8.229h4.476L3603.9,36.145h-4.921l-3.753-8.526c-.273-.617-.484-1.129-.625-1.535s-.261-.808-.359-1.211v.469c0,.3-.015.625-.039.965s-.074.793-.145,1.359l-1.269,8.479h-4.476Z" transform="translate(-3514.555 -18.992)" fill="red"/><path d="M4564.183,1.211l-.754,4.62a6.932,6.932,0,0,0-2.094-1.261,6.6,6.6,0,0,0-2.354-.426,4.488,4.488,0,0,0-3.434,1.453,5.232,5.232,0,0,0-1.348,3.7,4.238,4.238,0,0,0,1.132,3.152,4.373,4.373,0,0,0,3.2,1.113,8.2,8.2,0,0,0,1.835-.219,12.459,12.459,0,0,0,1.984-.648l-.7,4.335a11.128,11.128,0,0,1-1.894.418,16.056,16.056,0,0,1-2.238.145,7.63,7.63,0,0,1-5.737-2.218,8.1,8.1,0,0,1-2.157-5.893,10.271,10.271,0,0,1,.555-3.382,9.429,9.429,0,0,1,1.633-2.921,8.145,8.145,0,0,1,3.14-2.347,10.5,10.5,0,0,1,4.214-.812,10.993,10.993,0,0,1,2.573.3,11.238,11.238,0,0,1,2.438.894Z" transform="translate(-4456.114 -0.02)" fill="red"/><path d="M5276.587,32.409h5.187l-.586,3.726h-9.658l2.644-16.755h9.658l-.6,3.867h-5.187l-.422,2.742h4.808l-.562,3.632h-4.832Z" transform="translate(-5163.176 -18.982)" fill="red"/><path d="M3122.249,1006.562h.239a1.842,1.842,0,0,0,.917-.159.634.634,0,0,0,.262-.55.492.492,0,0,0-.187-.463,1.567,1.567,0,0,0-.785-.133h-.229Zm-.43,2.579h-.709l.756-4.531h.938a3.417,3.417,0,0,1,.777.062,1.069,1.069,0,0,1,.416.21,1.006,1.006,0,0,1,.3.4,1.269,1.269,0,0,1,.089.536,1.549,1.549,0,0,1-.148.627,1.276,1.276,0,0,1-.38.464,1.3,1.3,0,0,1-.486.228,3.9,3.9,0,0,1-.854.069h-.374l-.323,1.933Z" transform="translate(-3056.957 -983.961)" fill="red"/><path d="M3311.41,1009.141l.757-4.531h.723l-.765,4.531Z" transform="translate(-3243.345 -983.961)" fill="red"/><path d="M3418.7,1006.562h.239a1.841,1.841,0,0,0,.917-.159.632.632,0,0,0,.262-.55.491.491,0,0,0-.187-.463,1.564,1.564,0,0,0-.785-.133h-.229Zm-.43,2.579h-.709l.756-4.531h.938a3.419,3.419,0,0,1,.777.062,1.069,1.069,0,0,1,.416.21,1.009,1.009,0,0,1,.3.4,1.277,1.277,0,0,1,.088.536,1.553,1.553,0,0,1-.148.627,1.278,1.278,0,0,1-.38.464,1.305,1.305,0,0,1-.487.228,3.9,3.9,0,0,1-.854.069h-.374l-.324,1.933Z" transform="translate(-3347.313 -983.961)" fill="red"/><path d="M3607.87,1009.141l.757-4.531h.723l-.765,4.531Z" transform="translate(-3533.711 -983.961)" fill="red"/><path d="M3714.021,1000.689l.781-4.708,2.372,2.833c.085.1.164.2.231.295s.133.184.192.275c0-.094.011-.2.024-.3s.033-.24.059-.4l.431-2.522h.666l-.78,4.708-2.379-2.833c-.107-.128-.192-.236-.256-.323a2.947,2.947,0,0,1-.167-.252c-.008.14-.037.355-.084.643,0,.03-.009.051-.012.066l-.412,2.522h-.666Z" transform="translate(-3637.68 -975.508)" fill="red"/><path d="M3991.158,1000.774a1.88,1.88,0,0,0-.643-.573,1.727,1.727,0,0,0-.812-.188,1.81,1.81,0,0,0-.681.13,1.719,1.719,0,0,0-.572.378,2.087,2.087,0,0,0-.44.637,1.985,1.985,0,0,0-.173.743,1.52,1.52,0,0,0,.392,1.152,1.487,1.487,0,0,0,1.13.439,1.507,1.507,0,0,0,.962-.314,1.261,1.261,0,0,0,.478-.821h-1.173l.1-.646h1.933a2.558,2.558,0,0,1-.676,1.772,2.255,2.255,0,0,1-1.687.649,2.152,2.152,0,0,1-1.607-.6,2.079,2.079,0,0,1-.556-1.6,2.828,2.828,0,0,1,.23-1.038,2.427,2.427,0,0,1,.585-.825,2.488,2.488,0,0,1,.823-.508,2.76,2.76,0,0,1,.989-.175,2.224,2.224,0,0,1,1.916.919l-.518.475Z" transform="translate(-3905.177 -978.838)" fill="red"/><path d="M4329.18,1003.239l.514-.412a1.474,1.474,0,0,0,.379.538.772.772,0,0,0,.5.166.84.84,0,0,0,.589-.21.747.747,0,0,0,.243-.548.667.667,0,0,0-.1-.4,1.285,1.285,0,0,0-.4-.339c-.04-.024-.1-.059-.178-.1a2.741,2.741,0,0,1-.669-.477.875.875,0,0,1-.178-.321,1.175,1.175,0,0,1-.049-.4,1.353,1.353,0,0,1,.417-.974,1.42,1.42,0,0,1,1.016-.376,1.482,1.482,0,0,1,.727.17,1.3,1.3,0,0,1,.5.509l-.447.4a1.076,1.076,0,0,0-.324-.367.722.722,0,0,0-.409-.12.785.785,0,0,0-.549.194.684.684,0,0,0-.225.5q-.013.371.573.692c.1.052.171.093.222.125a1.823,1.823,0,0,1,.627.551,1.216,1.216,0,0,1,.165.7,1.363,1.363,0,0,1-.452,1.022,1.656,1.656,0,0,1-1.139.379,1.435,1.435,0,0,1-.816-.223,1.461,1.461,0,0,1-.525-.677Z" transform="translate(-4240.195 -978.838)" fill="red"/><path d="M4527.29,1004.61h.766l.7,1.52a2.514,2.514,0,0,1,.109.273c.02.055.037.1.047.127.034-.056.071-.116.115-.182s.1-.144.166-.237l1.088-1.5h.811l-1.9,2.516-.337,2.015h-.715l.346-2.039Z" transform="translate(-4434.233 -983.961)" fill="red"/><path d="M4712.319,1003.239l.513-.412a1.475,1.475,0,0,0,.38.538.77.77,0,0,0,.5.166.836.836,0,0,0,.588-.21.744.744,0,0,0,.243-.548.667.667,0,0,0-.1-.4,1.3,1.3,0,0,0-.4-.339l-.18-.1a2.736,2.736,0,0,1-.668-.477.892.892,0,0,1-.179-.321,1.187,1.187,0,0,1-.048-.4,1.349,1.349,0,0,1,.417-.974,1.421,1.421,0,0,1,1.017-.376,1.477,1.477,0,0,1,.725.17,1.3,1.3,0,0,1,.5.509l-.448.4a1.07,1.07,0,0,0-.323-.367.723.723,0,0,0-.41-.12.787.787,0,0,0-.549.194.687.687,0,0,0-.225.5q-.012.371.573.692c.1.052.171.093.221.125a1.814,1.814,0,0,1,.627.551,1.2,1.2,0,0,1,.165.7,1.366,1.366,0,0,1-.451,1.022,1.657,1.657,0,0,1-1.139.379,1.435,1.435,0,0,1-.817-.223,1.463,1.463,0,0,1-.524-.677Z" transform="translate(-4615.459 -978.838)" fill="red"/><path d="M4912.95,1009.141l.651-3.878h-1.222l.11-.653h3.095l-.113.653h-1.154l-.652,3.878Z" transform="translate(-4811.408 -983.961)" fill="red"/><path d="M5083.009,1009.141l.757-4.531h2.542l-.1.64h-1.84l-.186,1.141h1.833l-.106.634h-1.84l-.24,1.464h1.839l-.113.653Z" transform="translate(-4978.53 -983.961)" fill="red"/><path d="M5259.228,997.776l0-.109c0-.091.008-.178.016-.263s.016-.17.027-.257a1.592,1.592,0,0,1-.119.254c-.049.086-.121.2-.214.328l-1.724,2.535-.848-2.529c-.021-.058-.042-.131-.066-.219s-.056-.211-.1-.37a3.313,3.313,0,0,1-.152.6l0,.013-.763,2.32h-.722l1.657-4.721.994,2.933c.05.145.09.268.12.373s.058.207.081.307q.086-.176.187-.35c.067-.115.14-.229.218-.343l2.013-2.921.041,4.721h-.7l.052-2.3Z" transform="translate(-5146.563 -974.901)" fill="red"/><path d="M5552.9,1003.239l.514-.412a1.474,1.474,0,0,0,.379.538.772.772,0,0,0,.5.166.838.838,0,0,0,.589-.21.746.746,0,0,0,.243-.548.667.667,0,0,0-.1-.4,1.3,1.3,0,0,0-.4-.339l-.18-.1a2.756,2.756,0,0,1-.668-.477.883.883,0,0,1-.178-.321,1.175,1.175,0,0,1-.049-.4,1.353,1.353,0,0,1,.418-.974,1.419,1.419,0,0,1,1.016-.376,1.481,1.481,0,0,1,.726.17,1.289,1.289,0,0,1,.5.509l-.447.4a1.076,1.076,0,0,0-.324-.367.723.723,0,0,0-.409-.12.787.787,0,0,0-.55.194.687.687,0,0,0-.225.5q-.013.371.573.692c.1.052.171.093.221.125a1.825,1.825,0,0,1,.627.551,1.212,1.212,0,0,1,.165.7,1.363,1.363,0,0,1-.452,1.022,1.656,1.656,0,0,1-1.14.379,1.436,1.436,0,0,1-.816-.223A1.471,1.471,0,0,1,5552.9,1003.239Z" transform="translate(-5438.762 -978.838)" fill="red"/><path d="M5918.322,14.18a2.064,2.064,0,0,1,1.464.607l0,0a2.071,2.071,0,0,1-2.93,2.929h0a2.072,2.072,0,0,1,1.465-3.536Zm1.091.98a1.543,1.543,0,1,0,.453,1.092,1.535,1.535,0,0,0-.453-1.092h0Z" transform="translate(-5794.644 -13.889)"/><path d="M5977.611,72.952v-1.8h.766a1.312,1.312,0,0,1,.419.049.415.415,0,0,1,.21.172.522.522,0,0,1,.079.284.48.48,0,0,1-.119.335.567.567,0,0,1-.354.166.818.818,0,0,1,.192.151,1.915,1.915,0,0,1,.207.293l.219.351h-.435l-.26-.393a2.243,2.243,0,0,0-.193-.264.271.271,0,0,0-.109-.075.61.61,0,0,0-.184-.02h-.074v.753h-.365Zm.365-1.039h.269a1.39,1.39,0,0,0,.326-.022.194.194,0,0,0,.1-.076.233.233,0,0,0,.036-.135.215.215,0,0,0-.048-.147.221.221,0,0,0-.137-.071c-.029,0-.118-.006-.265-.006h-.285v.458Z" transform="translate(-5854.743 -69.688)"/><path d="M3.655,30.743,0,15.29,10.357,25.98,15.619,15.4l6.2,10.468L31.238,15.29,28.58,32.46c-8.566-2.9-17.931,3.567-24.924-1.717Z" transform="translate(0 -14.976)" fill="red" fill-rule="evenodd"/><path d="M189.97,844.55c9.163,4.481,16.488-1.887,24.274,1.371C206.566,844.478,196.141,850.855,189.97,844.55Z" transform="translate(-186.066 -827.191)" fill="red" fill-rule="evenodd"/></g></svg>