<svg xmlns="http://www.w3.org/2000/svg" width="137.802" height="30.384" viewBox="0 0 137.802 30.384"><g transform="translate(0 0)"><g transform="translate(0 0)"><path d="M197.052,7.99h0c9.522,0,10.819,7.636,10.819,12.79,0,5.514.424,14.515-10.819,14.515h0c-10.346,0-10.805-9.151-10.819-13.8-.013-4.677.626-13.5,10.819-13.5Z" transform="translate(-180.805 -7.757)" fill="#c2c2c2" fill-rule="evenodd"/><path d="M189.324-.01c4.86,0,7.627,1.958,9.18,4.577a16.822,16.822,0,0,1,1.871,8.446v.581c.015,5.634.036,14.167-11.051,14.167-5.284,0-8.047-2.346-9.492-5.288-1.431-2.914-1.551-6.4-1.558-8.75a19.118,19.118,0,0,1,1.607-8.609C181.35,2.252,184.12-.01,189.324-.01Zm0,.465c-4.989,0-7.635,2.149-9.03,4.869a18.7,18.7,0,0,0-1.556,8.4c.006,2.3.123,5.721,1.511,8.546,1.374,2.8,4.013,5.026,9.076,5.026,10.623,0,10.6-8.253,10.588-13.7v-.581A16.4,16.4,0,0,0,198.1,4.8c-1.475-2.488-4.119-4.348-8.78-4.348Z" transform="translate(-173.077 0.01)"/><path d="M326.266,54.99h0c6.108,0,6.94,6.87,6.94,11.506,0,4.96.272,13.059-6.94,13.059h0c-6.637,0-6.932-8.233-6.94-12.42C319.317,62.928,319.727,54.99,326.266,54.99Z" transform="translate(-310.019 -53.387)" fill="#b5dff7" fill-rule="evenodd"/><path d="M318.548,47a6.129,6.129,0,0,1,5.975,4.157,20.3,20.3,0,0,1,1.2,7.582v.523c.009,5.078.023,12.769-7.173,12.769-3.445,0-5.24-2.128-6.175-4.8a24.928,24.928,0,0,1-1-7.857,23.353,23.353,0,0,1,1.029-7.73c.95-2.6,2.751-4.648,6.144-4.648Zm0,.465c-3.146,0-4.82,1.917-5.707,4.341a22.933,22.933,0,0,0-1,7.572,24.515,24.515,0,0,0,.972,7.7c.874,2.494,2.544,4.483,5.737,4.483,6.732,0,6.718-7.411,6.709-12.3v-.523a19.9,19.9,0,0,0-1.161-7.4,5.7,5.7,0,0,0-5.547-3.871Z" transform="translate(-302.3 -45.63)"/><path d="M354.092,498.72a3.61,3.61,0,0,1,3.295,3.295,3.295,3.295,0,0,1-5.9,2.023.548.548,0,0,0-.851-.021,3.295,3.295,0,1,1-.028-4.04.515.515,0,0,0,.846.01,3.3,3.3,0,0,1,2.634-1.266Z" transform="translate(-334.683 -484.184)" fill-rule="evenodd"/><path d="M603.6,547.53a1.872,1.872,0,1,1-1.872,1.872A1.872,1.872,0,0,1,603.6,547.53Z" transform="translate(-584.192 -531.572)" fill="#fff" fill-rule="evenodd"/><path d="M540.656,590.59a.616.616,0,1,1-.616.616A.616.616,0,0,1,540.656,590.59Z" transform="translate(-524.3 -573.377)" fill="#fff" fill-rule="evenodd"/><path d="M455.409,74.182a3.61,3.61,0,0,1-3.295,3.295,3.295,3.295,0,0,1-2.023-5.9.548.548,0,0,0,.021-.851,3.295,3.295,0,1,1,4.04-.028.515.515,0,0,0-.01.846,3.3,3.3,0,0,1,1.266,2.634Z" transform="translate(-435.739 -62.93)" fill-rule="evenodd"/><path d="M342.474,803.84a.614.614,0,1,1-.614.614A.614.614,0,0,1,342.474,803.84Z" transform="translate(-331.896 -780.411)" fill-rule="evenodd"/><path d="M247.634,631.11a.614.614,0,1,1-.614.614A.614.614,0,0,1,247.634,631.11Z" transform="translate(-239.82 -612.716)" fill-rule="evenodd"/><path d="M829.054,631.11a.614.614,0,1,1-.614.614A.614.614,0,0,1,829.054,631.11Z" transform="translate(-804.294 -612.716)" fill-rule="evenodd"/><path d="M733.094,803.84a.614.614,0,1,1-.614.614A.614.614,0,0,1,733.094,803.84Z" transform="translate(-711.131 -780.411)" fill-rule="evenodd"/><path d="M235.214,434.66a.614.614,0,1,1-.614.614A.614.614,0,0,1,235.214,434.66Z" transform="translate(-227.762 -421.991)" fill-rule="evenodd"/><path d="M841.474,434.66a.614.614,0,1,1-.614.614A.614.614,0,0,1,841.474,434.66Z" transform="translate(-816.352 -421.991)" fill-rule="evenodd"/><path d="M260.054,239.35a.614.614,0,1,1-.614.614A.614.614,0,0,1,260.054,239.35Z" transform="translate(-251.878 -232.374)" fill-rule="evenodd"/><path d="M815.5,239.35a.614.614,0,1,1-.614.614A.614.614,0,0,1,815.5,239.35Z" transform="translate(-791.139 -232.374)" fill-rule="evenodd"/><path d="M340.2,81.29a.614.614,0,1,1-.614.614A.614.614,0,0,1,340.2,81.29Z" transform="translate(-329.692 -78.92)" fill-rule="evenodd"/><path d="M734.214,81.29a.614.614,0,1,1-.614.614A.614.614,0,0,1,734.214,81.29Z" transform="translate(-712.219 -78.92)" fill-rule="evenodd"/><path d="M6.981,187.548H2.763V171.7H6.981v-.945H0v17.743H6.981Z" transform="translate(0 -165.773)" fill-rule="evenodd"/><path d="M917.535,295.643h2.249v-7.524H917.15v-.449h4.405v8.421h-4.02Z" transform="translate(-890.419 -279.285)" fill-rule="evenodd"/><path d="M227.643,808.21h.072a8.5,8.5,0,0,0,4.65,3.429l-.479,3.4H226.68l.963-6.827Z" transform="translate(-220.073 -784.654)" fill-rule="evenodd"/><path d="M695.862,808.21h-.072a8.5,8.5,0,0,1-4.651,3.429l.479,3.4h5.206l-.963-6.827Z" transform="translate(-670.996 -784.654)" fill-rule="evenodd"/><path d="M1089.71,745.35h104.183v8.357H1089.71Z" transform="translate(-1057.95 -723.626)" fill="#005b87" fill-rule="evenodd"/><path d="M1169.87,811.156l.29.043c.085.007.134.014.155.014.106,0,.134-.021.134-.141s-.007-.134-.05-.148a.223.223,0,0,1-.057-.014c-.05-.007-.113-.014-.191-.021-.466-.064-.523-.162-.523-.841V807.1l.007-.184c.007-.113.042-.127.41-.127a.908.908,0,0,1,1,.9c0,.572-.41.89-1.166.89h-.1c-.035,0-.05.014-.05.035,0,.05.078.12.184.17a.8.8,0,0,0,.361.085,1.283,1.283,0,0,0,1.378-1.3,1.117,1.117,0,0,0-1.272-1.138c-.155,0-.325.007-.516.021-.219.014-.438.028-.544.028a4.393,4.393,0,0,1-.5-.042,2.072,2.072,0,0,0-.254-.028c-.085,0-.1.021-.1.127,0,.141.007.148.141.177.078.014.134.028.169.035a.3.3,0,0,1,.134.064.274.274,0,0,1,.064.12,1.106,1.106,0,0,1,.028.346v3.165a1.641,1.641,0,0,1-.028.212.242.242,0,0,1-.085.141.553.553,0,0,1-.283.1c-.113.021-.134.035-.134.127v.12c.007.035.042.057.106.057a1.731,1.731,0,0,0,.254-.028c.021-.007.078-.021.17-.042a2.15,2.15,0,0,1,.339-.05,2.471,2.471,0,0,1,.29.028l.233.042Zm4.6-2.339a1.458,1.458,0,0,0,.784-1.272c0-.706-.459-1.1-1.271-1.1-.134,0-.29.007-.466.014-.261.021-.417.021-.572.021-.113,0-.226,0-.311-.007-.042-.007-.113-.014-.226-.028l-.233-.028c-.042,0-.078-.007-.106-.007-.063,0-.085.028-.085.127s.007.12.021.134.035.021.1.035c.247.05.332.078.389.155s.078.148.078.579v2.572a1.866,1.866,0,0,1-.057.706.313.313,0,0,1-.2.134l-.177.035c-.127.028-.155.05-.155.148,0,.134.021.162.106.162a3.1,3.1,0,0,0,.424-.063,1.374,1.374,0,0,1,.382-.064,1.959,1.959,0,0,1,.4.064,1.87,1.87,0,0,0,.311.063.243.243,0,0,0,.071.007c.092,0,.113-.028.113-.148s-.014-.141-.148-.162c-.254-.028-.389-.12-.417-.29a2.426,2.426,0,0,1-.035-.565v-.989h.12c.2,0,.388-.007.544-.021l.9,1.236c.466.629.784.9,1.166.989a1.646,1.646,0,0,0,.375.042c.141,0,.191-.021.191-.078s-.028-.064-.155-.127a5.33,5.33,0,0,1-.982-1.123l-.876-1.152Zm-1.286-.085v-1.759c0-.148.014-.17.085-.177a2.754,2.754,0,0,1,.275-.014c.4,0,.523.028.707.17a.809.809,0,0,1,.261.346,1.112,1.112,0,0,1,.071.41c0,.678-.382,1.039-1.1,1.039-.092,0-.148-.007-.3-.014Zm4.423-1.929h.805c.261,0,.3.007.368.05a.384.384,0,0,1,.134.283c.021.155.063.2.177.2s.17-.049.17-.141a3.67,3.67,0,0,0-.035-.417,2.155,2.155,0,0,1-.021-.268v-.007c0-.05,0-.057-.05-.057h-.043c-.092,0-.2,0-.325.007-.346.007-.819.014-1.187.014s-.685-.007-.918-.028c-.085-.007-.155-.014-.2-.014s-.078.028-.078.113v.113c0,.05.035.064.134.078l.2.021c.226.028.254.071.254.353v3.307c0,.417-.057.473-.516.5-.092.007-.12.035-.12.127,0,.148.014.17.134.17.042,0,.078-.007.12-.007a8.614,8.614,0,0,1,1.116-.064c.127,0,.332,0,.636.014.283.007.488.014.607.021.29.021.466.028.537.028h.057c.028-.127.035-.169.07-.318.05-.219.064-.3.12-.495a.22.22,0,0,0,.014-.092c0-.071-.05-.106-.148-.106h-.014a.18.18,0,0,0-.106.021c-.05.028-.064.057-.134.247-.092.283-.254.368-.678.368-.643,0-.812-.028-.94-.134a.34.34,0,0,1-.106-.212,3,3,0,0,1-.028-.488v-1.01h.968c.311,0,.4.063.438.3.007.057.021.092.042.1l.064.021a.244.244,0,0,0,.07.007c.106,0,.148-.043.148-.162,0-.028-.007-.078-.021-.219s-.021-.2-.021-.261v-.141c.007-.1.007-.17.014-.212a.83.83,0,0,0,.007-.12c0-.113-.035-.155-.148-.155a.141.141,0,0,0-.162.127l-.028.134c-.035.163-.134.219-.368.219h-1V806.8Zm5.243-.325-.127-.014-.445-.042c-.184-.014-.353-.021-.516-.021a1.283,1.283,0,0,0-1.463,1.307,1.045,1.045,0,0,0,.367.841,3.55,3.55,0,0,0,.982.558c.572.283.763.509.763.911,0,.53-.381.862-1,.862-.53,0-.791-.191-.883-.643-.035-.141-.078-.184-.2-.184s-.155.035-.155.141v.113l.05.784c.042.007.078.007.1.014q.063.011.381.043a5.19,5.19,0,0,0,.7.064,1.438,1.438,0,0,0,1.618-1.356,1.172,1.172,0,0,0-.346-.848,3.814,3.814,0,0,0-.933-.572c-.5-.247-.636-.339-.742-.523a.746.746,0,0,1-.1-.4c0-.509.325-.8.9-.8a.742.742,0,0,1,.579.184,1.414,1.414,0,0,1,.148.4c.021.106.057.134.17.134s.162-.042.162-.17v-.141l-.014-.643Zm3.448,0-.127-.014-.445-.042c-.184-.014-.353-.021-.516-.021a1.283,1.283,0,0,0-1.463,1.307,1.045,1.045,0,0,0,.368.841,3.548,3.548,0,0,0,.982.558c.572.283.763.509.763.911,0,.53-.382.862-1,.862-.53,0-.791-.191-.883-.643-.035-.141-.078-.184-.2-.184s-.155.035-.155.141v.113l.05.784c.042.007.078.007.1.014q.063.011.381.043a5.186,5.186,0,0,0,.7.064,1.438,1.438,0,0,0,1.618-1.356,1.172,1.172,0,0,0-.346-.848,3.809,3.809,0,0,0-.933-.572c-.5-.247-.636-.339-.742-.523a.745.745,0,0,1-.1-.4c0-.509.325-.8.9-.8a.742.742,0,0,1,.579.184,1.414,1.414,0,0,1,.148.4c.021.106.057.134.17.134s.162-.042.162-.17v-.141l-.014-.643Zm1.053.876.057,1.2a3.886,3.886,0,0,0,.375,1.936,1.688,1.688,0,0,0,1.477.735,1.571,1.571,0,0,0,1.4-.692,3.432,3.432,0,0,0,.438-1.773l.042-.9c.021-.339.028-.572.028-.706.007-.233.035-.318.127-.375a.907.907,0,0,1,.233-.078c.113-.021.12-.028.12-.141,0-.134-.007-.148-.085-.148a.543.543,0,0,0-.1.007,1.566,1.566,0,0,0-.155.021l-.191.05a.779.779,0,0,1-.184.021,1.079,1.079,0,0,1-.318-.049,2.1,2.1,0,0,0-.332-.057c-.085,0-.113.028-.113.12v.021l.007.064c0,.057.028.078.113.092.212.035.318.1.353.184a2.725,2.725,0,0,1,.05.692c0,.551-.021,1.251-.057,1.752a2.913,2.913,0,0,1-.163.784,1.126,1.126,0,0,1-1.095.763c-.735,0-1.18-.523-1.272-1.5-.042-.466-.078-1.293-.078-1.83s.007-.622.071-.685a.443.443,0,0,1,.247-.113l.177-.042c.106-.021.12-.035.12-.141,0-.134-.014-.155-.092-.155-.042,0-.141.014-.24.028l-.24.05a2.037,2.037,0,0,1-.339.035,1.42,1.42,0,0,1-.184-.014c-.028-.007-.106-.021-.24-.05l-.212-.043a.717.717,0,0,0-.113-.014c-.064,0-.092.028-.092.12,0,.113.007.134.021.148a.458.458,0,0,0,.134.05c.255.064.283.1.3.375l.007.261Zm7.024,1.462a1.458,1.458,0,0,0,.784-1.272c0-.706-.459-1.1-1.272-1.1-.134,0-.29.007-.466.014-.261.021-.417.021-.572.021-.113,0-.226,0-.311-.007-.042-.007-.113-.014-.226-.028l-.233-.028c-.043,0-.078-.007-.106-.007-.064,0-.085.028-.085.127s.007.12.021.134.035.021.1.035c.247.05.332.078.389.155s.078.148.078.579v2.572a1.866,1.866,0,0,1-.057.706.312.312,0,0,1-.2.134l-.177.035c-.127.028-.155.05-.155.148,0,.134.021.162.106.162a3.1,3.1,0,0,0,.424-.063,1.374,1.374,0,0,1,.381-.064,1.959,1.959,0,0,1,.4.064,1.868,1.868,0,0,0,.311.063.242.242,0,0,0,.07.007c.092,0,.113-.028.113-.148s-.014-.141-.148-.162c-.254-.028-.389-.12-.417-.29a2.433,2.433,0,0,1-.035-.565v-.989h.12c.2,0,.389-.007.544-.021l.9,1.236c.466.629.784.9,1.166.989a1.645,1.645,0,0,0,.375.042c.141,0,.191-.021.191-.078s-.028-.064-.155-.127a5.328,5.328,0,0,1-.982-1.123l-.876-1.152Zm-1.286-.085v-1.759c0-.148.014-.17.085-.177a2.752,2.752,0,0,1,.275-.014c.4,0,.523.028.707.17a.807.807,0,0,1,.261.346,1.109,1.109,0,0,1,.071.41c0,.678-.381,1.039-1.1,1.039-.092,0-.148-.007-.3-.014Zm4.423-1.929h.805c.261,0,.3.007.367.05a.383.383,0,0,1,.135.283c.021.155.063.2.177.2s.17-.049.17-.141a3.7,3.7,0,0,0-.035-.417,2.138,2.138,0,0,1-.021-.268v-.007c0-.05,0-.057-.049-.057h-.043c-.092,0-.2,0-.325.007-.346.007-.82.014-1.187.014s-.685-.007-.918-.028c-.085-.007-.155-.014-.2-.014s-.078.028-.078.113v.113c0,.05.035.064.134.078l.2.021c.226.028.255.071.255.353v3.307c0,.417-.057.473-.516.5-.092.007-.12.035-.12.127,0,.148.014.17.134.17.042,0,.078-.007.12-.007a8.617,8.617,0,0,1,1.116-.064c.127,0,.332,0,.636.014.283.007.488.014.608.021.29.021.466.028.537.028h.057c.028-.127.035-.169.07-.318.05-.219.064-.3.12-.495a.222.222,0,0,0,.014-.092c0-.071-.05-.106-.148-.106h-.014a.18.18,0,0,0-.106.021c-.05.028-.063.057-.134.247-.092.283-.254.368-.678.368-.643,0-.813-.028-.94-.134a.34.34,0,0,1-.106-.212,3,3,0,0,1-.028-.488v-1.01h.968c.311,0,.4.063.438.3.007.057.021.092.042.1l.063.021a.245.245,0,0,0,.071.007c.106,0,.148-.043.148-.162,0-.028-.007-.078-.021-.219s-.021-.2-.021-.261v-.141c.007-.1.007-.17.014-.212a.83.83,0,0,0,.007-.12c0-.113-.035-.155-.148-.155a.141.141,0,0,0-.162.127l-.028.134c-.035.163-.134.219-.368.219h-1V806.8Zm9.192,4.077-1.413-.9a6.951,6.951,0,0,0,.664-1.279c.063-.163.113-.276.148-.353a.6.6,0,0,1,.12-.191.569.569,0,0,1,.311-.113c.155-.028.177-.042.177-.127v-.043l-.007-.078c0-.035-.028-.043-.106-.043a.534.534,0,0,0-.148.014l-.318.064a.942.942,0,0,1-.2.014,2.387,2.387,0,0,1-.339-.035,2.279,2.279,0,0,0-.375-.057c-.106,0-.12.014-.12.085v.127c0,.05.035.07.127.078.233.014.382.064.424.141a.315.315,0,0,1,.035.177,3.64,3.64,0,0,1-.629,1.47l-1.526-1.017a2.656,2.656,0,0,0,.565-.4.9.9,0,0,0,.332-.721.94.94,0,0,0-1.046-.94,1.022,1.022,0,0,0-1.123.975,1.419,1.419,0,0,0,.749,1.1l-.375.226c-.537.325-.77.657-.77,1.074,0,.657.565,1.1,1.392,1.1a1.968,1.968,0,0,0,1.356-.495,2.068,2.068,0,0,0,.431-.431l1.335,1,.325-.424Zm-3.4-2.233a2.585,2.585,0,0,1-.318-.268.88.88,0,0,1-.276-.615.617.617,0,0,1,.65-.6.6.6,0,0,1,.643.593.875.875,0,0,1-.3.593A2.662,2.662,0,0,1,1203.307,808.647Zm-.085.346,1.583,1.152a2.311,2.311,0,0,1-.311.3,1.689,1.689,0,0,1-1,.367,1.01,1.01,0,0,1-1.067-.869c0-.332.177-.558.714-.89Zm7.7,1.279-1.229-2.932a1.721,1.721,0,0,1-.177-.509c0-.057.071-.092.268-.134.092-.014.106-.035.106-.134,0-.141-.014-.162-.12-.162a2.607,2.607,0,0,0-.3.043c-.092.028-.155.035-.177.042a1.4,1.4,0,0,1-.177.014,1.625,1.625,0,0,1-.445-.064.908.908,0,0,0-.2-.028c-.1,0-.113.014-.113.127v.085c0,.042.028.064.092.085.2.05.247.07.3.141a2.62,2.62,0,0,1,.233.466l1.625,3.709.071.177a.118.118,0,0,0,.12.071h.021a.339.339,0,0,0,.085-.021c.021-.014.028-.035.092-.184l1.653-3.844c.191-.438.233-.488.473-.523.063-.007.078-.035.078-.12,0-.148-.014-.17-.1-.17a1.094,1.094,0,0,0-.2.028,1.835,1.835,0,0,1-.41.064,1.6,1.6,0,0,1-.332-.05,1.147,1.147,0,0,0-.311-.042c-.078,0-.106.021-.106.113,0,.148.014.17.113.184l.135.028c.177.028.268.113.268.226a.728.728,0,0,1-.064.268l-1.265,3.045Zm2.982-.911h1.54l.431,1.074a.863.863,0,0,1,.078.3c0,.1-.05.141-.233.17-.12.021-.134.035-.134.127,0,.155.014.17.134.17a1.823,1.823,0,0,0,.325-.057,1.139,1.139,0,0,1,.332-.05,1.264,1.264,0,0,1,.375.057,1.489,1.489,0,0,0,.332.057c.113,0,.134-.021.134-.134v-.106c-.007-.028-.035-.043-.127-.064-.332-.064-.375-.113-.579-.6l-1.342-3.28c-.078-.184-.12-.3-.141-.361-.063-.218-.1-.26-.2-.26s-.134.035-.177.17c-.021.048-.05.119-.092.225-.092.233-.155.38-.184.444l-1.215,2.843-.1.233c-.155.367-.3.544-.48.565l-.134.014c-.1.014-.127.043-.127.148v.085c0,.05.057.07.148.07a1.054,1.054,0,0,0,.24-.035,1.43,1.43,0,0,1,.381-.064.638.638,0,0,1,.127.014,1.189,1.189,0,0,1,.177.035,2.206,2.206,0,0,0,.332.049c.063,0,.078-.035.078-.162,0-.106-.014-.12-.141-.134-.184-.028-.276-.1-.276-.2a1.405,1.405,0,0,1,.1-.325l.424-1.01Zm.141-.353.65-1.585.607,1.585h-1.258Zm7.087-2.444-.1-.007-.29-.035-.509-.078a4.521,4.521,0,0,0-.622-.043,2.269,2.269,0,0,0-2.564,2.374,2.328,2.328,0,0,0,2.607,2.437,6.49,6.49,0,0,0,1-.092l.368-.064.106-.014.162-.721.021-.12c0-.021.007-.035.007-.05,0-.064-.071-.1-.17-.1-.127,0-.162.028-.226.2-.085.254-.113.311-.191.367a1.643,1.643,0,0,1-.975.254,1.944,1.944,0,0,1-2.006-2.063c0-1.314.693-2.084,1.879-2.084a1.792,1.792,0,0,1,1.081.268.6.6,0,0,1,.085.24.754.754,0,0,0,.057.2.181.181,0,0,0,.148.057c.127,0,.17-.043.17-.155a.064.064,0,0,0-.007-.035l-.035-.742Zm.891.791.057,1.2a3.886,3.886,0,0,0,.375,1.936,1.688,1.688,0,0,0,1.476.735,1.571,1.571,0,0,0,1.4-.692,3.431,3.431,0,0,0,.438-1.773l.042-.9c.021-.339.028-.572.028-.706.007-.233.035-.318.127-.375a.905.905,0,0,1,.233-.078c.113-.021.12-.028.12-.141,0-.134-.007-.148-.085-.148a.544.544,0,0,0-.1.007,1.563,1.563,0,0,0-.155.021l-.191.05a.777.777,0,0,1-.184.021,1.08,1.08,0,0,1-.318-.049,2.1,2.1,0,0,0-.332-.057c-.085,0-.113.028-.113.12v.021l.007.064c0,.057.028.078.113.092.212.035.318.1.353.184a2.731,2.731,0,0,1,.05.692c0,.551-.021,1.251-.057,1.752a2.913,2.913,0,0,1-.163.784,1.126,1.126,0,0,1-1.095.763c-.735,0-1.18-.523-1.272-1.5-.043-.466-.078-1.293-.078-1.83s.007-.622.071-.685a.443.443,0,0,1,.247-.113l.177-.042c.106-.021.12-.035.12-.141,0-.134-.014-.155-.092-.155-.042,0-.141.014-.24.028l-.24.05a2.037,2.037,0,0,1-.339.035,1.424,1.424,0,0,1-.184-.014c-.028-.007-.106-.021-.24-.05l-.212-.043a.716.716,0,0,0-.113-.014c-.064,0-.092.028-.092.12,0,.113.007.134.021.148s.021.014.134.05c.254.064.283.1.3.375l.007.261Zm4.883,0,.057,1.2a3.886,3.886,0,0,0,.375,1.936,1.688,1.688,0,0,0,1.476.735,1.571,1.571,0,0,0,1.4-.692,3.431,3.431,0,0,0,.438-1.773l.042-.9c.021-.339.028-.572.028-.706.007-.233.035-.318.127-.375a.908.908,0,0,1,.233-.078c.113-.021.12-.028.12-.141,0-.134-.007-.148-.085-.148a.543.543,0,0,0-.1.007,1.566,1.566,0,0,0-.155.021l-.191.05a.778.778,0,0,1-.184.021,1.081,1.081,0,0,1-.318-.049,2.1,2.1,0,0,0-.332-.057c-.085,0-.113.028-.113.12v.021l.007.064c0,.057.028.078.113.092.212.035.318.1.353.184a2.733,2.733,0,0,1,.049.692c0,.551-.021,1.251-.057,1.752a2.909,2.909,0,0,1-.163.784,1.126,1.126,0,0,1-1.095.763c-.735,0-1.18-.523-1.272-1.5-.043-.466-.078-1.293-.078-1.83s.007-.622.071-.685a.443.443,0,0,1,.247-.113l.177-.042c.106-.021.12-.035.12-.141,0-.134-.014-.155-.092-.155-.042,0-.141.014-.24.028l-.24.05a2.039,2.039,0,0,1-.339.035,1.422,1.422,0,0,1-.184-.014c-.028-.007-.106-.021-.24-.05l-.212-.043a.716.716,0,0,0-.113-.014c-.064,0-.092.028-.092.12,0,.113.007.134.021.148s.021.014.135.05c.254.064.283.1.3.375l.007.261Z" transform="translate(-1134.414 -782.897)" fill="#fff"/><path d="M3327.72,804.13l.3,2.442a3.88,3.88,0,0,1,.05.486c0,.2-.092.283-.4.332-.134.028-.162.05-.162.112v.043l.007.092c0,.05.028.071.1.071a.123.123,0,0,0,.05-.007.875.875,0,0,0,.155-.021l.191-.05c.042-.007.113-.021.2-.028a1.267,1.267,0,0,1,.212-.021h.021a1.22,1.22,0,0,1,.346.057,1.7,1.7,0,0,0,.367.064c.092,0,.114-.028.114-.134,0-.133-.007-.147-.106-.168l-.163-.043a.292.292,0,0,1-.254-.24,3.583,3.583,0,0,1-.106-.6l-.452-3.429c-.014-.155-.042-.191-.148-.191-.134,0-.148.014-.233.184l-1.738,3.555-1.915-3.541c-.1-.184-.113-.2-.184-.2h-.035l-.106.014a.081.081,0,0,0-.05.064c0,.014-.007.092-.021.239l-.3,3.282-.042.38a.828.828,0,0,1-.085.388.525.525,0,0,1-.268.127c-.134.021-.148.043-.148.14,0,.134.021.162.113.162a.878.878,0,0,0,.219-.035l.2-.049a1.075,1.075,0,0,1,.226-.021h.028a.928.928,0,0,1,.332.057,1.073,1.073,0,0,0,.3.05c.113,0,.134-.021.134-.127,0-.126-.007-.147-.085-.161l-.148-.028c-.29-.057-.388-.184-.388-.509,0-.043.007-.078.007-.12l.021-.274.177-2.322,1.674,3.133.092.175a.138.138,0,0,0,.134.071.2.2,0,0,0,.1-.028.115.115,0,0,0,.05-.048c.007-.021.042-.085.092-.184l1.533-3.14Zm6.211-1.156-.127-.014-.445-.042c-.184-.014-.353-.021-.516-.021a1.283,1.283,0,0,0-1.462,1.307,1.046,1.046,0,0,0,.367.841,3.546,3.546,0,0,0,.982.558c.572.283.763.509.763.911,0,.53-.381.862-1,.862-.53,0-.791-.191-.883-.643-.035-.141-.078-.184-.2-.184s-.155.035-.155.141v.113l.049.784c.042.007.078.007.1.014.042.007.17.021.382.043a5.183,5.183,0,0,0,.7.063,1.438,1.438,0,0,0,1.618-1.356,1.172,1.172,0,0,0-.346-.848,3.82,3.82,0,0,0-.933-.572c-.5-.247-.636-.339-.742-.523a.747.747,0,0,1-.1-.4c0-.509.325-.8.9-.8a.741.741,0,0,1,.579.184,1.417,1.417,0,0,1,.148.4c.021.106.057.134.17.134s.162-.042.162-.17v-.141l-.014-.643Zm2.445,2.8-.007.989a1.224,1.224,0,0,1-.057.452c-.035.07-.155.127-.382.17-.141.028-.169.05-.169.113v.085c0,.092.021.106.12.106a2.01,2.01,0,0,0,.269-.028l.183-.043a2.016,2.016,0,0,1,.361-.042,2.554,2.554,0,0,1,.558.085,1.848,1.848,0,0,0,.226.035c.1,0,.12-.028.12-.134,0-.141-.007-.148-.106-.162l-.155-.035c-.212-.042-.311-.127-.332-.275-.007-.071-.021-.24-.021-.353v-.961l1.364-2.155.1-.163c.078-.12.113-.162.177-.191a.983.983,0,0,1,.226-.064c.12-.028.141-.05.141-.12v-.035l-.007-.092c-.007-.042-.05-.057-.162-.057a.538.538,0,0,0-.17.035,1.945,1.945,0,0,1-.368.057,1.293,1.293,0,0,1-.346-.057,1.354,1.354,0,0,0-.247-.035c-.1,0-.12.028-.12.148s.014.141.113.155c.247.043.332.078.332.141a.234.234,0,0,1-.035.113c-.014.028-.071.113-.155.254l-1.01,1.632-1.166-1.794c-.085-.127-.113-.184-.113-.226,0-.064.056-.085.268-.12.106-.021.135-.05.135-.148,0-.127-.021-.155-.12-.155-.021,0-.042.007-.057.007a2.042,2.042,0,0,0-.2.028l-.233.05a.849.849,0,0,1-.2.014,1.48,1.48,0,0,1-.2-.014l-.219-.057a1.41,1.41,0,0,0-.24-.028c-.084,0-.106.021-.106.113v.021l.007.085c0,.05.029.064.12.085.028.007.063.014.106.028a.377.377,0,0,1,.092.042.424.424,0,0,1,.148.148l.106.155,1.448,2.2Zm5.356-2.8-.127-.014-.445-.042c-.184-.014-.353-.021-.516-.021a1.283,1.283,0,0,0-1.462,1.307,1.045,1.045,0,0,0,.368.841,3.547,3.547,0,0,0,.982.558c.573.283.763.509.763.911,0,.53-.381.862-1,.862-.53,0-.791-.191-.883-.643-.035-.141-.078-.184-.2-.184s-.156.035-.156.141v.113l.05.784c.042.007.078.007.1.014.042.007.17.021.382.043a5.183,5.183,0,0,0,.7.063,1.438,1.438,0,0,0,1.618-1.356,1.173,1.173,0,0,0-.346-.848,3.825,3.825,0,0,0-.933-.572c-.5-.247-.636-.339-.742-.523a.744.744,0,0,1-.1-.4c0-.509.325-.8.9-.8a.742.742,0,0,1,.58.184,1.417,1.417,0,0,1,.148.4c.021.106.057.134.17.134s.162-.042.162-.17v-.141l-.014-.643Zm3.018.346h.933c.388,0,.537.042.657.2.035.05.05.056.1.056s.092-.021.1-.042l.014-.05.014-.042.127-.537c0-.028.007-.05.007-.07s-.028-.043-.092-.043a.176.176,0,0,0-.1.028l-.106.057a1.252,1.252,0,0,1-.537.071h-2.77c-.374,0-.459-.007-.572-.078l-.057-.035a.162.162,0,0,0-.078-.021c-.057,0-.092.035-.113.106l-.135.593a.055.055,0,0,0-.007.035c0,.05.014.064.056.064a.457.457,0,0,0,.191-.057l.134-.092a1.1,1.1,0,0,1,.636-.141h.968v3.462a.925.925,0,0,1-.05.4.258.258,0,0,1-.1.113,1.128,1.128,0,0,1-.353.1c-.12.021-.141.035-.141.141,0,.148.014.162.12.162a2.362,2.362,0,0,0,.375-.057,1.759,1.759,0,0,1,.466-.071,1.884,1.884,0,0,1,.459.071,1.874,1.874,0,0,0,.375.05c.092,0,.113-.021.113-.127v-.014l-.007-.085a.025.025,0,0,0-.007-.021.088.088,0,0,0-.014-.021l-.042-.021a1.142,1.142,0,0,0-.135-.021c-.353-.07-.431-.162-.431-.509V803.32Zm3.208-.021h.805c.261,0,.3.007.368.05a.383.383,0,0,1,.134.283c.021.155.063.2.177.2s.17-.049.17-.141a3.682,3.682,0,0,0-.035-.417,2.159,2.159,0,0,1-.021-.268V803c0-.05,0-.057-.05-.057h-.042c-.092,0-.2,0-.325.007-.346.007-.82.014-1.187.014s-.685-.007-.918-.028c-.085-.007-.156-.014-.2-.014s-.078.028-.078.113v.113c0,.05.035.064.135.078l.2.021c.226.028.254.07.254.353v3.307c0,.417-.056.473-.516.5-.092.007-.12.035-.12.127,0,.148.014.17.134.17.042,0,.078-.007.12-.007a8.614,8.614,0,0,1,1.116-.064c.127,0,.332,0,.636.014.283.007.488.014.607.021.29.021.466.028.537.028h.056c.028-.127.035-.169.071-.318.05-.219.063-.3.12-.495a.224.224,0,0,0,.014-.092c0-.071-.049-.106-.148-.106h-.014a.179.179,0,0,0-.106.021c-.05.028-.063.057-.135.247-.092.283-.254.368-.678.368-.643,0-.813-.028-.94-.134a.341.341,0,0,1-.106-.212,3,3,0,0,1-.028-.488v-1.01h.968c.311,0,.4.064.438.3.007.057.021.092.043.1l.063.021a.245.245,0,0,0,.07.007c.106,0,.148-.042.148-.162,0-.028-.007-.078-.021-.219s-.022-.2-.022-.262v-.141c.007-.1.007-.17.015-.212a.815.815,0,0,0,.007-.12c0-.113-.035-.155-.148-.155a.141.141,0,0,0-.162.127l-.028.134c-.035.163-.135.219-.368.219h-1V803.3Zm7.129.831.3,2.442a3.864,3.864,0,0,1,.049.486c0,.2-.092.283-.4.332-.135.028-.162.05-.162.112v.043l.007.092c0,.05.029.071.1.071a.119.119,0,0,0,.049-.007.884.884,0,0,0,.156-.021l.191-.05c.042-.007.113-.021.2-.028a1.27,1.27,0,0,1,.212-.021h.021a1.223,1.223,0,0,1,.346.057,1.7,1.7,0,0,0,.367.064c.092,0,.113-.028.113-.134,0-.133-.007-.147-.106-.168l-.163-.043a.292.292,0,0,1-.254-.24,3.556,3.556,0,0,1-.106-.6l-.452-3.429c-.014-.155-.043-.191-.148-.191-.134,0-.148.014-.233.184l-1.738,3.555-1.915-3.541c-.1-.184-.113-.2-.184-.2h-.035l-.106.014a.079.079,0,0,0-.049.064c0,.014-.007.092-.021.239l-.3,3.282-.042.38a.831.831,0,0,1-.085.388.525.525,0,0,1-.268.127c-.135.021-.148.043-.148.14,0,.134.021.162.113.162a.876.876,0,0,0,.219-.035l.205-.049a1.074,1.074,0,0,1,.226-.021h.028a.925.925,0,0,1,.332.057,1.078,1.078,0,0,0,.3.05c.113,0,.134-.021.134-.127,0-.126-.007-.147-.085-.161l-.148-.028c-.29-.057-.389-.184-.389-.509,0-.043.007-.078.007-.12l.021-.274.177-2.322,1.674,3.133.092.175a.138.138,0,0,0,.134.071.2.2,0,0,0,.1-.028.117.117,0,0,0,.05-.048c.007-.021.042-.085.092-.184l1.533-3.14Zm4.445-1.156-.127-.014-.445-.042c-.184-.014-.353-.021-.516-.021a1.283,1.283,0,0,0-1.463,1.307,1.045,1.045,0,0,0,.368.841,3.55,3.55,0,0,0,.982.558c.572.283.763.509.763.911,0,.53-.381.862-1,.862-.53,0-.791-.191-.883-.643-.035-.141-.078-.184-.2-.184s-.155.035-.155.141v.113l.05.784c.042.007.078.007.1.014q.064.011.382.043a5.191,5.191,0,0,0,.7.064,1.438,1.438,0,0,0,1.618-1.357,1.172,1.172,0,0,0-.346-.848,3.811,3.811,0,0,0-.933-.572c-.5-.247-.636-.339-.742-.523a.747.747,0,0,1-.1-.4c0-.509.325-.8.9-.8a.742.742,0,0,1,.58.184,1.417,1.417,0,0,1,.148.4c.021.106.056.134.169.134s.162-.042.162-.17v-.141l-.014-.643Z" transform="translate(-3226.062 -779.392)" fill="#fff"/><path d="M1156.673,46.767h2.877c.934,0,1.06.025,1.312.177a1.363,1.363,0,0,1,.48,1.01c.076.555.227.732.631.732s.606-.177.606-.5a13.229,13.229,0,0,0-.126-1.489,7.561,7.561,0,0,1-.076-.959v-.025c0-.177,0-.2-.177-.2h-.151c-.328,0-.732,0-1.161.025-1.237.025-2.928.05-4.24.05-1.338,0-2.448-.025-3.281-.1-.3-.025-.555-.05-.732-.05-.227,0-.278.1-.278.4v.4c0,.177.126.227.479.278l.707.076c.808.1.908.252.908,1.262V59.664c0,1.489-.2,1.691-1.842,1.792-.328.025-.429.126-.429.454,0,.53.05.606.48.606.151,0,.277-.025.429-.025a30.654,30.654,0,0,1,3.988-.227c.454,0,1.186,0,2.272.05,1.01.025,1.741.05,2.17.076,1.035.076,1.666.1,1.918.1h.2c.1-.454.126-.606.252-1.136.177-.782.227-1.06.429-1.767a.8.8,0,0,0,.05-.328q0-.379-.53-.379h-.05a.652.652,0,0,0-.379.076c-.177.1-.227.2-.479.883-.328,1.01-.909,1.312-2.423,1.312-2.3,0-2.9-.1-3.357-.479a1.211,1.211,0,0,1-.379-.757,10.724,10.724,0,0,1-.1-1.741V54.566h3.458c1.11,0,1.439.227,1.565,1.06.025.2.076.328.151.353l.227.076a.855.855,0,0,0,.252.025c.379,0,.53-.152.53-.581,0-.1-.025-.278-.076-.782s-.076-.732-.076-.934v-.5c.025-.353.025-.606.05-.757a2.9,2.9,0,0,0,.025-.429c0-.4-.126-.555-.53-.555a.505.505,0,0,0-.581.454l-.1.479c-.126.581-.479.782-1.312.782h-3.584V46.767Zm17.45,12.392-4.392-10.474a6.157,6.157,0,0,1-.631-1.817c0-.2.252-.328.959-.48.328-.05.379-.126.379-.479,0-.5-.05-.581-.429-.581a9.39,9.39,0,0,0-1.06.151c-.328.1-.555.126-.631.152a4.9,4.9,0,0,1-.631.05,5.82,5.82,0,0,1-1.59-.227,3.265,3.265,0,0,0-.732-.1c-.353,0-.4.05-.4.454v.3c0,.151.1.227.328.3.732.177.883.252,1.06.5a9.37,9.37,0,0,1,.833,1.666l5.805,13.25.252.631a.422.422,0,0,0,.429.252h.076a1.261,1.261,0,0,0,.3-.076c.076-.05.1-.126.328-.656l5.906-13.73c.681-1.565.833-1.741,1.691-1.868.227-.025.278-.126.278-.429,0-.53-.05-.606-.353-.606a3.9,3.9,0,0,0-.732.1,6.589,6.589,0,0,1-1.464.227,5.755,5.755,0,0,1-1.186-.177,4.087,4.087,0,0,0-1.11-.151c-.277,0-.379.075-.379.4,0,.53.05.606.4.656l.48.1c.631.1.959.4.959.808a2.61,2.61,0,0,1-.227.959l-4.518,10.878Zm13.311-12.392h2.877c.934,0,1.06.025,1.312.177a1.364,1.364,0,0,1,.48,1.01c.075.555.227.732.631.732s.606-.177.606-.5a13.241,13.241,0,0,0-.126-1.489,7.581,7.581,0,0,1-.076-.959v-.025c0-.177,0-.2-.177-.2h-.151c-.328,0-.732,0-1.161.025-1.237.025-2.928.05-4.24.05-1.338,0-2.448-.025-3.281-.1-.3-.025-.555-.05-.732-.05-.227,0-.278.1-.278.4v.4c0,.177.126.227.479.278l.707.076c.808.1.908.252.908,1.262V59.664c0,1.489-.2,1.691-1.842,1.792-.328.025-.429.126-.429.454,0,.53.05.606.48.606.151,0,.277-.025.429-.025a30.653,30.653,0,0,1,3.988-.227c.454,0,1.186,0,2.272.05,1.01.025,1.742.05,2.171.076,1.035.076,1.666.1,1.918.1h.2c.1-.454.126-.606.252-1.136.177-.782.227-1.06.429-1.767a.8.8,0,0,0,.05-.328q0-.379-.53-.379h-.05a.652.652,0,0,0-.379.076c-.177.1-.227.2-.479.883-.328,1.01-.908,1.312-2.423,1.312-2.3,0-2.9-.1-3.357-.479a1.212,1.212,0,0,1-.379-.757,10.724,10.724,0,0,1-.1-1.741V54.566h3.458c1.11,0,1.439.227,1.565,1.06.025.2.076.328.152.353l.227.076a.855.855,0,0,0,.252.025c.379,0,.53-.152.53-.581,0-.1-.025-.278-.076-.782s-.076-.732-.076-.934v-.5c.025-.353.025-.606.05-.757a2.9,2.9,0,0,0,.025-.429c0-.4-.126-.555-.53-.555a.505.505,0,0,0-.581.454l-.1.479c-.126.581-.479.782-1.312.782h-3.584V46.767Zm18.687,7.193a5.211,5.211,0,0,0,2.8-4.543c0-2.524-1.641-3.937-4.543-3.937-.48,0-1.035.025-1.666.05-.934.076-1.489.076-2.044.076-.4,0-.808,0-1.11-.025-.152-.025-.4-.05-.808-.1l-.833-.1c-.151,0-.278-.025-.379-.025-.227,0-.3.1-.3.454,0,.328.025.429.076.479.05.076.126.076.353.126.883.177,1.186.278,1.388.555.252.328.277.53.277,2.07v9.187a6.694,6.694,0,0,1-.2,2.524,1.116,1.116,0,0,1-.732.479l-.631.126c-.454.1-.555.177-.555.53,0,.479.076.581.379.581a10.972,10.972,0,0,0,1.514-.227,4.912,4.912,0,0,1,1.363-.227,6.984,6.984,0,0,1,1.439.227,6.729,6.729,0,0,0,1.11.227.855.855,0,0,0,.252.025c.328,0,.4-.1.4-.53,0-.454-.05-.5-.53-.581-.908-.1-1.388-.429-1.489-1.035a8.683,8.683,0,0,1-.126-2.019V54.794h.429c.732,0,1.388-.025,1.943-.076l3.23,4.417c1.666,2.246,2.8,3.231,4.164,3.533a5.882,5.882,0,0,0,1.338.151c.5,0,.682-.075.682-.277,0-.152-.1-.227-.555-.454-.53-.277-1.59-1.489-3.508-4.013l-3.13-4.114Zm-4.593-.3V47.373c0-.53.05-.606.3-.631a9.673,9.673,0,0,1,.984-.05c1.439,0,1.868.1,2.524.606a2.885,2.885,0,0,1,.934,1.237,3.97,3.97,0,0,1,.252,1.464c0,2.423-1.363,3.71-3.937,3.71-.328,0-.53-.025-1.06-.05Zm16.667-6.89h2.877c.934,0,1.06.025,1.312.177a1.363,1.363,0,0,1,.48,1.01c.076.555.227.732.631.732s.606-.177.606-.5a13.216,13.216,0,0,0-.126-1.489,7.561,7.561,0,0,1-.076-.959v-.025c0-.177,0-.2-.177-.2h-.152c-.328,0-.732,0-1.161.025-1.237.025-2.928.05-4.24.05-1.338,0-2.448-.025-3.281-.1-.3-.025-.555-.05-.732-.05-.227,0-.278.1-.278.4v.4c0,.177.126.227.479.278l.707.076c.808.1.909.252.909,1.262V59.664c0,1.489-.2,1.691-1.842,1.792-.328.025-.429.126-.429.454,0,.53.05.606.48.606.151,0,.277-.025.429-.025a30.652,30.652,0,0,1,3.988-.227c.454,0,1.186,0,2.272.05,1.01.025,1.741.05,2.17.076,1.035.076,1.666.1,1.918.1h.2c.1-.454.126-.606.252-1.136.177-.782.227-1.06.429-1.767a.8.8,0,0,0,.051-.328q0-.379-.53-.379h-.05a.652.652,0,0,0-.379.076c-.177.1-.227.2-.479.883-.328,1.01-.908,1.312-2.423,1.312-2.3,0-2.9-.1-3.357-.479a1.212,1.212,0,0,1-.379-.757,10.708,10.708,0,0,1-.1-1.741V54.567h3.458c1.11,0,1.439.227,1.565,1.06.025.2.076.328.151.353l.227.076a.855.855,0,0,0,.252.025c.378,0,.53-.152.53-.581,0-.1-.025-.278-.076-.782s-.076-.732-.076-.934v-.5c.026-.353.026-.606.05-.757a2.885,2.885,0,0,0,.026-.429c0-.4-.126-.555-.53-.555a.505.505,0,0,0-.581.454l-.1.479c-.126.581-.479.782-1.312.782H1218.2V46.768Zm19.6-1.161-.454-.05-1.59-.152c-.656-.05-1.262-.075-1.842-.075-3.256,0-5.224,1.767-5.224,4.669a3.735,3.735,0,0,0,1.312,3c.757.656.959.757,3.508,1.994,2.044,1.01,2.726,1.817,2.726,3.256,0,1.893-1.363,3.079-3.559,3.079-1.893,0-2.827-.681-3.155-2.3-.126-.5-.278-.656-.707-.656-.4,0-.555.126-.555.5v.4l.177,2.8c.152.025.278.025.353.05q.227.038,1.363.152a18.513,18.513,0,0,0,2.5.227c3.407,0,5.78-1.994,5.78-4.846a4.189,4.189,0,0,0-1.237-3.029,13.607,13.607,0,0,0-3.331-2.044c-1.792-.883-2.271-1.211-2.65-1.868a2.664,2.664,0,0,1-.353-1.413c0-1.817,1.161-2.852,3.205-2.852a2.651,2.651,0,0,1,2.07.656,5.046,5.046,0,0,1,.53,1.414c.076.379.2.479.606.479.454,0,.581-.152.581-.606v-.5l-.051-2.3Zm11.645,1.237h3.331c1.388,0,1.918.152,2.347.707.126.177.177.2.353.2s.328-.076.353-.152l.051-.177.05-.152.454-1.918c0-.1.025-.177.025-.252,0-.1-.1-.152-.328-.152a.633.633,0,0,0-.353.1l-.379.2a4.479,4.479,0,0,1-1.918.252h-9.894c-1.338,0-1.641-.025-2.044-.277l-.2-.126a.576.576,0,0,0-.278-.076c-.2,0-.328.126-.4.379l-.479,2.12a.189.189,0,0,0-.025.126c0,.177.05.227.2.227a1.637,1.637,0,0,0,.682-.2l.479-.328a3.935,3.935,0,0,1,2.272-.5h3.458V59.21a3.329,3.329,0,0,1-.177,1.439.919.919,0,0,1-.353.4,4.011,4.011,0,0,1-1.262.353c-.429.076-.5.126-.5.5,0,.53.05.581.429.581a8.522,8.522,0,0,0,1.338-.2,6.274,6.274,0,0,1,1.666-.252,6.731,6.731,0,0,1,1.641.252,6.675,6.675,0,0,0,1.338.177c.328,0,.4-.076.4-.454v-.05l-.025-.3a.092.092,0,0,0-.025-.076.309.309,0,0,0-.05-.076l-.152-.076a3.838,3.838,0,0,0-.48-.076c-1.262-.252-1.54-.581-1.54-1.817v-12.7Z" transform="translate(-1118.599 -43.64)"/><path d="M501.384,121.57a1.872,1.872,0,1,1-1.872-1.872A1.872,1.872,0,0,1,501.384,121.57Zm-1.255-3.054a.616.616,0,1,1-.616-.616A.616.616,0,0,1,500.129,118.515Zm1.255-3.013a1.872,1.872,0,1,1-1.872-1.872A1.872,1.872,0,0,1,501.384,115.5Z" transform="translate(-483.136 -110.318)" fill="#fff" fill-rule="evenodd"/><path d="M395.412,547.53a1.872,1.872,0,1,1-1.872,1.872A1.872,1.872,0,0,1,395.412,547.53Z" transform="translate(-382.07 -531.572)" fill="#fff" fill-rule="evenodd"/></g></g></svg>