<svg xmlns="http://www.w3.org/2000/svg" width="98.5" height="42.136" viewBox="0 0 98.5 42.136"><path d="M2290.2,3175c-1.467-1.965-4.192-3.7-8.64-3.7a14.911,14.911,0,0,0-10.017,3.7c-3.265,2.832-4.622,6.242-5.676,11.674-1.068,5.488-1.038,8.9,1.129,11.73,1.466,1.965,4.132,3.7,8.579,3.7a15.085,15.085,0,0,0,10.077-3.7c3.264-2.831,4.619-6.242,5.686-11.73,1.055-5.432,1.026-8.842-1.14-11.674Zm-6.37,11.674c-.605,3.119-1.3,5.777-3.16,7.339a5.69,5.69,0,0,1-3.782,1.327,3.81,3.81,0,0,1-3.208-1.327c-1.257-1.561-.913-4.219-.307-7.339s1.284-5.721,3.147-7.282a5.539,5.539,0,0,1,3.724-1.329,3.926,3.926,0,0,1,3.265,1.329c1.259,1.561.928,4.161.321,7.282Zm-26.668,6.01,6.232-32.072h-7.509l-6.321,32.535c-.832,4.275.926,8.611,7.107,8.611h4.274l1.235-6.357h-2.889c-1.906,0-2.477-.927-2.129-2.717Zm-28.964-21.036-7.518,18.607-2.566-18.607h-5.871l-9.738,18.607-1.237-18.607h-7.749l3.17,30.109h6.565l9.968-18.9,2.625,18.9h6.565L2233.223,3178h2.336c1.907-.008,2.481.913,2.142,2.706l-4.047,21.072h7.508l4.135-21.568c.812-4.28-.964-8.606-7.144-8.578l-9.953.019h0Z" transform="translate(-2193.521 -3159.964)" fill="#009c82"/><path d="M2523.293,3165.082a4.557,4.557,0,1,0-4.554-4.558,4.558,4.558,0,0,0,4.554,4.558Z" transform="translate(-2473.536 -3155.968)" fill="#009c82"/></svg>