<svg xmlns="http://www.w3.org/2000/svg" width="136" height="36" viewBox="0 0 159.93 42.811"><path d="M3048.938-367.1h5.013v5.37h4.74v-5.37h5.014v15.87h-5.014v-6.141h-4.74v6.141h-5.013Zm21.873,0h5.077l5.457,15.87h-4.971l-.612-2.112h-4.951l-.593,2.112h-4.865Zm.931,10.454h3.151l-1.607-5.677Zm8.672-10.454h5.057l2.687,10.543,2.77-10.543h5.034l-5.288,15.87h-5.034Zm17.6,0h12.438v3.7h-7.425v2.29h6.261v3.7h-6.261v2.488h7.722v3.7h-12.735Zm15.293,0h5.014v12.172h6.853v3.7h-11.867Zm14.13,0h5.013v12.172h6.855v3.7h-11.867Zm21.937,4.6q-.191-1.363-2.053-1.363c-.988,0-1.5.285-1.543.858a.983.983,0,0,0,.5.88,4.6,4.6,0,0,0,1.385.584q.867.232,1.671.429a9.364,9.364,0,0,1,3.956,1.782,3.873,3.873,0,0,1,1.249,3.1,4.851,4.851,0,0,1-.994,3.159,5.483,5.483,0,0,1-2.612,1.749,11.147,11.147,0,0,1-3.481.528,7.537,7.537,0,0,1-4.728-1.486,5.008,5.008,0,0,1-2.062-3.862h4.8a1.732,1.732,0,0,0,.878,1.32,3.109,3.109,0,0,0,1.47.374q1.839-.087,1.946-1.079a.981.981,0,0,0-.666-1.045,13.015,13.015,0,0,0-2.318-.76,19.749,19.749,0,0,1-3.129-1.035,4.72,4.72,0,0,1-1.915-1.574,4.519,4.519,0,0,1-.73-2.762,4.288,4.288,0,0,1,1.809-3.477,7.806,7.806,0,0,1,4.834-1.343,9.118,9.118,0,0,1,2.993.473,5.223,5.223,0,0,1,2.317,1.608,5.563,5.563,0,0,1,1.183,2.938h-4.759Z" transform="translate(-2994.607 380.56)" fill="#ed1c24"/><path d="M3154.514-499.466a2.805,2.805,0,0,1-.406-.028,2.249,2.249,0,0,1-1.816-1.42,3.125,3.125,0,0,1-.222-1.189,6.268,6.268,0,0,1,.275-1.659,14.233,14.233,0,0,1,2.442-5.338,4.274,4.274,0,0,1,.545-.541l.057-.04c.022-.019.045-.035.067-.051a1.729,1.729,0,0,1,1.011-.377c.777,0,1.6.71,2.327,2a20.3,20.3,0,0,1,1.9,5.644c.164.8.3,1.608.427,2.471-.338.023-.678.044-1.017.068-1.137.079-2.189.161-3.216.253-.505.046-1.01.094-1.513.145l-.119.012a7.214,7.214,0,0,1-.739.05" transform="translate(-3145.897 512.284)" fill="#f25746"/><path d="M3154.95-424.044h-.01a1.7,1.7,0,0,1-1.027-.4h0l-.01-.011-.026-.019-.022-.018-.025-.021c-.013-.009-.024-.02-.037-.028a4.159,4.159,0,0,1-.533-.563,14.606,14.606,0,0,1-2.323-5.688,8,8,0,0,1-.27-1.807,3.76,3.76,0,0,1,.217-1.279,2.544,2.544,0,0,1,1.765-1.686,2.873,2.873,0,0,1,.727-.087c.159,0,.322.01.517.029.5.051,1.037.1,1.582.148,1.088.095,2.225.182,3.383.26.408.028.819.053,1.228.08-.165,1.083-.355,2.085-.575,3.059a22.149,22.149,0,0,1-2.078,5.877c-.784,1.369-1.69,2.156-2.487,2.156" transform="translate(-3144.995 464.413)" fill="#ba151b"/><path d="M3179.078-494.909a23.777,23.777,0,0,0-4.5-13.785,21.929,21.929,0,0,0-8.844-7.191,4.945,4.945,0,0,0-1.41-.308,2.329,2.329,0,0,0-1.665,2.033,3.867,3.867,0,0,0-.057.809c-.034.532-.064,1.09-.094,1.7-.01.1-.011.256-.017.44-.027.686-.066,1.723-.135,2.125-.609,3.5-4.142,5.724-7.2,5.845-2.089.081-4.139.191-6.094.325-1.085.077-2.161.161-3.2.253-.5.045-1,.092-1.5.143l-.116.012a8.06,8.06,0,0,1-.834.056,3.578,3.578,0,0,1-.54-.037,3.171,3.171,0,0,1-2.54-1.99,4.02,4.02,0,0,1-.29-1.539,7.216,7.216,0,0,1,.309-1.909,23.3,23.3,0,0,1,1.156-3.276,23.182,23.182,0,0,0-4.354,6.178,23.949,23.949,0,0,0-2.359,9.894v.453a23.355,23.355,0,0,0,6.158,15.915,23.331,23.331,0,0,1-1.11-3.6,8.764,8.764,0,0,1-.294-2.02,4.7,4.7,0,0,1,.269-1.588,3.437,3.437,0,0,1,2.407-2.273,3.661,3.661,0,0,1,.96-.118,6.035,6.035,0,0,1,.61.033c.5.05,1.013.1,1.57.146,1.07.095,2.2.181,3.363.259,2.036.138,4.18.248,6.374.33a8.216,8.216,0,0,1,4.834,1.9,7.181,7.181,0,0,1,2.612,4.52c.048.357.1,1.381.131,2.127.012.245.02.448.027.564.049.858.1,1.613.154,2.308v0c.023.3.046.581.069.84a2.261,2.261,0,0,0,1.566,1.9,1.74,1.74,0,0,0,.827-.014c.222-.1.444-.191.663-.292a22.142,22.142,0,0,0,8.713-7.274,23.9,23.9,0,0,0,4.4-13.78v-.117Z" transform="translate(-3134.785 516.199)" fill="#ed1c24"/></svg>