<svg xmlns="http://www.w3.org/2000/svg" width="58.551" height="58.565" viewBox="0 0 58.551 58.565"><g transform="translate(-0.5 511.626)"><path d="M11.156-511.543c-.183.057-2.509,1.2-5.156,2.544-4.5,2.269-4.835,2.463-5.156,2.922l-.344.5v51.034l.309.47a3.014,3.014,0,0,0,.745.733l.435.275H57.573l.47-.309a3.014,3.014,0,0,0,.733-.745l.275-.435v-38.167l-.309-.47A3.013,3.013,0,0,0,58-493.92l-.435-.275H41.347l-.435.275a3.013,3.013,0,0,0-.745.733l-.309.458-.034,3.827-.034,3.816H33.871l-.023-10.232-.034-10.221-.275-.435a3.012,3.012,0,0,0-.733-.745,1.707,1.707,0,0,0-1.215-.309c-.756.011-.768.023-5.741,2.521-4.675,2.36-5.007,2.555-5.328,3.013l-.344.5-.034,7.952-.034,7.952H14.192L14.17-497.61l-.034-12.524-.309-.47a2.984,2.984,0,0,0-.71-.71A2.837,2.837,0,0,0,11.156-511.543Zm-1.547,16.2v10.255H5.026v-18.276l2.211-1.111c1.2-.607,2.234-1.111,2.292-1.111S9.609-500.979,9.609-495.341Zm19.679,2.292v7.963H24.7v-13.692l2.211-1.111c1.2-.607,2.234-1.111,2.292-1.111S29.288-497.426,29.288-493.05Zm25.237,19.421v16.041H24.716l-.034-8.4-.034-8.387-.275-.435a3.013,3.013,0,0,0-.733-.745l-.47-.309H11.145l-.47.309a3.013,3.013,0,0,0-.733.745l-.275.435-.034,8.387-.034,8.4H5.026V-480.5l18.911-.023,18.9-.034.435-.275a3.015,3.015,0,0,0,.745-.733l.309-.458.034-3.827.034-3.816h10.13Zm-34.4,9.167v6.875H14.192v-13.75h5.929Z" fill="#1bdf7d"/><path d="M237.636-199.679a2.574,2.574,0,0,0-1.4,1.478,21.54,21.54,0,0,0-.092,3.254l.034,2.784.309.458a2.06,2.06,0,0,0,1.925,1.008,2.06,2.06,0,0,0,1.925-1.008l.309-.47v-3.036c0-3.013,0-3.048-.275-3.483A2.462,2.462,0,0,0,237.636-199.679Z" transform="translate(-204.601 -276.115)" fill="#1bdf7d"/><path d="M317.636-199.679a2.574,2.574,0,0,0-1.4,1.478,21.531,21.531,0,0,0-.092,3.254l.034,2.784.309.458a2.06,2.06,0,0,0,1.925,1.008,2.06,2.06,0,0,0,1.925-1.008l.309-.47v-3.036c0-3.013,0-3.048-.275-3.483A2.462,2.462,0,0,0,317.636-199.679Z" transform="translate(-274.089 -276.115)" fill="#1bdf7d"/></g></svg>