<svg xmlns="http://www.w3.org/2000/svg" width="24.756" height="24.757" viewBox="0 0 24.756 24.757"><path d="M263.583,7456.478a3.474,3.474,0,0,1-2.43,1.744c-.647.138-1.492.248-4.336-.928-3.195-1.324-7.631-6.04-7.631-9.171,0-1.6.921-3.467,2.531-3.467.775,0,.946.025,1.2.632.3.718,1.026,2.5,1.113,2.674.358.755-.364,1.188-.888,1.831a.592.592,0,0,0-.145.78,10.95,10.95,0,0,0,2.008,2.487,9.1,9.1,0,0,0,2.9,1.795.774.774,0,0,0,.873-.136,14.108,14.108,0,0,0,.968-1.287.688.688,0,0,1,.888-.26,24.736,24.736,0,0,1,3.156,1.584,3.073,3.073,0,0,1-.21,1.721M256.38,7439h-.006A12.394,12.394,0,0,0,244,7451.378a12.257,12.257,0,0,0,2.357,7.254l-1.542,4.6,4.757-1.522a12.243,12.243,0,0,0,6.809,2.042,12.378,12.378,0,0,0,0-24.757" transform="translate(-244 -7439)" fill="#1bdf7d" fill-rule="evenodd"/></svg>