<svg xmlns="http://www.w3.org/2000/svg" width="21.396" height="18" viewBox="0 0 21.396 18"><g transform="translate(0 0)"><g transform="translate(0)"><path d="M21.4,50.131a8.9,8.9,0,0,1-2.527.717,4.492,4.492,0,0,0,1.93-2.51,8.587,8.587,0,0,1-2.782,1.1A4.327,4.327,0,0,0,14.813,48a4.465,4.465,0,0,0-4.384,4.543,4.836,4.836,0,0,0,.1,1.036A12.281,12.281,0,0,1,1.49,48.828a4.7,4.7,0,0,0-.6,2.3A4.593,4.593,0,0,0,2.838,54.9a4.219,4.219,0,0,1-1.982-.559v.05A4.526,4.526,0,0,0,4.37,58.851,4.237,4.237,0,0,1,3.22,59a3.75,3.75,0,0,1-.83-.078,4.451,4.451,0,0,0,4.1,3.164A8.624,8.624,0,0,1,1.05,64.024,7.938,7.938,0,0,1,0,63.962,12.044,12.044,0,0,0,6.729,66c8.072,0,12.485-6.923,12.485-12.924,0-.2-.007-.395-.016-.587A8.928,8.928,0,0,0,21.4,50.131Z" transform="translate(0 -48)" fill="#fff"/></g></g></svg>