<svg xmlns="http://www.w3.org/2000/svg" xmlns:xlink="http://www.w3.org/1999/xlink" width="189.546" height="44.5" viewBox="0 0 189.546 44.5"><defs><clipPath id="a"><path d="M19.259,0l9.635,5.562,9.635,5.562v22.25l-9.635,5.562L19.259,44.5,9.625,38.937-.01,33.374V11.124L9.625,5.562,19.259,0Z" transform="translate(0.01 0)" fill="#fff" clip-rule="evenodd"/></clipPath></defs><g transform="translate(0.01)"><g transform="translate(9.99 0)" clip-path="url(#a)"><g transform="translate(-2.586 0.394)"><path d="M-19.87,33.609A21.9,21.9,0,0,1-4.838,20.6L2.74,33.609H-19.87Z" transform="translate(21.468 -19.969)" fill="#fff" fill-rule="evenodd"/><path d="M-47.787,344.079A21.755,21.755,0,0,1-52,331.179a21.843,21.843,0,0,1,.857-6.079h14.41l-11.054,18.978Z" transform="translate(52 -309.323)" fill="#fff" fill-rule="evenodd"/><path d="M81.96,506.473a22.092,22.092,0,0,1-2.815.18,21.8,21.8,0,0,1-16.135-7.114l7.848-12.779,11.1,19.713Z" transform="translate(-57.289 -462.941)" fill="#fff" fill-rule="evenodd"/><path d="M364.609,622.06a21.9,21.9,0,0,1-14.978,12.568L342.31,622.06Z" transform="translate(-322.696 -591.511)" fill="#fff" fill-rule="evenodd"/><path d="M332.351,7.92a21.8,21.8,0,0,1,16.241,7.232l-7.6,12.433L329.47,8.109A22.1,22.1,0,0,1,332.351,7.92Z" transform="translate(-310.495 -7.92)" fill="#fff" fill-rule="evenodd"/><path d="M520.61,210.209h14.229a21.9,21.9,0,0,0-3.106-19.309L520.61,210.209Z" transform="translate(-492.127 -181.798)" fill="#fff" fill-rule="evenodd"/></g></g><path d="M19.269,0,28.9,5.562l9.635,5.563v22.25L28.9,38.938,19.269,44.5,9.635,38.938,0,33.375V11.125L9.635,5.562Z" transform="translate(-0.01 0)" fill="none" fill-rule="evenodd"/><path d="M1196.4,80.677q-.7,0-.482-.7l9.119-27.534a.682.682,0,0,1,.7-.482h7.8a.682.682,0,0,1,.7.482l9.163,27.534q.175.7-.482.7h-6.577a.64.64,0,0,1-.7-.482l-4.428-15.871q-.439-1.578-.833-3.157t-.745-3.113h-.088q-.351,1.578-.745,3.157t-.833,3.157l-4.341,15.784a.647.647,0,0,1-.7.526H1196.4Zm7.453-5.129,1.14-5.656h9.076l1.184,5.656h-11.4Z" transform="translate(-1136.385 -49.375)" fill="#fff"/><path d="M1795.844,80.668a.542.542,0,0,1-.614-.614V52.564a.542.542,0,0,1,.614-.614h18.239q.57,0,.57.614v5.042q0,.614-.57.614h-11.618v5.042h10.566q.57,0,.57.614v4.691q0,.614-.57.614h-10.566V74.4h11.618q.57,0,.57.614v5.042q0,.614-.57.614Z" transform="translate(-1705.939 -49.366)" fill="#fff"/><path d="M2276.054,80.668a.542.542,0,0,1-.614-.614V52.564a.542.542,0,0,1,.614-.614h18.239q.57,0,.57.614v5.042q0,.614-.57.614h-11.618v5.042h10.566q.57,0,.57.614v4.691q0,.614-.57.614h-10.566V74.4h11.618q.57,0,.57.614v5.042q0,.614-.57.614Z" transform="translate(-2162.262 -49.366)" fill="#fff"/><path d="M2750.375,71.15q-5.831,0-9.1-2.806t-3.267-8.681V52.955q0-5.963,3.267-8.769t9.1-2.806a17.251,17.251,0,0,1,7.146,1.315,8.965,8.965,0,0,1,4.253,3.7,8.742,8.742,0,0,1,.921,5.634.866.866,0,0,1-.2.438.526.526,0,0,1-.416.176h-6.051q-.57,0-.57-.658a4.2,4.2,0,0,0-1.14-3.179,6.458,6.458,0,0,0-7.695.131,5.735,5.735,0,0,0-1.382,4.275v6.094a5.735,5.735,0,0,0,1.382,4.275,5.285,5.285,0,0,0,3.836,1.337q2.807,0,3.946-1.293a4.187,4.187,0,0,0,1.052-3.091q0-.658.57-.658h6.006a.617.617,0,0,1,.658.614,9.254,9.254,0,0,1-1.074,5.634,9.114,9.114,0,0,1-4.231,3.7A16.7,16.7,0,0,1,2750.375,71.15Z" transform="translate(-2601.823 -39.322)" fill="#fff"/><path d="M3321.452,71.15q-6.138,0-9.295-2.894T3309,59.707V52.823q0-5.7,3.157-8.572t9.295-2.872q6.139,0,9.317,2.872t3.178,8.572v6.883q0,5.656-3.178,8.549T3321.452,71.15Zm0-6.313a5.055,5.055,0,0,0,3.968-1.447,6.052,6.052,0,0,0,1.293-4.165V53.305a6.052,6.052,0,0,0-1.293-4.165,5.057,5.057,0,0,0-3.968-1.447,5,5,0,0,0-3.924,1.447,6.049,6.049,0,0,0-1.293,4.165v5.919a6.052,6.052,0,0,0,1.293,4.165A5,5,0,0,0,3321.452,64.836Z" transform="translate(-3144.41 -39.322)" fill="#fff"/><path d="M1215.357,768.663c-.07,0-.1-.04-.083-.12l1.488-4.72a.117.117,0,0,1,.12-.083h1.293a.117.117,0,0,1,.12.083l1.488,4.72c.025.08,0,.12-.075.12h-1.1a.1.1,0,0,1-.105-.083l-.729-2.751q-.068-.271-.124-.534t-.116-.526h-.015c-.035.175-.073.351-.113.526s-.083.353-.128.534l-.714,2.743a.106.106,0,0,1-.113.09Zm1.24-.894.181-.947h1.465l.188.947Z" transform="translate(-1154.829 -725.749)" fill="#fff"/><path d="M1327.537,768.663c-.065,0-.1-.035-.1-.105v-4.712c0-.07.032-.105.1-.105h3.006c.06,0,.09.035.09.105v.842c0,.065-.03.1-.09.1h-1.909v.9h1.736c.06,0,.09.035.09.105v.781c0,.07-.03.105-.09.105h-1.736v.94h1.909c.06,0,.09.032.09.1v.842c0,.07-.03.105-.09.105Z" transform="translate(-1261.419 -725.749)" fill="#fff"/><path d="M1420.3,768.663c-.065,0-.1-.035-.1-.105v-4.712c0-.07.032-.105.1-.105h3.007c.06,0,.09.035.09.105v.842c0,.065-.03.1-.09.1h-1.909v.9h1.736c.06,0,.09.035.09.105v.781c0,.07-.03.105-.09.105h-1.736v.94h1.909c.06,0,.09.032.09.1v.842c0,.07-.03.105-.09.105Z" transform="translate(-1349.565 -725.749)" fill="#fff"/><path d="M1512.1,767.168a2.176,2.176,0,0,1-1.5-.474,1.862,1.862,0,0,1-.534-1.465v-1.2a1.874,1.874,0,0,1,.534-1.469,2.165,2.165,0,0,1,1.5-.477,2.726,2.726,0,0,1,1.169.225,1.482,1.482,0,0,1,.7.635,1.53,1.53,0,0,1,.146.959.167.167,0,0,1-.03.068.08.08,0,0,1-.068.03h-1.007c-.065,0-.095-.035-.09-.105a.787.787,0,0,0-.18-.568.81.81,0,0,0-.624-.206.841.841,0,0,0-.628.225,1,1,0,0,0-.222.722v1.112a1.009,1.009,0,0,0,.222.729.841.841,0,0,0,.628.225.7.7,0,0,0,.8-.774c0-.075.025-.113.09-.113h1.007c.06,0,.093.035.1.105a1.586,1.586,0,0,1-.165.959,1.517,1.517,0,0,1-.691.635,2.65,2.65,0,0,1-1.158.225Z" transform="translate(-1434.964 -724.172)" fill="#fff"/><path d="M1619.534,767.168a2.148,2.148,0,0,1-1.526-.489,1.88,1.88,0,0,1-.519-1.436v-1.233a1.89,1.89,0,0,1,.519-1.443,2.626,2.626,0,0,1,3.051,0,1.89,1.89,0,0,1,.519,1.443v1.233a1.88,1.88,0,0,1-.519,1.436A2.146,2.146,0,0,1,1619.534,767.168Zm0-1.052a.789.789,0,0,0,.639-.241,1.07,1.07,0,0,0,.2-.706v-1.09a1.067,1.067,0,0,0-.2-.71.8.8,0,0,0-.639-.237.811.811,0,0,0-.639.237,1.041,1.041,0,0,0-.21.71v1.09a1.043,1.043,0,0,0,.21.706A.8.8,0,0,0,1619.534,766.116Z" transform="translate(-1537.041 -724.172)" fill="#fff"/><path d="M1779.05,768.663c-.06,0-.09-.035-.09-.105v-3.773H1777.8c-.07,0-.105-.032-.105-.1v-.842a.093.093,0,0,1,.105-.105h3.532c.065,0,.1.035.1.105v.842a.086.086,0,0,1-.1.1h-1.165v3.773a.093.093,0,0,1-.105.105Z" transform="translate(-1689.272 -725.749)" fill="#fff"/><path d="M1877.348,768.663c-.065,0-.1-.035-.1-.105v-4.712c0-.07.032-.105.1-.105h1.661a2.19,2.19,0,0,1,1.465.4,1.493,1.493,0,0,1,.451,1.18,1.7,1.7,0,0,1-.2.853,1.059,1.059,0,0,1-.65.484v.015l1.112,1.864a.094.094,0,0,1,.011.09.08.08,0,0,1-.079.038H1880a.139.139,0,0,1-.12-.068l-.969-1.744h-.466v1.706c0,.07-.03.105-.09.105h-1.007Zm1.1-2.758h.564a.881.881,0,0,0,.537-.135.647.647,0,0,0,.015-.872.827.827,0,0,0-.53-.135h-.587V765.9Z" transform="translate(-1783.88 -725.749)" fill="#fff"/><path d="M1974.987,768.663c-.07,0-.1-.04-.083-.12l1.489-4.72a.117.117,0,0,1,.12-.083h1.293a.117.117,0,0,1,.12.083l1.488,4.72c.025.08,0,.12-.075.12h-1.1a.1.1,0,0,1-.105-.083l-.729-2.751q-.068-.271-.124-.534t-.116-.526h-.015q-.053.263-.113.526t-.128.534l-.714,2.743a.106.106,0,0,1-.113.09Zm1.24-.894.18-.947h1.466l.188.947Z" transform="translate(-1876.673 -725.749)" fill="#fff"/><path d="M2087.178,768.663c-.065,0-.1-.035-.1-.105v-4.712c0-.07.032-.105.1-.105h1.684a2.327,2.327,0,0,1,1.688.541,2.165,2.165,0,0,1,.552,1.616v.549a1.963,1.963,0,0,1-2.233,2.217h-1.691Zm1.1-1.037h.526a1.032,1.032,0,0,0,.834-.312,1.357,1.357,0,0,0,.263-.9v-.481a1.247,1.247,0,0,0-.267-.861,1.073,1.073,0,0,0-.838-.3h-.519v2.848Z" transform="translate(-1983.272 -725.749)" fill="#fff"/><path d="M2195.648,768.663c-.065,0-.1-.035-.1-.105v-4.712c0-.07.032-.105.1-.105h1.007c.061,0,.09.035.09.105v4.712c0,.07-.031.105-.09.105Z" transform="translate(-2086.346 -725.749)" fill="#fff"/><path d="M2249.867,768.644c-.065,0-.1-.035-.1-.105v-4.712c0-.07.032-.105.1-.105h1.262a.112.112,0,0,1,.113.075l.9,1.917q.105.211.21.447t.2.469q.09.233.15.421h.022q-.015-.2-.034-.466c-.012-.176-.022-.351-.03-.526s-.011-.328-.011-.459v-1.774c0-.07.033-.105.1-.105h.962c.065,0,.1.035.1.105v4.712c0,.07-.032.105-.1.105h-1.262a.12.12,0,0,1-.113-.075l-.872-1.841c-.065-.135-.131-.285-.2-.447s-.131-.323-.192-.481l-.165-.432h-.023q.015.21.026.477t.015.53q0,.263,0,.481v1.683a.093.093,0,0,1-.105.105h-.955Z" transform="translate(-2137.869 -725.73)" fill="#fff"/><path d="M2361.269,767.168a2.035,2.035,0,0,1-.943-.21,1.507,1.507,0,0,1-.643-.635,2.208,2.208,0,0,1-.233-1.071v-1.233a1.858,1.858,0,0,1,.537-1.458,2.168,2.168,0,0,1,1.5-.481,2.648,2.648,0,0,1,1.157.222,1.464,1.464,0,0,1,.669.6,1.359,1.359,0,0,1,.15.853c0,.065-.038.1-.1.1l-1.007-.007c-.055,0-.083-.035-.083-.1a.565.565,0,0,0-.177-.455.867.867,0,0,0-.6-.169.85.85,0,0,0-.639.225,1.012,1.012,0,0,0-.218.722v1.127a.975.975,0,0,0,.225.718.9.9,0,0,0,.654.222.881.881,0,0,0,.59-.177.631.631,0,0,0,.207-.507v-.2h-.774c-.065,0-.1-.035-.1-.105v-.6c0-.07.032-.1.1-.1h1.842c.06,0,.09.035.09.1V765.8q0,.293.015.612a5.26,5.26,0,0,0,.053.56.079.079,0,0,1-.015.083.113.113,0,0,1-.083.03h-.8a.082.082,0,0,1-.06-.022.176.176,0,0,1-.037-.075,1.1,1.1,0,0,1-.03-.222q-.007-.139-.022-.252h-.015a1.3,1.3,0,0,1-.259.331,1.17,1.17,0,0,1-.395.237,1.623,1.623,0,0,1-.564.087Z" transform="translate(-2242.094 -724.172)" fill="#fff"/><path d="M2526.1,768.663c-.065,0-.1-.035-.1-.105v-4.712c0-.07.032-.105.1-.105h1.51a2.1,2.1,0,0,1,1.465.428,1.646,1.646,0,0,1,.459,1.262,1.579,1.579,0,0,1-.473,1.229,2.085,2.085,0,0,1-1.443.432h-.421v1.465c0,.07-.03.105-.09.105H2526.1Zm1.1-2.593h.406a.851.851,0,0,0,.541-.15.588.588,0,0,0,.188-.488.628.628,0,0,0-.177-.507.844.844,0,0,0-.545-.146h-.413v1.293Z" transform="translate(-2400.359 -725.749)" fill="#fff"/><path d="M2622.777,768.663c-.065,0-.1-.035-.1-.105v-4.712c0-.07.032-.105.1-.105h1.661a2.19,2.19,0,0,1,1.465.4,1.492,1.492,0,0,1,.451,1.18,1.7,1.7,0,0,1-.2.853,1.059,1.059,0,0,1-.65.484v.015l1.112,1.864a.094.094,0,0,1,.011.09.08.08,0,0,1-.079.038h-1.12a.139.139,0,0,1-.121-.068l-.969-1.744h-.466v1.706c0,.07-.03.105-.09.105h-1.007Zm1.1-2.758h.563a.88.88,0,0,0,.537-.135.647.647,0,0,0,.015-.872.828.828,0,0,0-.53-.135h-.586V765.9Z" transform="translate(-2492.23 -725.749)" fill="#fff"/><path d="M2726.268,768.663c-.065,0-.1-.035-.1-.105v-4.712c0-.07.032-.105.1-.105h1.007c.06,0,.09.035.09.105v4.712c0,.07-.03.105-.09.105Z" transform="translate(-2590.572 -725.749)" fill="#fff"/><path d="M2774.574,768.663a.112.112,0,0,1-.113-.083L2773,763.86c-.02-.08,0-.12.075-.12h1.1a.11.11,0,0,1,.121.083l.7,2.714q.068.271.124.545t.1.552h.022q.045-.286.105-.56t.128-.553l.691-2.691a.106.106,0,0,1,.113-.09h1.09c.08,0,.11.04.09.12l-1.465,4.72a.105.105,0,0,1-.113.083Z" transform="translate(-2635.07 -725.749)" fill="#fff"/><path d="M2869.527,768.663c-.07,0-.1-.04-.083-.12l1.488-4.72a.117.117,0,0,1,.12-.083h1.293a.117.117,0,0,1,.12.083l1.488,4.72c.025.08,0,.12-.075.12h-1.1a.1.1,0,0,1-.105-.083l-.729-2.751q-.068-.271-.124-.534t-.116-.526h-.015q-.053.263-.113.526c-.04.176-.083.353-.128.534l-.714,2.743a.106.106,0,0,1-.113.09Zm1.24-.894.181-.947h1.465l.188.947Z" transform="translate(-2726.716 -725.749)" fill="#fff"/><path d="M2968.76,768.663c-.06,0-.09-.035-.09-.105v-3.773h-1.165c-.07,0-.105-.032-.105-.1v-.842a.093.093,0,0,1,.105-.105h3.532c.065,0,.1.035.1.105v.842a.086.086,0,0,1-.1.1h-1.165v3.773a.093.093,0,0,1-.105.105Z" transform="translate(-2819.802 -725.749)" fill="#fff"/><path d="M3067.058,768.663c-.065,0-.1-.035-.1-.105v-4.712c0-.07.032-.105.1-.105h3.006c.06,0,.09.035.09.105v.842c0,.065-.03.1-.09.1h-1.909v.9h1.736c.06,0,.09.035.09.105v.781c0,.07-.03.105-.09.105h-1.736v.94h1.909c.06,0,.09.032.09.1v.842c0,.07-.03.105-.09.105Z" transform="translate(-2914.41 -725.749)" fill="#fff"/><path d="M3214.877,768.663c-.065,0-.1-.035-.1-.105v-4.712c0-.07.032-.105.1-.105h1.022c.05,0,.075.035.075.105v3.773h1.781a.086.086,0,0,1,.1.1v.842c0,.07-.033.105-.1.105Z" transform="translate(-3054.877 -725.749)" fill="#fff"/><path d="M3300.677,768.663c-.065,0-.1-.035-.1-.105v-4.712c0-.07.032-.105.1-.105h1.007c.06,0,.09.035.09.105v4.712c0,.07-.031.105-.09.105Z" transform="translate(-3136.409 -725.749)" fill="#fff"/><path d="M3353.095,768.663a.093.093,0,0,1-.1-.105l.09-4.712a.093.093,0,0,1,.1-.105h1.15a.126.126,0,0,1,.12.075l1.1,2.458,1.112-2.458a.111.111,0,0,1,.113-.075h1.157c.06,0,.09.035.09.105l.1,4.712c0,.07-.032.105-.1.105h-.977a.093.093,0,0,1-.105-.105l-.03-1.7q-.007-.338.007-.684t.022-.654h-.015q-.12.293-.259.609t-.29.6l-.684,1.4a.125.125,0,0,1-.12.075h-.045a.12.12,0,0,1-.113-.075l-.691-1.405q-.142-.286-.278-.6c-.09-.208-.176-.41-.256-.6h-.03q.015.308.03.654t.007.676l-.038,1.706c0,.07-.033.105-.1.105h-.977Z" transform="translate(-3186.212 -725.749)" fill="#fff"/><path d="M3484.828,768.663c-.065,0-.1-.035-.1-.105v-4.712c0-.07.032-.105.1-.105h1.007c.06,0,.09.035.09.105v4.712c0,.07-.031.105-.09.105Z" transform="translate(-3311.399 -725.749)" fill="#fff"/><path d="M3534.72,768.663c-.06,0-.09-.035-.09-.105v-3.773h-1.165c-.07,0-.106-.032-.106-.1v-.842a.093.093,0,0,1,.106-.105H3537c.065,0,.1.035.1.105v.842a.086.086,0,0,1-.1.1h-1.165v3.773a.093.093,0,0,1-.106.105Z" transform="translate(-3357.61 -725.749)" fill="#fff"/><path d="M3633.017,768.663c-.065,0-.1-.035-.1-.105v-4.712c0-.07.032-.105.1-.105h3.007c.06,0,.09.035.09.105v.842c0,.065-.03.1-.09.1h-1.909v.9h1.736c.06,0,.09.035.09.105v.781c0,.07-.03.105-.09.105h-1.736v.94h1.909c.06,0,.09.032.09.1v.842c0,.07-.03.105-.09.105Z" transform="translate(-3452.217 -725.749)" fill="#fff"/><path d="M3725.768,768.663c-.065,0-.1-.035-.1-.105v-4.712c0-.07.032-.105.1-.105h1.684a2.327,2.327,0,0,1,1.688.541,2.164,2.164,0,0,1,.553,1.616v.549a1.963,1.963,0,0,1-2.233,2.217h-1.691Zm1.1-1.037h.526a1.031,1.031,0,0,0,.834-.312,1.355,1.355,0,0,0,.263-.9v-.481a1.247,1.247,0,0,0-.267-.861,1.073,1.073,0,0,0-.838-.3h-.519v2.848Z" transform="translate(-3540.354 -725.749)" fill="#fff"/></g></svg>