<svg xmlns="http://www.w3.org/2000/svg" xmlns:xlink="http://www.w3.org/1999/xlink" width="110" height="26.738" viewBox="0 0 110 26.738"><defs><clipPath id="a"><path d="M11.568,0l5.789,3.342,5.789,3.342V20.054L17.358,23.4l-5.789,3.342L5.779,23.4-.01,20.054V6.684L5.779,3.342,11.568,0Z" transform="translate(0.01 0)" clip-rule="evenodd"/></clipPath></defs><g transform="translate(-104 -38.399)"><g transform="translate(104 38.399)" clip-path="url(#a)"><g transform="translate(-1.554 0.237)"><path d="M-19.87,28.417A13.16,13.16,0,0,1-10.838,20.6l4.553,7.817H-19.87Z" transform="translate(20.83 -20.221)" fill="#1bdf7d" fill-rule="evenodd"/><path d="M-49.469,336.5A13.072,13.072,0,0,1-52,328.753a13.125,13.125,0,0,1,.515-3.652h8.659l-6.642,11.4Z" transform="translate(52 -315.62)" fill="#6c6c8b" fill-rule="evenodd"/><path d="M74.4,498.605a13.279,13.279,0,0,1-1.691.108,13.1,13.1,0,0,1-9.7-4.275l4.716-7.679L74.4,498.605Z" transform="translate(-59.572 -472.448)" fill="#1bdf7d" fill-rule="evenodd"/><path d="M355.709,622.06a13.159,13.159,0,0,1-9,7.552l-4.4-7.552Z" transform="translate(-330.524 -603.704)" fill="#6c6c8b" fill-rule="evenodd"/><path d="M331.2,7.92a13.1,13.1,0,0,1,9.759,4.345l-4.565,7.471-6.924-11.7A13.278,13.278,0,0,1,331.2,7.92Z" transform="translate(-318.068 -7.92)" fill="#6c6c8b" fill-rule="evenodd"/><path d="M520.61,202.5h8.55a13.158,13.158,0,0,0-1.866-11.6l-6.683,11.6Z" transform="translate(-503.495 -185.431)" fill="#1bdf7d" fill-rule="evenodd"/></g></g><g transform="translate(135.85 39.636)"><path d="M1196.182,69.215q-.422,0-.29-.421l5.479-16.544a.41.41,0,0,1,.421-.29h4.689a.41.41,0,0,1,.421.29l5.506,16.544q.105.421-.29.421h-3.952a.385.385,0,0,1-.421-.29l-2.661-9.537q-.264-.948-.5-1.9t-.448-1.87h-.052q-.211.948-.448,1.9t-.5,1.9l-2.608,9.484a.389.389,0,0,1-.422.316h-3.925Zm4.479-3.082.685-3.4h5.453l.711,3.4h-6.849Z" transform="translate(-1195.861 -51.644)" fill="#6c6c8b"/><path d="M1795.6,69.206a.326.326,0,0,1-.369-.369V52.319a.326.326,0,0,1,.369-.369h10.959q.342,0,.343.369v3.03q0,.369-.343.369h-6.981v3.03h6.349q.343,0,.343.369v2.819q0,.369-.343.369h-6.349v3.135h6.981q.342,0,.343.369v3.03q0,.369-.343.369Z" transform="translate(-1777.315 -51.634)" fill="#6c6c8b"/><path d="M2275.809,69.206a.326.326,0,0,1-.369-.369V52.319a.326.326,0,0,1,.369-.369h10.959q.342,0,.343.369v3.03q0,.369-.343.369h-6.981v3.03h6.349q.342,0,.343.369v2.819q0,.369-.343.369h-6.349v3.135h6.981q.342,0,.343.369v3.03q0,.369-.343.369Z" transform="translate(-2243.172 -51.634)" fill="#6c6c8b"/><path d="M2745.44,59.268a8.127,8.127,0,0,1-5.467-1.686q-1.963-1.686-1.963-5.216V48.335q0-3.583,1.963-5.269a8.127,8.127,0,0,1,5.467-1.686,10.367,10.367,0,0,1,4.294.79,5.388,5.388,0,0,1,2.556,2.226,5.254,5.254,0,0,1,.553,3.385.519.519,0,0,1-.119.263.316.316,0,0,1-.25.106h-3.636q-.342,0-.342-.4a2.524,2.524,0,0,0-.685-1.91,3.881,3.881,0,0,0-4.624.079,3.447,3.447,0,0,0-.83,2.569v3.662a3.447,3.447,0,0,0,.83,2.569,3.176,3.176,0,0,0,2.3.8,3.041,3.041,0,0,0,2.371-.777,2.515,2.515,0,0,0,.632-1.857q0-.4.342-.4h3.609a.37.37,0,0,1,.4.369,5.562,5.562,0,0,1-.645,3.385,5.477,5.477,0,0,1-2.542,2.226A10.032,10.032,0,0,1,2745.44,59.268Z" transform="translate(-2691.917 -41.38)" fill="#1bdf7d"/><path d="M3316.482,59.268a8,8,0,0,1-5.585-1.739,6.623,6.623,0,0,1-1.9-5.137V48.256a6.616,6.616,0,0,1,1.9-5.151,9.923,9.923,0,0,1,11.183,0,6.592,6.592,0,0,1,1.91,5.151v4.136a6.6,6.6,0,0,1-1.91,5.137A8.052,8.052,0,0,1,3316.482,59.268Zm0-3.794a3.038,3.038,0,0,0,2.385-.869,3.637,3.637,0,0,0,.777-2.5V48.546a3.637,3.637,0,0,0-.777-2.5,3.039,3.039,0,0,0-2.385-.869,3,3,0,0,0-2.358.869,3.634,3.634,0,0,0-.777,2.5V52.1a3.637,3.637,0,0,0,.777,2.5A3,3,0,0,0,3316.482,55.474Z" transform="translate(-3245.84 -41.38)" fill="#1bdf7d"/></g><g transform="translate(136.43 61.177)"><path d="M1215.323,766.7c-.042,0-.058-.024-.049-.072l.894-2.836a.07.07,0,0,1,.072-.05h.777a.07.07,0,0,1,.072.05l.894,2.836c.015.048,0,.072-.045.072h-.664a.06.06,0,0,1-.063-.05l-.438-1.653c-.027-.109-.052-.215-.074-.321s-.046-.211-.07-.316h-.009q-.032.158-.068.316c-.024.106-.05.212-.077.321l-.429,1.648a.064.064,0,0,1-.068.054Zm.745-.537.108-.569h.881l.113.569Z" transform="translate(-1215.271 -763.69)" fill="#8a8a8a"/><path d="M1327.5,766.7c-.039,0-.058-.021-.058-.063V763.8c0-.042.019-.063.058-.063h1.807c.036,0,.054.021.054.063v.506c0,.039-.018.059-.054.059h-1.147v.542h1.043c.036,0,.054.021.054.063v.47c0,.042-.018.063-.054.063h-1.043v.565h1.147c.036,0,.054.019.054.059v.506c0,.042-.018.063-.054.063Z" transform="translate(-1324.088 -763.69)" fill="#8a8a8a"/><path d="M1420.259,766.7c-.039,0-.058-.021-.058-.063V763.8c0-.042.019-.063.058-.063h1.807c.036,0,.054.021.054.063v.506c0,.039-.018.059-.054.059h-1.147v.542h1.043c.036,0,.054.021.054.063v.47c0,.042-.018.063-.054.063h-1.043v.565h1.147c.036,0,.054.019.054.059v.506c0,.042-.018.063-.054.063Z" transform="translate(-1414.075 -763.69)" fill="#8a8a8a"/><path d="M1511.29,765.137a1.308,1.308,0,0,1-.9-.285,1.119,1.119,0,0,1-.321-.88v-.723a1.126,1.126,0,0,1,.321-.883,1.3,1.3,0,0,1,.9-.287,1.637,1.637,0,0,1,.7.135.889.889,0,0,1,.42.382.919.919,0,0,1,.088.576.1.1,0,0,1-.018.041.048.048,0,0,1-.041.018h-.605c-.039,0-.057-.021-.054-.063a.472.472,0,0,0-.108-.341.486.486,0,0,0-.375-.124.505.505,0,0,0-.377.135.6.6,0,0,0-.133.434v.668a.606.606,0,0,0,.133.438.505.505,0,0,0,.377.135.418.418,0,0,0,.483-.465c0-.045.015-.068.054-.068h.605c.036,0,.056.021.059.063a.955.955,0,0,1-.1.576.911.911,0,0,1-.416.382,1.591,1.591,0,0,1-.7.135Z" transform="translate(-1501.259 -762.08)" fill="#8a8a8a"/><path d="M1618.718,765.137a1.291,1.291,0,0,1-.917-.293,1.13,1.13,0,0,1-.312-.863v-.741a1.136,1.136,0,0,1,.312-.867,1.578,1.578,0,0,1,1.833,0,1.135,1.135,0,0,1,.312.867v.741a1.129,1.129,0,0,1-.312.863A1.29,1.29,0,0,1,1618.718,765.137Zm0-.632a.474.474,0,0,0,.384-.145.643.643,0,0,0,.122-.424v-.655a.641.641,0,0,0-.122-.427.479.479,0,0,0-.384-.142.487.487,0,0,0-.384.142.625.625,0,0,0-.126.427v.655a.626.626,0,0,0,.126.424A.484.484,0,0,0,1618.718,764.505Z" transform="translate(-1605.468 -762.08)" fill="#8a8a8a"/><path d="M1778.507,766.7c-.036,0-.054-.021-.054-.063v-2.267h-.7c-.042,0-.063-.019-.063-.059V763.8a.056.056,0,0,1,.063-.063h2.123c.039,0,.059.021.059.063v.506a.052.052,0,0,1-.059.059h-.7v2.267a.056.056,0,0,1-.063.063Z" transform="translate(-1760.88 -763.69)" fill="#8a8a8a"/><path d="M1877.309,766.7c-.039,0-.059-.021-.059-.063V763.8c0-.042.019-.063.059-.063h1a1.316,1.316,0,0,1,.881.239.9.9,0,0,1,.271.709,1.02,1.02,0,0,1-.12.513.636.636,0,0,1-.391.291v.009l.668,1.12a.057.057,0,0,1,.007.054.048.048,0,0,1-.048.023h-.673a.084.084,0,0,1-.073-.041l-.582-1.048h-.28v1.025c0,.042-.018.063-.054.063h-.605Zm.659-1.657h.339a.529.529,0,0,0,.323-.081.389.389,0,0,0,.009-.524.5.5,0,0,0-.318-.081h-.353v.687Z" transform="translate(-1857.464 -763.69)" fill="#8a8a8a"/><path d="M1974.953,766.7c-.042,0-.058-.024-.05-.072l.894-2.836a.07.07,0,0,1,.072-.05h.777a.07.07,0,0,1,.072.05l.894,2.836q.023.072-.045.072h-.664a.06.06,0,0,1-.063-.05L1976.4,765c-.027-.109-.052-.215-.074-.321s-.046-.211-.07-.316h-.009q-.032.158-.068.316c-.024.106-.05.212-.077.321l-.429,1.648a.064.064,0,0,1-.068.054Zm.745-.537.108-.569h.881l.113.569Z" transform="translate(-1952.196 -763.69)" fill="#8a8a8a"/><path d="M2087.139,766.7c-.039,0-.059-.021-.059-.063V763.8c0-.042.02-.063.059-.063h1.011a1.4,1.4,0,0,1,1.014.325,1.3,1.3,0,0,1,.332.971v.33a1.179,1.179,0,0,1-1.342,1.332h-1.016Zm.659-.623h.316a.62.62,0,0,0,.5-.187.815.815,0,0,0,.158-.54v-.289a.751.751,0,0,0-.16-.517.645.645,0,0,0-.5-.178h-.312v1.711Z" transform="translate(-2061.023 -763.69)" fill="#8a8a8a"/><path d="M2195.609,766.7c-.039,0-.059-.021-.059-.063V763.8c0-.042.02-.063.059-.063h.605c.036,0,.054.021.054.063v2.831c0,.042-.018.063-.054.063Z" transform="translate(-2166.25 -763.69)" fill="#8a8a8a"/><path d="M2249.829,766.679c-.039,0-.059-.021-.059-.063v-2.831c0-.042.019-.063.059-.063h.759a.068.068,0,0,1,.068.045l.542,1.152q.063.127.127.269t.117.282q.054.14.09.253h.014q-.009-.122-.02-.28c-.008-.105-.014-.211-.018-.316s-.007-.2-.007-.276v-1.066c0-.042.02-.063.059-.063h.578c.039,0,.059.021.059.063v2.831c0,.042-.02.063-.059.063h-.758a.072.072,0,0,1-.068-.045l-.524-1.107c-.039-.081-.079-.171-.12-.269s-.079-.194-.115-.289l-.1-.26h-.014q.01.127.016.287t.009.318c0,.106,0,.2,0,.289v1.011a.056.056,0,0,1-.063.063h-.574Z" transform="translate(-2218.85 -763.671)" fill="#8a8a8a"/><path d="M2360.543,765.137a1.221,1.221,0,0,1-.566-.126.907.907,0,0,1-.386-.382,1.331,1.331,0,0,1-.14-.644v-.741a1.117,1.117,0,0,1,.323-.876,1.3,1.3,0,0,1,.9-.289,1.593,1.593,0,0,1,.7.133.879.879,0,0,1,.4.361.816.816,0,0,1,.09.513c0,.039-.022.059-.059.059l-.6,0c-.033,0-.05-.021-.05-.063a.339.339,0,0,0-.106-.273.521.521,0,0,0-.359-.1.509.509,0,0,0-.384.135.607.607,0,0,0-.131.434v.677a.586.586,0,0,0,.135.431.538.538,0,0,0,.393.133.529.529,0,0,0,.354-.106.379.379,0,0,0,.124-.3v-.117h-.465c-.039,0-.058-.021-.058-.063v-.361c0-.042.019-.063.058-.063h1.107c.036,0,.054.021.054.063v.754q0,.176.009.368a3.175,3.175,0,0,0,.032.336.048.048,0,0,1-.009.05.067.067,0,0,1-.05.018h-.479a.05.05,0,0,1-.036-.013.109.109,0,0,1-.022-.045.655.655,0,0,1-.018-.133c0-.056-.008-.106-.013-.151h-.009a.79.79,0,0,1-.156.2.706.706,0,0,1-.237.142.973.973,0,0,1-.339.052Z" transform="translate(-2325.252 -762.08)" fill="#8a8a8a"/><path d="M2526.059,766.7c-.039,0-.059-.021-.059-.063V763.8c0-.042.02-.063.059-.063h.908a1.261,1.261,0,0,1,.88.257.989.989,0,0,1,.276.759.949.949,0,0,1-.284.738,1.254,1.254,0,0,1-.867.26h-.253v.881c0,.042-.018.063-.054.063h-.605Zm.659-1.558h.244a.511.511,0,0,0,.325-.09.353.353,0,0,0,.113-.293.377.377,0,0,0-.106-.3.508.508,0,0,0-.327-.088h-.248v.777Z" transform="translate(-2486.823 -763.69)" fill="#8a8a8a"/><path d="M2622.739,766.7c-.039,0-.059-.021-.059-.063V763.8c0-.042.02-.063.059-.063h1a1.316,1.316,0,0,1,.881.239.9.9,0,0,1,.271.709,1.02,1.02,0,0,1-.12.513.635.635,0,0,1-.391.291v.009l.668,1.12a.056.056,0,0,1,.007.054.048.048,0,0,1-.048.023h-.673a.084.084,0,0,1-.073-.041l-.583-1.048h-.28v1.025c0,.042-.018.063-.054.063Zm.659-1.657h.339a.53.53,0,0,0,.323-.081.389.389,0,0,0,.009-.524.5.5,0,0,0-.319-.081h-.352v.687Z" transform="translate(-2580.614 -763.69)" fill="#8a8a8a"/><path d="M2726.229,766.7c-.039,0-.059-.021-.059-.063V763.8c0-.042.02-.063.059-.063h.605c.036,0,.054.021.054.063v2.831c0,.042-.018.063-.054.063Z" transform="translate(-2681.011 -763.69)" fill="#8a8a8a"/><path d="M2773.945,766.7a.067.067,0,0,1-.068-.05l-.876-2.836c-.012-.048,0-.072.045-.072h.659a.066.066,0,0,1,.073.05l.42,1.63q.041.163.074.327t.061.332h.014q.027-.172.063-.336t.077-.332l.416-1.617a.064.064,0,0,1,.068-.054h.655c.048,0,.066.024.054.072l-.881,2.836a.063.063,0,0,1-.068.05Z" transform="translate(-2726.438 -763.69)" fill="#8a8a8a"/><path d="M2869.493,766.7c-.042,0-.059-.024-.05-.072l.894-2.836a.07.07,0,0,1,.072-.05h.777a.07.07,0,0,1,.073.05l.894,2.836c.015.048,0,.072-.045.072h-.664a.06.06,0,0,1-.063-.05l-.438-1.653c-.027-.109-.052-.215-.074-.321s-.046-.211-.07-.316h-.009c-.021.105-.043.211-.068.316s-.05.212-.077.321l-.429,1.648a.064.064,0,0,1-.068.054Zm.745-.537.109-.569h.88l.113.569Z" transform="translate(-2819.999 -763.69)" fill="#8a8a8a"/><path d="M2968.218,766.7c-.036,0-.054-.021-.054-.063v-2.267h-.7c-.042,0-.063-.019-.063-.059V763.8a.056.056,0,0,1,.063-.063h2.122c.04,0,.059.021.059.063v.506a.052.052,0,0,1-.059.059h-.7v2.267a.056.056,0,0,1-.063.063Z" transform="translate(-2915.03 -763.69)" fill="#8a8a8a"/><path d="M3067.019,766.7c-.039,0-.059-.021-.059-.063V763.8c0-.042.019-.063.059-.063h1.806c.036,0,.054.021.054.063v.506c0,.039-.018.059-.054.059h-1.147v.542h1.043c.036,0,.054.021.054.063v.47c0,.042-.018.063-.054.063h-1.043v.565h1.147c.036,0,.054.019.054.059v.506c0,.042-.018.063-.054.063Z" transform="translate(-3011.615 -763.69)" fill="#8a8a8a"/><path d="M3214.839,766.7c-.04,0-.059-.021-.059-.063V763.8c0-.042.019-.063.059-.063h.614c.03,0,.045.021.045.063v2.267h1.07a.052.052,0,0,1,.059.059v.506c0,.042-.02.063-.059.063Z" transform="translate(-3155.016 -763.69)" fill="#8a8a8a"/><path d="M3300.639,766.7c-.039,0-.059-.021-.059-.063V763.8c0-.042.02-.063.059-.063h.605c.036,0,.054.021.054.063v2.831c0,.042-.018.063-.054.063Z" transform="translate(-3238.252 -763.69)" fill="#8a8a8a"/><path d="M3353.053,766.7a.056.056,0,0,1-.063-.063l.054-2.831a.056.056,0,0,1,.063-.063h.691a.075.075,0,0,1,.072.045l.664,1.477.668-1.477a.067.067,0,0,1,.068-.045h.7c.036,0,.054.021.054.063l.058,2.831c0,.042-.019.063-.058.063h-.587a.056.056,0,0,1-.063-.063l-.018-1.021q0-.2,0-.411c.006-.138.01-.27.013-.393h-.009c-.048.117-.1.239-.155.366s-.114.247-.174.361l-.411.84a.075.075,0,0,1-.072.045h-.027a.072.072,0,0,1-.067-.045l-.416-.844c-.057-.115-.113-.234-.167-.359s-.105-.246-.153-.363h-.018c.006.123.012.254.018.393s.007.274,0,.406l-.023,1.025c0,.042-.02.063-.058.063h-.587Z" transform="translate(-3289.096 -763.69)" fill="#8a8a8a"/><path d="M3484.789,766.7c-.039,0-.059-.021-.059-.063V763.8c0-.042.02-.063.059-.063h.605c.036,0,.054.021.054.063v2.831c0,.042-.019.063-.054.063Z" transform="translate(-3416.898 -763.69)" fill="#8a8a8a"/><path d="M3534.177,766.7c-.036,0-.054-.021-.054-.063v-2.267h-.7c-.042,0-.064-.019-.064-.059V763.8a.056.056,0,0,1,.064-.063h2.122c.039,0,.059.021.059.063v.506a.052.052,0,0,1-.059.059h-.7v2.267a.056.056,0,0,1-.063.063Z" transform="translate(-3464.074 -763.69)" fill="#8a8a8a"/><path d="M3632.978,766.7c-.039,0-.058-.021-.058-.063V763.8c0-.042.019-.063.058-.063h1.807c.036,0,.054.021.054.063v.506c0,.039-.018.059-.054.059h-1.147v.542h1.043c.036,0,.054.021.054.063v.47c0,.042-.018.063-.054.063h-1.043v.565h1.147c.036,0,.054.019.054.059v.506c0,.042-.018.063-.054.063Z" transform="translate(-3560.659 -763.69)" fill="#8a8a8a"/><path d="M3725.729,766.7c-.039,0-.059-.021-.059-.063V763.8c0-.042.019-.063.059-.063h1.012a1.4,1.4,0,0,1,1.014.325,1.3,1.3,0,0,1,.332.971v.33a1.18,1.18,0,0,1-1.342,1.332h-1.016Zm.659-.623h.316a.619.619,0,0,0,.5-.187.815.815,0,0,0,.158-.54v-.289a.75.75,0,0,0-.16-.517.645.645,0,0,0-.5-.178h-.312v1.711Z" transform="translate(-3650.637 -763.69)" fill="#8a8a8a"/></g></g></svg>