<svg xmlns="http://www.w3.org/2000/svg" width="26.586" height="19.89" viewBox="0 0 26.586 19.89"><path d="M2.552,60.951q.5.339,3.041,2.013T9.48,65.542q.148.1.63.431t.8.537q.319.2.772.459a4.583,4.583,0,0,0,.853.381,2.457,2.457,0,0,0,.742.127h.03a2.459,2.459,0,0,0,.742-.127,4.587,4.587,0,0,0,.853-.381q.452-.254.771-.459t.8-.537q.482-.332.631-.431,1.365-.9,6.943-4.591a6.884,6.884,0,0,0,1.81-1.737,3.61,3.61,0,0,0,.727-2.133,2.115,2.115,0,0,0-.7-1.6,2.352,2.352,0,0,0-1.669-.664H2.374a2.166,2.166,0,0,0-1.758.734A2.762,2.762,0,0,0,0,57.391a3.212,3.212,0,0,0,.816,1.928A7.208,7.208,0,0,0,2.552,60.951Z" transform="translate(0 -54.82)" fill="#1bdf7d"/><path d="M25.1,185.666q-4.866,3.136-7.388,4.874-.846.593-1.372.925a8.638,8.638,0,0,1-1.4.678,4.451,4.451,0,0,1-1.632.346h-.03a4.452,4.452,0,0,1-1.632-.346,8.642,8.642,0,0,1-1.4-.678q-.527-.332-1.372-.925-2-1.4-7.373-4.874A7.766,7.766,0,0,1,0,184.437v11.216a2.125,2.125,0,0,0,.7,1.6,2.344,2.344,0,0,0,1.677.664H24.212a2.344,2.344,0,0,0,1.676-.664,2.125,2.125,0,0,0,.7-1.6V184.437A8.079,8.079,0,0,1,25.1,185.666Z" transform="translate(0 -178.024)" fill="#1bdf7d"/></svg>