<svg xmlns="http://www.w3.org/2000/svg" width="21.954" height="22" viewBox="0 0 21.954 22"><g transform="translate(-0.539)"><g transform="translate(0.539)"><path d="M21.917,16.146l-3.07-3.07a2.042,2.042,0,0,0-3.4.768,2.089,2.089,0,0,1-2.412,1.316c-2.193-.548-5.153-3.4-5.7-5.7A1.987,1.987,0,0,1,8.65,7.045a2.042,2.042,0,0,0,.768-3.4L6.347.576a2.19,2.19,0,0,0-2.961,0L1.3,2.659c-2.083,2.193.219,8,5.373,13.158s10.965,7.566,13.158,5.373l2.083-2.083A2.19,2.19,0,0,0,21.917,16.146Z" transform="translate(-0.539 0)" fill="#1bdf7d"/></g></g></svg>