<svg xmlns="http://www.w3.org/2000/svg" width="54.582" height="62.382" viewBox="0 0 54.582 62.382"><g transform="translate(-31.998 511.948)"><path d="M62.918-511.759a13.661,13.661,0,0,0-9.88,7.245,13.5,13.5,0,0,0-.012,12.4,12.643,12.643,0,0,0,2.769,3.708l1.086,1.049-.939.39a19.471,19.471,0,0,0-3.305,1.793c-.756.5-.781.5-1.281.354-.281-.085-1.317-.415-2.317-.72A19.858,19.858,0,0,0,47-486.1c-.488,0-13.844,4.305-14.222,4.586-.817.6-.781.207-.781,9.782,0,7.062.037,8.843.183,9.684q1.226,7.062,8.489,10.587a24.159,24.159,0,0,0,2.525,1.049,6.761,6.761,0,0,1,1.4.585c.354.256.366.256,20.576.256H85.409l.329-.256a3.326,3.326,0,0,0,.585-.585c.256-.329.256-.427.256-10.355,0-10.965.012-10.733-.744-13.344a20.322,20.322,0,0,0-9.16-11.7,22.953,22.953,0,0,0-2.171-1.11,4.815,4.815,0,0,1-1.025-.512,4.6,4.6,0,0,1,.732-.659,14.406,14.406,0,0,0,4.4-7.708,21.431,21.431,0,0,0,0-5,14.276,14.276,0,0,0-5.513-8.623A13.915,13.915,0,0,0,62.918-511.759Zm4.574,4a9.78,9.78,0,0,1,5.867,4.2,9.739,9.739,0,0,1-2.9,13.441,9.7,9.7,0,0,1-12.1-1.232,9.19,9.19,0,0,1-2.879-6.94A8.814,8.814,0,0,1,57-503.575a9.827,9.827,0,0,1,6.4-4.306A12.042,12.042,0,0,1,67.492-507.758Zm2.683,23.528a15.93,15.93,0,0,1,9.075,5.757,15.365,15.365,0,0,1,3.1,6.4l.317,1.281L82.7-462.1l.049,8.7H76.883l-.024-9.136c-.037-9.014-.037-9.148-.293-9.477a1.722,1.722,0,0,0-1.634-.842,1.722,1.722,0,0,0-1.634.842c-.256.329-.256.464-.293,9.477l-.024,9.136H57.368v-.256a4.122,4.122,0,0,1,.9-1.232,13.791,13.791,0,0,0,3.342-5.928l.329-1.183.037-9.148c.012-5.037,0-9.27-.037-9.416a2.28,2.28,0,0,0-.439-.707c-.342-.378-.622-.5-2.5-1.11-1.171-.366-2.122-.7-2.122-.72a16.282,16.282,0,0,1,2.988-1.049,18.4,18.4,0,0,1,5.733-.415A16.375,16.375,0,0,1,70.175-484.23Zm-17.6,3.891L58.1-478.6v7.806c0,7.318-.012,7.867-.244,8.794a10,10,0,0,1-.537,1.671c-1.317,2.988-4.671,5.452-8.9,6.55-1.317.341-1.378.341-2.147.171-4.708-1.061-8.343-3.72-9.7-7.086-.659-1.622-.683-2.025-.646-10.27l.037-7.623,4.33-1.366c2.378-.756,4.83-1.537,5.428-1.732s1.147-.366,1.22-.378S49.538-481.291,52.575-480.339Z" transform="translate(0 0)" fill="#1bdf7d"/><path d="M112.826-205.516c-.317.1-1.268.964-3.72,3.415L105.8-198.82l-1.39-1.4c-1.525-1.537-2.074-1.854-2.891-1.732a1.987,1.987,0,0,0-1.451,2.744,36.216,36.216,0,0,0,2.537,2.671c2.012,2,2.427,2.342,2.818,2.415,1.049.2,1.183.1,5.379-4.062,2.134-2.135,4.037-4.11,4.232-4.4A1.945,1.945,0,0,0,112.826-205.516Z" transform="translate(-59.605 -268.981)" fill="#1bdf7d"/></g></svg>