<svg xmlns="http://www.w3.org/2000/svg" width="58.936" height="65.948" viewBox="0 0 58.936 65.948"><g transform="translate(0)"><path d="M55.181-511.685a7.08,7.08,0,0,0-4.948,4.884l-.09.477-1.868.619a21.058,21.058,0,0,0-4.149,1.688,26.3,26.3,0,0,0-6.546,4.574l-1.121,1.082-.76-.193a6.779,6.779,0,0,0-8.363,6,7,7,0,0,0,1.752,5.064l.631.7-.322,1.327a24.79,24.79,0,0,0-.67,7.2,23.636,23.636,0,0,0,.747,6.159l.258,1.069-.644.709a7,7,0,0,0-1.752,5.064,6.877,6.877,0,0,0,5.051,6,7.79,7.79,0,0,0,3.363,0l.67-.206,1.005.979a28.371,28.371,0,0,0,10.785,6.365l1.933.619.09.49A6.468,6.468,0,0,0,52-447.979a6.607,6.607,0,0,0,7.9,1.276,7.112,7.112,0,0,0,3.428-4.317l.1-.49,1.34-.4a27.942,27.942,0,0,0,11.223-6.469l1.108-1.07.76.193a6.769,6.769,0,0,0,8.363-5.992,6.958,6.958,0,0,0-1.752-5.077l-.644-.709.258-1.005A22.125,22.125,0,0,0,84.8-478.9a21.631,21.631,0,0,0-.722-6.8l-.258-1.069.644-.709a6.742,6.742,0,0,0-4.948-11.262,8.048,8.048,0,0,0-1.649.193l-.747.193-.928-.9a27.765,27.765,0,0,0-6.6-4.678,25.319,25.319,0,0,0-4.51-1.83l-1.662-.541-.1-.49a6.63,6.63,0,0,0-1.765-3.041A6.687,6.687,0,0,0,55.181-511.685Zm2.9,4.02a3.038,3.038,0,0,1,1.082.915c.361.5.387.644.387,1.624s-.026,1.121-.387,1.624a3.238,3.238,0,0,1-2.384,1.276,3.238,3.238,0,0,1-2.384-1.276c-.361-.5-.387-.644-.387-1.624s.026-1.121.387-1.624a3.238,3.238,0,0,1,2.384-1.276A2.767,2.767,0,0,1,58.08-507.665ZM51.032-501.6a6.977,6.977,0,0,0,5.747,3.234,6.977,6.977,0,0,0,5.747-3.234,3.234,3.234,0,0,1,.567-.76c.052,0,.773.232,1.611.515a24.72,24.72,0,0,1,8.556,5.1l.773.722-.322.515a7.483,7.483,0,0,0-.838,4.884,6.816,6.816,0,0,0,2.809,4.149,7.088,7.088,0,0,0,3.492,1.2c1.2.1,1.069-.064,1.456,1.817a31,31,0,0,1,.193,7.9c-.129.812-.309,1.83-.412,2.255l-.193.773-1.005.026a6.754,6.754,0,0,0-6.34,5.283,7.419,7.419,0,0,0,.863,4.961l.309.477-.941.837A24.051,24.051,0,0,1,67.19-457a25.587,25.587,0,0,1-4.085,1.546,2.8,2.8,0,0,1-.58-.76,6.977,6.977,0,0,0-5.747-3.234,6.977,6.977,0,0,0-5.747,3.234,3.888,3.888,0,0,1-.554.76c-.052,0-.683-.206-1.417-.451a25.233,25.233,0,0,1-8.736-5.141l-.8-.734.374-.606a7.005,7.005,0,0,0,.245-6.378,6.927,6.927,0,0,0-5.76-3.775c-1.2-.1-1.07.064-1.456-1.817a22.367,22.367,0,0,1-.335-3.737,21.761,21.761,0,0,1,.49-6.095l.258-1.1,1.005-.026a6.4,6.4,0,0,0,4.523-1.971,6.814,6.814,0,0,0,1.031-8.144l-.374-.606.8-.734a25.877,25.877,0,0,1,8.659-5.141c.709-.232,1.353-.438,1.43-.438S50.774-502.008,51.032-501.6Zm-15.669,7.023a2.272,2.272,0,0,1,1.3,1.366A2.872,2.872,0,0,1,32.5-489.6a2.891,2.891,0,0,1-.374-4.536A2.867,2.867,0,0,1,35.363-494.573Zm45.228-.1a2.885,2.885,0,0,1,.515,5.025,2.791,2.791,0,0,1-3.466-.18,2.833,2.833,0,0,1-.747-3.376,2.173,2.173,0,0,1,1.34-1.366A2.961,2.961,0,0,1,80.591-494.676ZM34.809-468.583A3.263,3.263,0,0,1,36.69-467a3.094,3.094,0,0,1-.026,2.4,2.173,2.173,0,0,1-1.34,1.366,2.818,2.818,0,0,1-4.11-2.6,2.8,2.8,0,0,1,1.971-2.706A2.323,2.323,0,0,1,34.809-468.583Zm45.538.064a2.84,2.84,0,0,1,1.688,4.046,2.819,2.819,0,0,1-3.8,1.237,2.173,2.173,0,0,1-1.34-1.366,2.892,2.892,0,0,1,1.92-4.007A2.3,2.3,0,0,1,80.346-468.518Zm-22.266,13.3a3.038,3.038,0,0,1,1.082.915c.361.5.387.644.387,1.624s-.026,1.121-.387,1.623a3.238,3.238,0,0,1-2.384,1.276,3.238,3.238,0,0,1-2.384-1.276c-.361-.5-.387-.644-.387-1.623s.026-1.121.387-1.624a3.238,3.238,0,0,1,2.384-1.276A2.768,2.768,0,0,1,58.08-455.221Z" transform="translate(-27.311 511.875)" fill="#1bdf7d"/><path d="M157.265-374.1l-6.765,3.9v15.823l6.636,3.84c3.647,2.113,6.726,3.866,6.842,3.9s2.989-1.546,6.958-3.84l6.752-3.891V-370.2l-6.752-3.891c-3.724-2.152-6.791-3.9-6.842-3.9S160.976-376.248,157.265-374.1Zm10.489,2.629c1.92,1.108,3.647,2.113,3.84,2.229l.335.206-3.84,2.216c-2.113,1.224-3.9,2.216-3.982,2.216s-1.881-1.005-4.007-2.229c-3.518-2.023-3.827-2.229-3.569-2.371.155-.09,1.881-1.082,3.827-2.216s3.621-2.062,3.724-2.062S165.821-372.575,167.754-371.467Zm-9.406,8.092,3.814,2.191v9.11l-.283-.18c-.168-.1-1.933-1.134-3.93-2.294l-3.647-2.087v-4.51a37.71,37.71,0,0,1,.116-4.458C154.495-365.591,156.26-364.586,158.347-363.375Zm15.54,2.242v4.5l-3.634,2.1c-2.01,1.147-3.775,2.178-3.93,2.281l-.3.18v-4.549l.013-4.561,3.827-2.216c2.1-1.211,3.866-2.216,3.93-2.216S173.887-363.607,173.887-361.133Z" transform="translate(-134.626 395.251)" fill="#1bdf7d"/></g></svg>