<svg xmlns="http://www.w3.org/2000/svg" width="59.991" height="56.055" viewBox="0 0 59.991 56.055"><g transform="translate(-6.997 464.119)"><path d="M314.187-465.9a38.891,38.891,0,0,0-5.287,5.1,29.8,29.8,0,0,0-4.888,6.954A9.044,9.044,0,0,0,303-449.486a12.067,12.067,0,0,0,16.531,11,11.98,11.98,0,0,0,7.553-11,9.052,9.052,0,0,0-1.055-4.446c-1.283-2.708-3.548-5.657-7.14-9.277C316.011-466.116,315.426-466.444,314.187-465.9Zm2.864,6.883a29.04,29.04,0,0,1,5.415,7.553,6.911,6.911,0,0,1-.613,5.586,8.06,8.06,0,0,1-6.812,4,8,8,0,0,1-7.539-5.771,6.62,6.62,0,0,1,.114-3.819,20.675,20.675,0,0,1,2.579-4.2,40.6,40.6,0,0,1,4.845-5.3A15.019,15.019,0,0,1,317.051-459.019Z" transform="translate(-265.539 2)" fill="#1bdf7d"/><path d="M13.766-292.735c-2.508.641-4.788,1.3-5.059,1.454a4.191,4.191,0,0,0-1.568,2.038C7.054-288.9,7-284.085,7-275.235c0,15.163-.057,14.322,1.069,15.448,1.012,1.026,1.3,1.069,6.769,1.069,4.09,0,4.9-.029,5.486-.242a3.684,3.684,0,0,0,2.351-3.392v-.6c2.907-.242.418.531,5.519-2.377l8.775,1.539c10.873,1.653,7.315,1.682,9.011,1.083.428-.142,18.277-9.255,19.162-9.938,1.206-1,2.451-3.967,1.527-6.022s-2.684-5.569-8.481-3.349L50.752-278l-.356-.67a5.049,5.049,0,0,0-1.625-1.981c-.7-.5-12.958-9.263-14.583-10.018-2.793-1.311-3.246-1.4-6,0-.385.185-4.664,2.776-5.192,2.932-.328.1-.328.1-.328-1.511a13.224,13.224,0,0,0-.143-2.138,3.643,3.643,0,0,0-3.406-2.522A44.41,44.41,0,0,0,13.766-292.735ZM18.4-276.247v13.253H11.272l.029-12.355.043-12.355,3.491-.884c1.924-.485,3.506-.9,3.534-.9S18.4-283.543,18.4-276.247ZM32.45-286.775c2.266,1.083,13.614,9.42,13.927,9.747a1.416,1.416,0,0,1-.755,2.28c-.442.071-.912-.143-4.646-2.166-2.294-1.24-4.432-2.337-4.774-2.465a1.292,1.292,0,0,0-1.3.071,1.943,1.943,0,0,0-1.325,2.024,1.293,1.293,0,0,0,.542,1.3,95.863,95.863,0,0,0,9.206,5.144,5.374,5.374,0,0,0,3.363.228,5.431,5.431,0,0,0,2.864-1.71c.684-.7,1.1-.926,3.691-2.123,1.61-.741,3.6-2.266,6-3.377,2.437-1.126,2.844-.2,3.286.279a1.568,1.568,0,0,1-.4,2.532c-.57.613-17.316,8.319-18.171,8.4a40.5,40.5,0,0,0-7.058-1.525c-5.643-.869-9.188-1.553-9.445-1.511s-3.225,2.377-4.308,2.377h-.47v-15.918l.884-.242a73.976,73.976,0,0,0,6.741-3.346A3.486,3.486,0,0,1,32.45-286.775Z" transform="translate(0 -149.346)" fill="#1bdf7d"/></g></svg>